<svg xmlns="http://www.w3.org/2000/svg" xmlns:xlink="http://www.w3.org/1999/xlink" width="300" zoomAndPan="magnify" viewBox="0 0 224.87999 225" height="300" preserveAspectRatio="xMidYMid meet" version="1.0"><defs><clipPath id="f45e9fd8e0"><path d="M 0 29.714844 L 42 29.714844 L 42 84 L 0 84 Z M 0 29.714844 " clip-rule="nonzero"/></clipPath><clipPath id="de8f7fa9ec"><path d="M 197 149 L 224.761719 149 L 224.761719 190 L 197 190 Z M 197 149 " clip-rule="nonzero"/></clipPath></defs><path fill="#70b747" d="M 154.066406 155.417969 C 153.878906 155.957031 153.292969 156.25 152.753906 156.0625 L 58.265625 123.96875 C 57.722656 123.785156 57.4375 123.199219 57.617188 122.660156 L 72.074219 80.0625 C 72.253906 79.519531 72.839844 79.230469 73.382812 79.414062 L 167.871094 111.507812 C 168.410156 111.691406 168.699219 112.277344 168.519531 112.820312 L 154.066406 155.417969 " fill-opacity="1" fill-rule="nonzero"/><path fill="#8dd361" d="M 150.40625 150.003906 C 150.257812 150.445312 149.738281 150.675781 149.253906 150.511719 L 64.417969 121.699219 C 63.933594 121.53125 63.664062 121.035156 63.816406 120.589844 L 75.730469 85.472656 C 75.878906 85.03125 76.394531 84.800781 76.882812 84.964844 L 161.71875 113.78125 C 162.199219 113.945312 162.472656 114.441406 162.320312 114.886719 L 150.40625 150.003906 " fill-opacity="1" fill-rule="nonzero"/><path fill="#70b747" d="M 125.339844 121.90625 C 123.039062 128.6875 115.679688 132.324219 108.902344 130.019531 C 102.125 127.71875 98.492188 120.351562 100.792969 113.570312 C 103.097656 106.789062 110.457031 103.15625 117.234375 105.457031 C 124.011719 107.761719 127.644531 115.125 125.339844 121.90625 " fill-opacity="1" fill-rule="nonzero"/><path fill="#70b747" d="M 75.730469 85.472656 L 72.5 94.992188 C 78.195312 96.929688 84.386719 93.875 86.324219 88.175781 L 76.882812 84.964844 C 76.394531 84.800781 75.878906 85.03125 75.730469 85.472656 " fill-opacity="1" fill-rule="nonzero"/><path fill="#70b747" d="M 64.347656 121.671875 L 73.859375 124.902344 C 75.796875 119.203125 72.742188 113.007812 67.046875 111.074219 L 63.839844 120.523438 C 63.675781 121.003906 63.90625 121.519531 64.347656 121.671875 " fill-opacity="1" fill-rule="nonzero"/><path fill="#70b747" d="M 162.320312 114.886719 L 159.089844 124.398438 C 153.394531 122.46875 150.339844 116.277344 152.277344 110.574219 L 161.71875 113.78125 C 162.199219 113.945312 162.472656 114.441406 162.320312 114.886719 " fill-opacity="1" fill-rule="nonzero"/><path fill="#70b747" d="M 149.328125 150.535156 L 139.8125 147.304688 C 141.75 141.605469 147.933594 138.550781 153.632812 140.484375 L 150.429688 149.933594 C 150.269531 150.417969 149.773438 150.6875 149.328125 150.535156 " fill-opacity="1" fill-rule="nonzero"/><path fill="#f9aa6c" d="M 117.941406 86.21875 C 117.941406 86.21875 100.398438 59.21875 93.335938 55.371094 C 93.335938 55.371094 82.132812 47.785156 36.582031 41.105469 L 28.664062 64.449219 C 28.664062 64.449219 53.898438 89.550781 55.992188 91.667969 C 58.085938 93.789062 66.480469 99.101562 71.210938 100.707031 C 75.9375 102.3125 94.3125 111.367188 94.3125 111.367188 C 94.308594 111.367188 98.566406 112.8125 101.007812 109.339844 C 102.457031 107.273438 102.582031 105.910156 101.464844 104.351562 C 101.464844 104.351562 100.207031 101.5 82.644531 88.761719 C 77.1875 84.804688 71.972656 74.058594 74.417969 72.601562 C 78.542969 70.132812 83.636719 71.339844 83.636719 71.339844 L 95.121094 78.929688 L 105.074219 90.179688 L 121.636719 95.804688 C 121.636719 95.804688 121.328125 90.996094 117.941406 86.21875 " fill-opacity="1" fill-rule="nonzero"/><path fill="#f8bd90" d="M 94.882812 100.355469 L 90.191406 106.804688 C 90.191406 106.804688 95.492188 110.867188 98.15625 108.585938 C 101.503906 105.722656 98.226562 102.542969 94.882812 100.355469 " fill-opacity="1" fill-rule="nonzero"/><path fill="#99def2" d="M 26.476562 77.117188 L 36.882812 80.648438 L 50.164062 41.496094 L 39.757812 37.964844 L 26.476562 77.117188 " fill-opacity="1" fill-rule="nonzero"/><g clip-path="url(#f45e9fd8e0)"><path fill="#354d7f" d="M 26.011719 83.671875 L 0.160156 74.890625 L 15.488281 29.71875 L 41.335938 38.5 L 26.011719 83.671875 " fill-opacity="1" fill-rule="nonzero"/></g><path fill="#f9aa6c" d="M 99.824219 194.757812 C 92.996094 194.136719 53.253906 170.527344 53.253906 170.527344 C 53.253906 170.527344 51.390625 163.691406 61.328125 163.691406 C 71.261719 163.691406 97.964844 172.390625 97.964844 172.390625 L 115.464844 170.652344 C 115.464844 170.652344 110.050781 165.265625 117.140625 161.871094 C 122.96875 159.078125 148.753906 148.289062 154.96875 146.421875 C 161.175781 144.558594 184.152344 149.53125 191.601562 153.875 L 191.601562 181.835938 C 191.601562 181.835938 106.65625 195.382812 99.824219 194.757812 " fill-opacity="1" fill-rule="nonzero"/><path fill="#f8bd90" d="M 124.746094 161.75 C 124.746094 161.75 125.988281 168.808594 125.988281 170.464844 C 125.988281 170.464844 116.875 172.726562 116.882812 166.09375 C 116.886719 161.863281 124.746094 161.75 124.746094 161.75 " fill-opacity="1" fill-rule="nonzero"/><path fill="#e89258" d="M 115.464844 170.652344 C 115.464844 170.652344 119.277344 173.761719 128.429688 171.894531 C 128.429688 171.894531 144.410156 167.3125 146.273438 166.292969 C 146.273438 166.292969 159.933594 163.171875 167.59375 166.292969 C 167.59375 166.292969 128.125 182.042969 115.464844 170.652344 " fill-opacity="1" fill-rule="nonzero"/><path fill="#f8bd90" d="M 65.886719 177.855469 L 67.746094 173.421875 C 67.746094 173.421875 58.023438 164.3125 53.859375 170.886719 C 55.460938 171.832031 60.101562 174.5625 65.886719 177.855469 " fill-opacity="1" fill-rule="nonzero"/><path fill="#99def2" d="M 200.503906 186.1875 L 188.292969 186.1875 L 188.292969 149.320312 L 200.503906 149.320312 L 200.503906 186.1875 " fill-opacity="1" fill-rule="nonzero"/><g clip-path="url(#de8f7fa9ec)"><path fill="#354d7f" d="M 224.722656 189.707031 L 197.191406 189.707031 L 197.191406 149.320312 L 224.722656 149.320312 L 224.722656 189.707031 " fill-opacity="1" fill-rule="nonzero"/></g></svg>