<svg xmlns="http://www.w3.org/2000/svg" xmlns:xlink="http://www.w3.org/1999/xlink" width="300" zoomAndPan="magnify" viewBox="0 0 224.87999 225" height="300" preserveAspectRatio="xMidYMid meet" version="1.0"><defs><clipPath id="8495504039"><path d="M 0 0.0585938 L 224.761719 0.0585938 L 224.761719 224.9375 L 0 224.9375 Z M 0 0.0585938 " clip-rule="nonzero"/></clipPath></defs><g clip-path="url(#8495504039)"><path fill="#00bf63" d="M 112.441406 0.0585938 C 50.402344 0.0585938 0 50.460938 0 112.5 C 0 174.539062 50.402344 224.941406 112.441406 224.941406 C 174.476562 224.941406 224.878906 174.539062 224.878906 112.5 C 224.878906 50.460938 174.476562 0.0585938 112.441406 0.0585938 Z M 112.441406 10.28125 C 168.953125 10.28125 214.65625 55.984375 214.65625 112.5 C 214.65625 169.015625 168.953125 214.71875 112.441406 214.71875 C 55.925781 214.71875 10.222656 169.015625 10.222656 112.5 C 10.222656 55.984375 55.925781 10.28125 112.441406 10.28125 Z M 69.21875 40.949219 C 67.949219 44.058594 63.605469 50.898438 63.605469 50.898438 C 63.605469 50.898438 76.054688 112.550781 67.949219 119.988281 C 59.867188 127.449219 43.667969 128.710938 34.339844 122.503906 C 24.984375 116.265625 34.949219 96.339844 34.949219 96.339844 C 29.339844 103.183594 24.984375 111.277344 25.613281 119.976562 C 26.234375 128.710938 32.460938 137.402344 47.40625 138.035156 C 62.339844 138.664062 72.925781 123.113281 75.425781 116.890625 C 77.925781 110.675781 73.558594 77.046875 73.558594 68.328125 C 73.558594 59.640625 76.664062 54.652344 76.664062 54.652344 C 72.320312 52.152344 69.21875 40.949219 69.21875 40.949219 Z M 123.789062 56.351562 C 123.59375 55.765625 122.460938 58.300781 116.582031 87.953125 C 108.722656 127.472656 66.441406 137.355469 66.441406 137.355469 C 90.007812 141.078125 106.917969 129.335938 112.9375 116.992188 C 118.992188 104.628906 123.199219 78.691406 123.199219 78.691406 C 123.199219 115.765625 126.371094 127.152344 135.4375 131.476562 C 144.5 135.820312 162.023438 129.636719 174.710938 124.6875 C 182.785156 121.546875 192.226562 122.839844 192.226562 122.839844 L 199.324219 110.582031 C 199.324219 110.582031 189.183594 111.703125 181.957031 108.636719 C 174.703125 105.539062 164.4375 96.28125 154.164062 97.507812 C 144.332031 98.699219 138.933594 116.277344 138.492188 117.75 C 138.722656 117.089844 140.058594 114.261719 146.917969 110.484375 C 154.773438 106.140625 170.464844 115.433594 170.464844 115.433594 C 163.234375 122.226562 149.929688 122.839844 139.0625 121.59375 C 128.191406 120.339844 128.648438 93.523438 128.050781 74.386719 C 127.433594 55.238281 123.820312 57.089844 123.820312 57.089844 C 123.820312 57.089844 123.855469 56.542969 123.789062 56.351562 Z M 76.921875 66.5 C 76.921875 66.5 76.332031 68.199219 76.921875 76.703125 C 77.5 85.25 85.621094 84.097656 92.035156 88.640625 C 98.425781 93.175781 101.917969 107.390625 101.917969 107.390625 C 105.40625 75.589844 76.921875 66.5 76.921875 66.5 Z M 46 148.277344 L 46 173.832031 L 52.417969 173.832031 L 52.417969 163.527344 L 62.457031 163.527344 L 62.457031 173.832031 L 68.847656 173.832031 L 68.847656 148.277344 L 62.457031 148.277344 L 62.457031 158.308594 L 52.417969 158.308594 L 52.417969 148.277344 Z M 83.203125 148.277344 L 74.746094 173.832031 L 81.105469 173.832031 L 82.734375 168.222656 L 90.957031 168.222656 L 92.527344 173.832031 L 99.511719 173.832031 L 91.039062 148.277344 Z M 105.414062 148.277344 L 105.414062 173.832031 L 122.53125 173.832031 L 122.53125 168.460938 L 111.820312 168.460938 L 111.820312 148.277344 Z M 137.007812 148.277344 L 128.550781 173.832031 L 134.910156 173.832031 L 136.539062 168.222656 L 144.761719 168.222656 L 146.339844 173.832031 L 153.328125 173.832031 L 144.851562 148.277344 Z M 161.761719 148.277344 L 161.761719 173.832031 L 178.882812 173.832031 L 178.882812 168.460938 L 168.171875 168.460938 L 168.171875 148.277344 Z M 86.714844 154.035156 L 87.046875 154.035156 L 89.75 163.550781 L 83.949219 163.550781 Z M 140.519531 154.035156 L 140.847656 154.035156 L 143.566406 163.550781 L 137.753906 163.550781 Z M 140.519531 154.035156 " fill-opacity="1" fill-rule="nonzero"/></g></svg>