<svg xmlns="http://www.w3.org/2000/svg" xmlns:xlink="http://www.w3.org/1999/xlink" width="300" zoomAndPan="magnify" viewBox="0 0 224.87999 225" height="300" preserveAspectRatio="xMidYMid meet" version="1.0"><defs><clipPath id="7c8a563ce5"><path d="M 0 9 L 224.761719 9 L 224.761719 219.128906 L 0 219.128906 Z M 0 9 " clip-rule="nonzero"/></clipPath></defs><path fill="#809fb3" d="M 183.628906 31.851562 L 61.535156 31.851562 C 55.230469 31.851562 50.097656 37.039062 50.097656 43.355469 L 50.097656 182.949219 C 50.097656 189.265625 55.230469 194.40625 61.535156 194.40625 L 183.628906 194.40625 C 189.933594 194.40625 195.113281 189.265625 195.113281 182.949219 L 195.113281 43.355469 C 195.113281 37.039062 189.933594 31.851562 183.628906 31.851562 Z M 183.628906 31.851562 " fill-opacity="1" fill-rule="evenodd"/><path fill="#ffd5d2" d="M 173.511719 180.109375 L 95.261719 180.109375 L 62.367188 147.15625 L 62.367188 52.414062 C 62.367188 47.273438 66.570312 43.113281 71.652344 43.113281 L 173.460938 43.113281 C 178.59375 43.113281 182.75 47.324219 182.75 52.414062 L 182.75 170.757812 C 182.796875 175.898438 178.59375 180.109375 173.511719 180.109375 Z M 173.511719 180.109375 " fill-opacity="1" fill-rule="evenodd"/><path fill="#ffb7b2" d="M 129.472656 180.109375 L 95.261719 180.109375 L 62.367188 147.15625 L 62.367188 106.617188 L 92.570312 106.617188 C 112.855469 106.617188 129.472656 123.261719 129.472656 143.582031 Z M 129.472656 180.109375 " fill-opacity="1" fill-rule="evenodd"/><path fill="#e18a7a" d="M 140.078125 25.4375 L 138.171875 25.4375 C 135.484375 25.4375 133.285156 23.476562 132.945312 20.832031 C 132.257812 15.691406 127.859375 11.777344 122.582031 11.777344 C 117.253906 11.777344 112.90625 15.742188 112.21875 20.832031 C 111.878906 23.476562 109.628906 25.4375 106.992188 25.4375 L 105.085938 25.4375 C 102.152344 25.4375 99.804688 27.835938 99.804688 30.722656 L 99.804688 44.238281 C 99.804688 47.175781 102.152344 49.574219 105.085938 49.574219 L 140.128906 49.574219 C 143.0625 49.574219 145.457031 47.175781 145.457031 44.238281 L 145.457031 30.722656 C 145.40625 27.835938 143.011719 25.4375 140.078125 25.4375 Z M 140.078125 25.4375 " fill-opacity="1" fill-rule="evenodd"/><path fill="#ffd5d2" d="M 122.582031 19.5625 C 124.292969 19.5625 125.710938 20.929688 125.710938 22.695312 C 125.710938 24.40625 124.292969 25.828125 122.582031 25.828125 C 120.871094 25.828125 119.453125 24.40625 119.453125 22.695312 C 119.453125 20.980469 120.871094 19.5625 122.582031 19.5625 Z M 122.582031 19.5625 " fill-opacity="1" fill-rule="evenodd"/><path fill="#9bd0b6" d="M 152.984375 60.933594 L 160.511719 60.933594 C 163.539062 60.933594 166.03125 63.429688 166.03125 66.464844 L 166.03125 74.007812 C 166.03125 77.042969 163.539062 79.539062 160.511719 79.539062 L 152.984375 79.539062 C 149.953125 79.539062 147.460938 77.042969 147.460938 74.007812 L 147.460938 66.464844 C 147.460938 63.429688 149.953125 60.933594 152.984375 60.933594 Z M 152.984375 60.933594 " fill-opacity="1" fill-rule="evenodd"/><path fill="#9bd0b6" d="M 152.984375 89.917969 L 160.511719 89.917969 C 163.539062 89.917969 166.03125 92.367188 166.03125 95.453125 L 166.03125 102.992188 C 166.03125 106.027344 163.539062 108.527344 160.511719 108.527344 L 152.984375 108.527344 C 149.953125 108.527344 147.460938 106.027344 147.460938 102.992188 L 147.460938 95.453125 C 147.460938 92.417969 149.953125 89.917969 152.984375 89.917969 Z M 152.984375 89.917969 " fill-opacity="1" fill-rule="evenodd"/><path fill="#9bd0b6" d="M 152.984375 118.90625 L 160.511719 118.90625 C 163.539062 118.90625 166.03125 121.402344 166.03125 124.4375 L 166.03125 131.980469 C 166.03125 135.015625 163.539062 137.511719 160.511719 137.511719 L 152.984375 137.511719 C 149.953125 137.511719 147.460938 135.0625 147.460938 131.980469 L 147.460938 124.4375 C 147.460938 121.402344 149.953125 118.90625 152.984375 118.90625 Z M 152.984375 118.90625 " fill-opacity="1" fill-rule="evenodd"/><path fill="#e18a7a" d="M 209.582031 94.03125 L 220.335938 102.40625 C 222.144531 103.824219 222.484375 106.421875 221.066406 108.230469 L 178.9375 162.335938 C 176.933594 159.398438 174.390625 156.65625 171.3125 154.257812 C 168.230469 151.859375 164.957031 150.046875 161.632812 148.820312 L 203.765625 94.71875 C 205.132812 92.90625 207.773438 92.613281 209.582031 94.03125 Z M 209.582031 94.03125 " fill-opacity="1" fill-rule="evenodd"/><path fill="#ffb7b2" d="M 178.886719 162.335938 L 178.398438 162.972656 L 164.859375 167.964844 C 163.441406 168.457031 162.023438 168.261719 160.851562 167.328125 C 159.679688 166.398438 159.140625 165.027344 159.335938 163.558594 L 161.144531 149.507812 L 161.632812 148.871094 C 164.957031 150.09375 168.230469 151.90625 171.3125 154.304688 C 174.34375 156.65625 176.882812 159.398438 178.886719 162.335938 Z M 178.886719 162.335938 " fill-opacity="1" fill-rule="evenodd"/><path fill="#e18a7a" d="M 170.921875 165.714844 L 164.859375 167.964844 C 163.441406 168.457031 162.023438 168.261719 160.851562 167.328125 C 159.679688 166.398438 159.140625 165.027344 159.335938 163.558594 L 160.117188 157.339844 C 162.121094 158.371094 164.078125 159.640625 165.984375 161.113281 C 167.792969 162.53125 169.453125 164.097656 170.921875 165.714844 Z M 170.921875 165.714844 " fill-opacity="1" fill-rule="evenodd"/><path fill="#ffb7b2" d="M 206.0625 107.398438 L 207.820312 108.769531 C 208.507812 109.308594 208.605469 110.289062 208.117188 110.972656 L 199.511719 121.992188 C 198.976562 122.675781 197.996094 122.773438 197.3125 122.285156 L 195.554688 120.914062 C 194.871094 120.375 194.773438 119.394531 195.261719 118.710938 L 203.863281 107.691406 C 204.402344 107.007812 205.378906 106.910156 206.0625 107.398438 Z M 189.640625 128.207031 L 191.691406 129.824219 C 192.28125 130.3125 193.160156 130.167969 193.597656 129.578125 L 194.820312 128.0625 C 195.261719 127.472656 195.164062 126.59375 194.578125 126.152344 L 192.523438 124.535156 C 191.9375 124.09375 191.058594 124.195312 190.617188 124.78125 L 189.394531 126.300781 C 188.957031 126.886719 189.054688 127.71875 189.640625 128.207031 Z M 189.640625 128.207031 " fill-opacity="1" fill-rule="evenodd"/><path fill="#d89b56" d="M 47.019531 89.382812 L 101.175781 89.382812 C 104.839844 89.382812 107.871094 92.417969 107.871094 96.089844 L 107.871094 146.519531 C 107.871094 150.242188 104.839844 153.226562 101.175781 153.226562 L 47.019531 153.226562 C 43.351562 153.226562 40.324219 150.191406 40.324219 146.519531 L 40.324219 96.089844 C 40.324219 92.417969 43.351562 89.382812 47.019531 89.382812 Z M 47.019531 89.382812 " fill-opacity="1" fill-rule="evenodd"/><path fill="#dab46a" d="M 47.019531 89.382812 L 101.175781 89.382812 C 104.839844 89.382812 107.871094 92.417969 107.871094 96.089844 L 107.871094 138.980469 C 89.199219 139.960938 67.792969 128.601562 53.371094 108.132812 C 49.316406 102.355469 46.089844 96.332031 43.746094 90.214844 C 44.722656 89.675781 45.847656 89.382812 47.019531 89.382812 Z M 47.019531 89.382812 " fill-opacity="1" fill-rule="evenodd"/><path fill="#cc3366" d="M 62.953125 89.382812 L 85.242188 89.382812 L 85.242188 118.808594 L 74.144531 112.539062 L 62.953125 118.808594 Z M 62.953125 89.382812 " fill-opacity="1" fill-rule="evenodd"/><path fill="#d89b56" d="M 85.386719 153.226562 L 139.542969 153.226562 C 143.207031 153.226562 146.238281 156.265625 146.238281 159.9375 L 146.238281 210.367188 C 146.238281 214.039062 143.207031 217.074219 139.542969 217.074219 L 85.386719 217.074219 C 81.722656 217.074219 78.691406 214.039062 78.691406 210.367188 L 78.691406 159.984375 C 78.691406 156.265625 81.722656 153.226562 85.386719 153.226562 Z M 85.386719 153.226562 " fill-opacity="1" fill-rule="evenodd"/><path fill="#dab46a" d="M 85.386719 153.226562 L 139.542969 153.226562 C 143.207031 153.226562 146.238281 156.265625 146.238281 159.9375 L 146.238281 202.828125 C 127.566406 203.808594 106.160156 192.496094 91.742188 171.980469 C 87.683594 166.203125 84.457031 160.179688 82.113281 154.109375 C 83.089844 153.570312 84.214844 153.226562 85.386719 153.226562 Z M 85.386719 153.226562 " fill-opacity="1" fill-rule="evenodd"/><path fill="#cc3366" d="M 101.320312 153.226562 L 123.609375 153.226562 L 123.609375 182.703125 L 112.511719 176.386719 L 101.320312 182.703125 Z M 101.320312 153.226562 " fill-opacity="1" fill-rule="evenodd"/><path fill="#d89b56" d="M 8.652344 153.226562 L 62.804688 153.226562 C 66.472656 153.226562 69.503906 156.265625 69.503906 159.9375 L 69.503906 210.367188 C 69.503906 214.039062 66.472656 217.074219 62.804688 217.074219 L 8.652344 217.074219 C 4.984375 217.074219 1.953125 214.039062 1.953125 210.367188 L 1.953125 159.984375 C 1.953125 156.265625 4.984375 153.226562 8.652344 153.226562 Z M 8.652344 153.226562 " fill-opacity="1" fill-rule="evenodd"/><path fill="#dab46a" d="M 8.652344 153.226562 L 62.804688 153.226562 C 66.472656 153.226562 69.503906 156.265625 69.503906 159.9375 L 69.503906 202.828125 C 50.832031 203.808594 29.421875 192.496094 15.003906 171.980469 C 10.949219 166.203125 7.722656 160.179688 5.375 154.109375 C 6.355469 153.570312 7.476562 153.226562 8.652344 153.226562 Z M 8.652344 153.226562 " fill-opacity="1" fill-rule="evenodd"/><path fill="#cc3366" d="M 24.632812 153.226562 L 46.871094 153.226562 L 46.871094 182.703125 L 35.777344 176.386719 L 24.632812 182.703125 Z M 24.632812 153.226562 " fill-opacity="1" fill-rule="evenodd"/><g clip-path="url(#7c8a563ce5)"><path fill="#000000" d="M 15.492188 198.027344 C 12.902344 198.027344 12.902344 194.113281 15.492188 194.113281 L 22.582031 194.113281 C 25.171875 194.113281 25.171875 198.027344 22.582031 198.027344 Z M 15.492188 204.882812 C 12.902344 204.882812 12.902344 200.96875 15.492188 200.96875 L 29.71875 200.96875 C 32.257812 200.96875 32.257812 204.882812 29.71875 204.882812 Z M 24.632812 151.269531 L 39.835938 151.269531 C 38.953125 149.898438 38.417969 148.28125 38.417969 146.519531 L 38.417969 96.089844 C 38.417969 91.289062 42.328125 87.421875 47.066406 87.421875 L 48.144531 87.421875 L 48.144531 43.355469 C 48.144531 35.964844 54.15625 29.890625 61.535156 29.890625 L 97.851562 29.890625 C 98.289062 26.269531 101.371094 23.476562 105.035156 23.476562 C 106.648438 23.476562 107.96875 23.671875 109.140625 22.644531 C 109.726562 22.15625 110.117188 21.421875 110.265625 20.539062 C 111.585938 10.796875 123.265625 6.292969 130.746094 12.851562 C 132.945312 14.761719 134.457031 17.503906 134.898438 20.539062 C 135.144531 22.203125 136.511719 23.429688 138.222656 23.429688 C 140.910156 23.429688 143.011719 23.332031 145.210938 25.535156 C 146.335938 26.660156 147.117188 28.179688 147.3125 29.84375 L 183.628906 29.84375 C 191.007812 29.84375 197.070312 35.914062 197.070312 43.308594 L 197.070312 100.152344 L 202.25 93.492188 C 204.449219 90.703125 207.820312 90.117188 210.804688 92.417969 L 221.554688 100.789062 C 224.832031 103.335938 224.878906 106.46875 222.632812 109.359375 L 197.117188 142.113281 L 197.117188 182.898438 C 197.117188 190.292969 191.058594 196.363281 183.675781 196.363281 L 148.242188 196.363281 L 148.242188 210.417969 C 148.242188 215.214844 144.332031 219.082031 139.589844 219.082031 L 85.386719 219.082031 C 80.597656 219.082031 76.734375 215.164062 76.734375 210.417969 L 76.734375 196.414062 L 71.457031 196.414062 L 71.457031 210.417969 C 71.457031 215.214844 67.546875 219.082031 62.804688 219.082031 L 8.652344 219.082031 C 3.859375 219.082031 0 215.164062 0 210.417969 L 0 159.984375 C 0 155.1875 3.910156 151.320312 8.652344 151.320312 L 24.632812 151.320312 Z M 48.828125 155.1875 L 48.828125 182.703125 C 48.828125 184.125 47.261719 185.25 45.796875 184.320312 L 35.828125 178.640625 L 25.5625 184.417969 C 24.242188 185.152344 22.628906 184.171875 22.628906 182.703125 L 22.628906 155.1875 L 8.652344 155.1875 C 6.0625 155.1875 3.910156 157.339844 3.910156 159.9375 L 3.910156 210.367188 C 3.910156 212.960938 6.0625 215.117188 8.652344 215.117188 L 62.804688 215.117188 C 65.398438 215.117188 67.546875 212.960938 67.546875 210.367188 L 67.546875 159.984375 C 67.546875 157.390625 65.398438 155.234375 62.804688 155.234375 L 48.828125 155.234375 Z M 26.589844 155.1875 L 26.589844 179.324219 L 34.847656 174.675781 C 35.433594 174.332031 36.167969 174.332031 36.753906 174.675781 L 44.917969 179.324219 L 44.917969 155.1875 Z M 71.410156 158.957031 C 71.457031 159.300781 71.457031 159.59375 71.457031 159.9375 L 71.457031 192.449219 L 76.734375 192.449219 L 76.734375 164.292969 Z M 92.230469 198.027344 C 89.640625 198.027344 89.640625 194.113281 92.230469 194.113281 L 99.316406 194.113281 C 101.90625 194.113281 101.90625 198.027344 99.316406 198.027344 Z M 92.230469 204.882812 C 89.640625 204.882812 89.640625 200.96875 92.230469 200.96875 L 106.453125 200.96875 C 108.996094 200.96875 108.996094 204.882812 106.453125 204.882812 Z M 108.40625 151.269531 L 139.542969 151.269531 C 144.332031 151.269531 148.191406 155.1875 148.191406 159.9375 L 148.191406 178.101562 L 173.511719 178.101562 C 177.519531 178.101562 180.84375 174.773438 180.84375 170.757812 L 180.84375 162.972656 C 180.355469 163.558594 179.816406 164.488281 179.035156 164.785156 L 165.496094 169.777344 C 161.242188 171.34375 156.746094 167.867188 157.332031 163.265625 L 159.140625 149.214844 C 159.238281 148.527344 159.628906 148.085938 160.070312 147.546875 L 180.792969 120.960938 L 180.792969 52.414062 C 180.792969 48.351562 177.46875 45.070312 173.460938 45.070312 L 147.265625 45.070312 C 146.875 48.742188 143.746094 51.535156 140.03125 51.535156 L 104.988281 51.535156 C 101.273438 51.535156 98.191406 48.695312 97.800781 45.070312 L 71.605469 45.070312 C 67.597656 45.070312 64.273438 48.351562 64.273438 52.414062 L 64.273438 87.421875 L 101.125 87.421875 C 105.914062 87.421875 109.777344 91.339844 109.777344 96.089844 L 109.777344 146.519531 C 109.824219 148.28125 109.289062 149.949219 108.40625 151.269531 Z M 125.5625 155.1875 L 125.5625 182.703125 C 125.5625 184.125 124 185.25 122.53125 184.320312 L 112.5625 178.640625 L 102.296875 184.417969 C 100.976562 185.152344 99.367188 184.171875 99.367188 182.703125 L 99.367188 155.1875 L 85.386719 155.1875 C 82.796875 155.1875 80.644531 157.339844 80.644531 159.9375 L 80.644531 210.367188 C 80.644531 212.960938 82.796875 215.117188 85.386719 215.117188 L 139.542969 215.117188 C 142.132812 215.117188 144.28125 212.960938 144.28125 210.367188 L 144.28125 159.984375 C 144.28125 157.390625 142.132812 155.234375 139.542969 155.234375 L 125.5625 155.234375 Z M 103.277344 155.1875 L 103.277344 179.324219 L 111.535156 174.675781 C 112.121094 174.332031 112.855469 174.332031 113.441406 174.675781 L 121.605469 179.324219 L 121.605469 155.1875 Z M 148.191406 182.066406 L 148.191406 192.496094 L 183.628906 192.496094 C 188.859375 192.496094 193.160156 188.1875 193.160156 182.996094 L 193.160156 147.253906 L 184.753906 158.027344 L 184.753906 170.804688 C 184.753906 177.023438 179.71875 182.066406 173.511719 182.066406 Z M 76.785156 158.859375 C 76.980469 157.535156 77.421875 156.3125 78.152344 155.1875 L 73.167969 155.1875 Z M 53.863281 134.132812 C 51.269531 134.132812 51.269531 130.214844 53.863281 130.214844 L 60.949219 130.214844 C 63.539062 130.214844 63.539062 134.132812 60.949219 134.132812 Z M 53.863281 141.035156 C 51.269531 141.035156 51.269531 137.121094 53.863281 137.121094 L 68.085938 137.121094 C 70.625 137.121094 70.625 141.035156 68.085938 141.035156 Z M 87.195312 91.339844 L 87.195312 118.855469 C 87.195312 120.277344 85.632812 121.402344 84.164062 120.472656 L 74.195312 114.792969 L 63.980469 120.570312 C 62.660156 121.304688 61.046875 120.324219 61.046875 118.855469 L 61.046875 91.339844 L 47.066406 91.339844 C 44.476562 91.339844 42.328125 93.492188 42.328125 96.089844 L 42.328125 146.519531 C 42.328125 149.164062 44.476562 151.269531 47.066406 151.269531 L 101.222656 151.269531 C 103.8125 151.269531 105.964844 149.117188 105.964844 146.519531 L 105.964844 96.089844 C 105.964844 93.492188 103.8125 91.339844 101.222656 91.339844 Z M 64.957031 91.339844 L 64.957031 115.476562 L 73.214844 110.828125 C 73.804688 110.484375 74.535156 110.484375 75.121094 110.828125 L 83.285156 115.476562 L 83.285156 91.339844 Z M 52.003906 87.421875 L 60.363281 87.421875 L 60.363281 52.414062 C 60.363281 46.195312 65.445312 41.152344 71.605469 41.152344 L 97.753906 41.152344 L 97.753906 33.808594 L 61.488281 33.808594 C 56.257812 33.808594 52.003906 38.117188 52.003906 43.308594 Z M 176.835938 156.703125 L 178.9375 159.105469 L 219.503906 107.007812 C 220.53125 105.6875 220.578125 105.050781 219.113281 103.921875 L 208.359375 95.550781 C 207.136719 94.621094 206.160156 94.765625 205.28125 95.941406 L 196.726562 106.957031 C 196.679688 107.058594 196.582031 107.15625 196.53125 107.203125 L 184.410156 122.726562 C 184.363281 122.824219 184.265625 122.921875 184.214844 122.96875 L 164.714844 147.988281 L 167.351562 149.3125 C 170.871094 151.269531 174.144531 153.816406 176.835938 156.703125 Z M 164.175781 166.105469 L 176.050781 161.746094 C 173.21875 158.074219 169.355469 154.894531 165.445312 152.738281 L 162.808594 151.417969 L 161.242188 163.804688 C 161.046875 165.421875 162.613281 166.742188 164.175781 166.105469 Z M 184.753906 115.96875 L 193.160156 105.195312 L 193.160156 43.355469 C 193.160156 38.117188 188.859375 33.859375 183.628906 33.859375 L 147.363281 33.859375 L 147.363281 41.152344 L 173.511719 41.152344 C 179.71875 41.152344 184.753906 46.246094 184.753906 52.414062 Z M 136.609375 132.417969 C 139.152344 132.417969 139.152344 136.335938 136.609375 136.335938 L 129.472656 136.335938 C 126.882812 136.335938 126.882812 132.417969 129.472656 132.417969 Z M 136.609375 120.082031 C 139.152344 120.082031 139.152344 123.996094 136.609375 123.996094 L 129.472656 123.996094 C 126.882812 123.996094 126.882812 120.082031 129.472656 120.082031 Z M 152.984375 116.945312 L 160.511719 116.945312 C 164.617188 116.945312 167.988281 120.324219 167.988281 124.4375 L 167.988281 131.980469 C 167.988281 136.089844 164.617188 139.46875 160.511719 139.46875 L 152.984375 139.46875 C 148.878906 139.46875 145.503906 136.089844 145.503906 131.980469 L 145.503906 124.4375 C 145.503906 120.324219 148.878906 116.945312 152.984375 116.945312 Z M 160.511719 120.863281 L 152.984375 120.863281 C 151.027344 120.863281 149.414062 122.480469 149.414062 124.4375 L 149.414062 131.980469 C 149.414062 133.9375 151.027344 135.554688 152.984375 135.554688 L 160.511719 135.554688 C 162.464844 135.554688 164.078125 133.9375 164.078125 131.980469 L 164.078125 124.4375 C 164.078125 122.480469 162.464844 120.863281 160.511719 120.863281 Z M 152.984375 88.011719 L 160.511719 88.011719 C 164.617188 88.011719 167.988281 91.339844 167.988281 95.453125 L 167.988281 102.992188 C 167.988281 107.105469 164.617188 110.433594 160.511719 110.433594 L 152.984375 110.433594 C 148.878906 110.433594 145.503906 107.058594 145.503906 102.992188 L 145.503906 95.453125 C 145.503906 91.339844 148.878906 88.011719 152.984375 88.011719 Z M 160.511719 91.878906 L 152.984375 91.878906 C 151.027344 91.878906 149.414062 93.492188 149.414062 95.453125 L 149.414062 102.992188 C 149.414062 104.953125 151.027344 106.566406 152.984375 106.566406 L 160.511719 106.566406 C 162.464844 106.566406 164.078125 104.953125 164.078125 102.992188 L 164.078125 95.453125 C 164.078125 93.492188 162.464844 91.878906 160.511719 91.878906 Z M 152.984375 58.976562 L 160.511719 58.976562 C 164.617188 58.976562 167.988281 62.355469 167.988281 66.464844 L 167.988281 74.007812 C 167.988281 78.121094 164.617188 81.5 160.511719 81.5 L 152.984375 81.5 C 148.878906 81.5 145.503906 78.121094 145.503906 74.007812 L 145.503906 66.464844 C 145.503906 62.355469 148.878906 58.976562 152.984375 58.976562 Z M 160.511719 62.890625 L 152.984375 62.890625 C 151.027344 62.890625 149.414062 64.507812 149.414062 66.464844 L 149.414062 74.007812 C 149.414062 75.964844 151.027344 77.582031 152.984375 77.582031 L 160.511719 77.582031 C 162.464844 77.582031 164.078125 75.964844 164.078125 74.007812 L 164.078125 66.464844 C 164.078125 64.507812 162.464844 62.890625 160.511719 62.890625 Z M 122.582031 17.601562 C 127.078125 17.601562 129.375 23.085938 126.148438 26.269531 C 122.875 29.5 117.5 27.101562 117.5 22.695312 C 117.5 19.902344 119.796875 17.601562 122.582031 17.601562 Z M 123.414062 21.863281 C 122.335938 20.785156 120.675781 22.449219 121.75 23.527344 C 122.828125 24.605469 124.488281 22.9375 123.414062 21.863281 Z M 136.609375 74.449219 C 139.152344 74.449219 139.152344 78.363281 136.609375 78.363281 L 90.226562 78.363281 C 87.636719 78.363281 87.636719 74.449219 90.226562 74.449219 Z M 136.609375 62.109375 C 139.152344 62.109375 139.152344 66.027344 136.609375 66.027344 L 79.523438 66.027344 C 76.929688 66.027344 76.929688 62.109375 79.523438 62.109375 Z M 140.078125 27.394531 C 137.539062 27.394531 135.582031 27.542969 133.433594 25.582031 C 132.160156 24.457031 131.28125 22.890625 131.039062 21.078125 C 130.109375 14.371094 122.09375 11.382812 117.011719 15.789062 C 115.496094 17.113281 114.46875 18.972656 114.175781 21.078125 C 113.6875 24.703125 110.605469 27.347656 106.992188 27.347656 C 105.28125 27.347656 103.960938 27.101562 102.738281 28.324219 C 101.664062 29.402344 101.761719 30.480469 101.761719 31.800781 L 101.761719 44.1875 C 101.761719 46.050781 103.277344 47.566406 105.085938 47.566406 L 140.128906 47.566406 C 141.984375 47.566406 143.5 46.050781 143.5 44.1875 L 143.5 30.722656 C 143.453125 28.914062 141.9375 27.394531 140.078125 27.394531 Z M 136.609375 103.433594 C 139.152344 103.433594 139.152344 107.351562 136.609375 107.351562 L 124.292969 107.351562 C 121.703125 107.351562 121.703125 103.433594 124.292969 103.433594 Z M 136.609375 91.09375 C 139.152344 91.09375 139.152344 95.011719 136.609375 95.011719 L 112.953125 95.011719 C 110.410156 95.011719 110.410156 91.09375 112.953125 91.09375 Z M 136.609375 91.09375 " fill-opacity="1" fill-rule="nonzero"/></g></svg>