<svg xmlns="http://www.w3.org/2000/svg" xmlns:xlink="http://www.w3.org/1999/xlink" width="300" zoomAndPan="magnify" viewBox="0 0 224.87999 225" height="300" preserveAspectRatio="xMidYMid meet" version="1.0"><defs><clipPath id="dc4cbdd7d7"><path d="M 0 0.0585938 L 224.761719 0.0585938 L 224.761719 218.195312 L 0 218.195312 Z M 0 0.0585938 " clip-rule="nonzero"/></clipPath></defs><g clip-path="url(#dc4cbdd7d7)"><path fill="#ff3131" d="M 4.660156 192.183594 L 4.402344 192.183594 C 1.828125 192.183594 0.0234375 190.378906 0.0234375 188.0625 L 0.0234375 141.707031 C 0.0234375 139.128906 1.054688 136.8125 2.859375 135.007812 L 40.199219 98.4375 C 42.003906 96.636719 44.0625 95.863281 46.640625 95.863281 L 76.257812 95.863281 C 75.742188 113.375 75.484375 128.828125 75.484375 142.21875 L 224.855469 142.21875 L 224.855469 192.183594 L 204.507812 192.183594 C 204.507812 174.15625 190.085938 159.734375 172.058594 159.734375 C 154.03125 159.734375 139.609375 174.15625 139.609375 192.183594 L 74.195312 192.183594 C 74.195312 174.15625 59.515625 159.734375 41.746094 159.734375 C 23.71875 159.734375 9.039062 174.15625 9.039062 192.183594 Z M 41.746094 166.429688 C 55.910156 166.429688 67.5 178.019531 67.5 192.183594 C 67.5 206.605469 55.910156 218.195312 41.746094 218.195312 C 27.324219 218.195312 15.734375 206.605469 15.734375 192.183594 C 15.734375 178.019531 27.324219 166.429688 41.746094 166.429688 Z M 172.058594 166.429688 C 186.480469 166.429688 198.070312 178.019531 198.070312 192.183594 C 198.070312 206.605469 186.480469 218.195312 172.058594 218.195312 C 157.636719 218.195312 146.046875 206.605469 146.046875 192.183594 C 146.046875 178.019531 157.636719 166.429688 172.058594 166.429688 Z M 93.511719 39.71875 L 102.78125 39.71875 C 102.78125 40.492188 102.78125 41.523438 102.78125 42.554688 C 102.78125 68.824219 124.15625 90.199219 150.425781 90.199219 C 176.953125 90.199219 198.328125 68.824219 198.328125 42.554688 C 198.328125 41.523438 198.328125 40.492188 198.070312 39.71875 L 205.539062 39.71875 C 210.433594 39.71875 214.296875 43.582031 214.296875 48.476562 L 214.296875 127.28125 C 214.296875 132.175781 210.433594 136.039062 205.539062 136.039062 L 93.511719 136.039062 C 88.617188 136.039062 84.753906 132.175781 84.753906 127.28125 L 84.753906 48.476562 C 84.753906 43.582031 88.617188 39.71875 93.511719 39.71875 Z M 150.425781 0.0585938 C 173.863281 0.0585938 192.921875 19.117188 192.921875 42.554688 C 192.921875 65.988281 173.863281 85.046875 150.425781 85.046875 C 126.992188 85.046875 107.933594 65.988281 107.933594 42.554688 C 107.933594 19.117188 126.992188 0.0585938 150.425781 0.0585938 Z M 147.335938 20.921875 L 147.335938 15.253906 L 153.773438 15.253906 L 153.773438 20.921875 C 160.726562 21.691406 165.621094 25.042969 167.679688 31.222656 L 157.378906 34.3125 C 156.09375 31.480469 154.03125 30.191406 150.683594 30.191406 C 148.109375 30.191406 146.5625 30.964844 146.5625 32.765625 C 146.5625 33.539062 146.820312 34.054688 147.335938 34.3125 C 147.851562 34.828125 149.140625 35.34375 151.199219 35.859375 C 156.09375 36.886719 159.441406 37.660156 161.5 38.691406 C 163.5625 39.464844 165.363281 40.75 166.652344 42.8125 C 168.195312 44.871094 168.710938 47.1875 168.710938 49.765625 C 168.710938 53.628906 167.425781 56.71875 164.847656 59.292969 C 162.015625 61.867188 158.410156 63.414062 153.773438 63.929688 L 153.773438 69.851562 L 147.335938 69.851562 L 147.335938 63.929688 C 139.351562 63.15625 134.203125 58.777344 132.140625 51.308594 L 143.730469 49.25 C 144.761719 52.597656 147.335938 54.398438 151.457031 54.398438 C 154.546875 54.398438 156.09375 53.371094 156.09375 51.824219 C 156.09375 50.792969 155.578125 50.023438 155.0625 49.507812 C 154.289062 48.992188 153.003906 48.734375 150.941406 48.21875 C 143.730469 46.675781 139.09375 44.871094 137.035156 42.554688 C 135.230469 40.234375 134.203125 37.660156 134.203125 34.570312 C 134.203125 31.222656 135.230469 28.390625 137.550781 25.8125 C 139.609375 23.238281 142.957031 21.691406 147.335938 20.921875 Z M 172.058594 179.5625 C 179.011719 179.5625 184.679688 185.230469 184.679688 192.183594 C 184.679688 199.136719 179.011719 204.800781 172.058594 204.800781 C 165.105469 204.800781 159.441406 199.136719 159.441406 192.183594 C 159.441406 185.230469 165.105469 179.5625 172.058594 179.5625 Z M 41.746094 179.5625 C 48.699219 179.5625 54.367188 185.230469 54.367188 192.183594 C 54.367188 199.136719 48.699219 204.800781 41.746094 204.800781 C 34.535156 204.800781 28.871094 199.136719 28.871094 192.183594 C 28.871094 185.230469 34.535156 179.5625 41.746094 179.5625 Z M 38.914062 112.605469 L 56.683594 112.605469 C 59 112.605469 61.0625 114.664062 61.0625 116.980469 L 61.0625 141.960938 C 61.0625 144.28125 59 146.082031 56.683594 146.082031 L 22.429688 146.082031 C 20.113281 146.082031 18.308594 144.28125 18.308594 141.960938 L 18.308594 132.949219 C 18.308594 131.917969 18.566406 130.886719 19.597656 130.117188 L 36.082031 113.890625 C 36.851562 113.117188 37.625 112.605469 38.914062 112.605469 Z M 38.914062 112.605469 " fill-opacity="1" fill-rule="evenodd"/></g></svg>