<svg xmlns="http://www.w3.org/2000/svg" xmlns:xlink="http://www.w3.org/1999/xlink" width="200" zoomAndPan="magnify" viewBox="0 0 150 149.999998" height="200" preserveAspectRatio="xMidYMid meet" version="1.0"><defs><clipPath id="f682aa56d9"><path d="M 3.339844 34 L 146.589844 34 L 146.589844 90 L 3.339844 90 Z M 3.339844 34 " clip-rule="nonzero"/></clipPath><clipPath id="cf55fa2d56"><path d="M 4 29.761719 L 146 29.761719 L 146 83 L 4 83 Z M 4 29.761719 " clip-rule="nonzero"/></clipPath><clipPath id="132ca114e3"><path d="M 92 75 L 127 75 L 127 120.511719 L 92 120.511719 Z M 92 75 " clip-rule="nonzero"/></clipPath></defs><path fill="#5e17eb" d="M 118.726562 88.453125 L 31.265625 88.453125 C 16.683594 88.453125 4.753906 76.523438 4.753906 61.941406 C 4.753906 47.363281 16.683594 35.433594 31.265625 35.433594 L 118.730469 35.433594 C 133.308594 35.433594 145.238281 47.363281 145.238281 61.941406 C 145.238281 76.523438 133.308594 88.453125 118.726562 88.453125 Z M 118.726562 88.453125 " fill-opacity="1" fill-rule="nonzero"/><g clip-path="url(#f682aa56d9)"><path fill="#000000" d="M 118.726562 89.761719 L 31.265625 89.761719 C 15.925781 89.761719 3.449219 77.28125 3.449219 61.941406 C 3.449219 46.605469 15.925781 34.125 31.265625 34.125 L 118.730469 34.125 C 134.066406 34.125 146.546875 46.605469 146.546875 61.941406 C 146.546875 77.28125 134.066406 89.761719 118.726562 89.761719 Z M 31.265625 36.738281 C 17.371094 36.738281 6.0625 48.046875 6.0625 61.941406 C 6.0625 75.839844 17.371094 87.144531 31.265625 87.144531 L 118.726562 87.144531 C 132.625 87.144531 143.929688 75.839844 143.933594 61.941406 C 143.933594 48.046875 132.625 36.738281 118.730469 36.738281 Z M 31.265625 36.738281 " fill-opacity="1" fill-rule="nonzero"/></g><g clip-path="url(#cf55fa2d56)"><path fill="#f85606" d="M 118.726562 82.785156 L 31.265625 82.785156 C 16.683594 82.785156 4.753906 70.855469 4.753906 56.273438 C 4.753906 41.695312 16.683594 29.761719 31.265625 29.761719 L 118.730469 29.761719 C 133.308594 29.761719 145.238281 41.695312 145.238281 56.273438 C 145.238281 70.855469 133.308594 82.785156 118.726562 82.785156 Z M 118.726562 82.785156 " fill-opacity="1" fill-rule="nonzero"/></g><g clip-path="url(#132ca114e3)"><path fill="#000000" d="M 126.765625 106.316406 L 126.765625 106.527344 L 126.761719 106.625 C 126.761719 114.128906 120.75 120.238281 113.359375 120.238281 C 109.1875 120.238281 105.792969 118.613281 103.289062 115.402344 L 103.253906 115.363281 C 103.183594 115.285156 103.160156 115.257812 103.132812 115.214844 L 103.121094 115.207031 L 94.398438 103.117188 L 94.371094 103.070312 C 94.359375 103.054688 94.355469 103.042969 94.347656 103.035156 C 93.664062 102.160156 92.6875 100.628906 92.78125 99.515625 C 92.96875 97.339844 94.53125 96.054688 96.714844 95.945312 C 98.125 95.871094 99.917969 96.699219 100.800781 97.796875 C 100.832031 97.824219 100.863281 97.859375 100.890625 97.894531 L 101.722656 98.949219 L 101.722656 79.3125 C 101.804688 76.945312 103.300781 75.089844 105.6875 75.089844 C 108.066406 75.089844 109.996094 76.933594 110.089844 79.289062 L 110.09375 79.355469 L 110.09375 86.972656 C 110.433594 86.890625 110.789062 86.851562 111.148438 86.851562 C 112.695312 86.851562 114.125 87.652344 114.949219 88.921875 C 115.5 88.6875 116.09375 88.570312 116.703125 88.570312 C 118.234375 88.570312 119.625 89.328125 120.453125 90.558594 C 121.011719 90.316406 121.621094 90.191406 122.242188 90.191406 C 124.542969 90.191406 126.476562 91.914062 126.734375 94.199219 C 126.757812 94.359375 126.761719 94.535156 126.761719 94.714844 L 126.761719 106.253906 C 126.765625 106.269531 126.765625 106.289062 126.765625 106.316406 Z M 126.765625 106.316406 " fill-opacity="1" fill-rule="nonzero"/></g><path fill="#ffffff" d="M 126.035156 93.253906 C 126.035156 93.113281 126.027344 92.972656 126.011719 92.835938 C 125.804688 90.996094 124.246094 89.570312 122.355469 89.570312 C 121.566406 89.570312 120.835938 89.816406 120.238281 90.242188 C 120.234375 90.246094 120.230469 90.242188 120.226562 90.238281 C 119.679688 88.894531 118.359375 87.949219 116.816406 87.949219 C 116.035156 87.949219 115.3125 88.191406 114.714844 88.605469 C 114.710938 88.609375 114.707031 88.609375 114.703125 88.601562 C 114.175781 87.214844 112.832031 86.226562 111.261719 86.226562 C 110.574219 86.226562 109.929688 86.414062 109.378906 86.742188 C 109.371094 86.746094 109.367188 86.742188 109.367188 86.734375 L 109.367188 77.894531 L 109.363281 77.878906 C 109.296875 75.972656 107.722656 74.46875 105.804688 74.46875 C 103.882812 74.46875 102.304688 75.972656 102.238281 77.878906 L 102.238281 99.882812 C 102.238281 99.890625 102.230469 99.894531 102.222656 99.890625 L 99.914062 96.957031 C 99.902344 96.941406 99.890625 96.933594 99.878906 96.925781 C 99.191406 96.035156 98.097656 95.476562 96.871094 95.539062 C 95.113281 95.628906 93.664062 97.023438 93.515625 98.777344 C 93.433594 99.734375 93.734375 100.621094 94.277344 101.304688 C 94.296875 101.335938 94.304688 101.347656 94.335938 101.394531 L 103.460938 113.003906 C 103.488281 113.039062 103.503906 113.058594 103.566406 113.128906 C 103.582031 113.148438 103.605469 113.175781 103.621094 113.191406 C 105.921875 116.144531 109.480469 117.933594 113.476562 117.933594 C 120.417969 117.933594 126.039062 112.214844 126.039062 105.164062 C 126.039062 105.054688 126.042969 104.953125 126.039062 104.84375 C 126.042969 104.824219 126.039062 104.820312 126.039062 104.8125 L 126.039062 93.253906 Z M 126.035156 93.253906 " fill-opacity="1" fill-rule="nonzero"/><path fill="#1b1918" d="M 126.765625 104.792969 L 126.765625 93.253906 C 126.765625 93.074219 126.757812 92.898438 126.738281 92.738281 C 126.476562 90.453125 124.542969 88.730469 122.242188 88.730469 C 121.621094 88.730469 121.015625 88.855469 120.457031 89.097656 C 119.628906 87.867188 118.238281 87.105469 116.707031 87.105469 C 116.097656 87.105469 115.5 87.226562 114.949219 87.460938 C 114.128906 86.191406 112.695312 85.386719 111.148438 85.386719 C 110.792969 85.386719 110.4375 85.429688 110.09375 85.511719 L 110.09375 77.828125 C 110 75.472656 108.070312 73.628906 105.691406 73.628906 C 103.304688 73.628906 101.804688 75.484375 101.722656 77.851562 L 101.722656 97.484375 L 100.890625 96.429688 C 100.867188 96.394531 100.835938 96.363281 100.804688 96.335938 C 99.921875 95.238281 98.125 94.410156 96.714844 94.480469 C 94.535156 94.59375 92.96875 95.878906 92.78125 98.050781 C 92.6875 99.164062 93.667969 100.695312 94.351562 101.570312 C 94.355469 101.582031 94.363281 101.589844 94.371094 101.605469 L 94.398438 101.65625 L 103.125 113.746094 L 103.132812 113.753906 C 103.164062 113.792969 103.1875 113.824219 103.257812 113.902344 L 103.289062 113.941406 C 105.796875 117.152344 109.191406 118.773438 113.359375 118.773438 C 120.753906 118.773438 126.765625 112.667969 126.765625 105.164062 L 126.765625 104.855469 C 126.765625 104.824219 126.765625 104.804688 126.765625 104.792969 Z M 125.085938 104.820312 L 125.085938 105.164062 C 125.085938 111.742188 119.824219 117.09375 113.359375 117.09375 C 109.707031 117.09375 106.789062 115.703125 104.605469 112.894531 L 104.511719 112.78125 C 104.476562 112.742188 104.464844 112.730469 104.453125 112.714844 L 95.785156 100.699219 C 95.773438 100.683594 95.769531 100.671875 95.761719 100.660156 L 95.695312 100.5625 C 95.257812 100.019531 94.398438 98.894531 94.457031 98.195312 C 94.570312 96.855469 95.453125 96.226562 96.800781 96.160156 C 97.695312 96.113281 98.988281 96.730469 99.535156 97.4375 L 99.664062 97.601562 L 99.6875 97.617188 L 101.890625 100.414062 C 102.117188 100.695312 102.496094 100.804688 102.835938 100.6875 L 103.402344 100.480469 L 103.402344 77.894531 C 103.460938 76.445312 104.21875 75.308594 105.691406 75.308594 C 107.167969 75.308594 108.363281 76.449219 108.414062 77.90625 L 108.414062 92.355469 C 108.414062 92.777344 108.753906 93.121094 109.175781 93.121094 C 109.597656 93.121094 109.941406 92.777344 109.941406 92.355469 L 109.941406 87.339844 C 110.3125 87.160156 110.726562 87.066406 111.148438 87.066406 C 112.320312 87.066406 113.390625 87.804688 113.804688 88.894531 C 113.828125 88.953125 113.855469 89.007812 113.886719 89.058594 L 113.886719 93.789062 C 113.886719 94.210938 114.230469 94.550781 114.652344 94.550781 C 115.074219 94.550781 115.414062 94.210938 115.414062 93.789062 L 115.414062 89.097656 C 115.8125 88.894531 116.25 88.789062 116.707031 88.789062 C 117.867188 88.789062 118.898438 89.480469 119.332031 90.542969 C 119.351562 90.585938 119.371094 90.628906 119.394531 90.667969 L 119.394531 95.054688 C 119.394531 95.476562 119.734375 95.816406 120.160156 95.816406 C 120.578125 95.816406 120.921875 95.476562 120.921875 95.054688 L 120.921875 90.738281 C 121.324219 90.523438 121.777344 90.410156 122.242188 90.410156 C 123.691406 90.410156 124.902344 91.492188 125.066406 92.933594 C 125.078125 93.035156 125.085938 93.140625 125.085938 93.253906 Z M 125.085938 104.820312 " fill-opacity="1" fill-rule="nonzero"/><path fill="#ffffff" d="M 36.765625 65.070312 C 34.605469 65.070312 32.792969 64.480469 31.324219 63.296875 C 30.871094 62.933594 30.644531 62.515625 30.644531 62.042969 C 30.644531 61.621094 30.808594 61.246094 31.144531 60.914062 C 31.476562 60.582031 31.90625 60.414062 32.425781 60.414062 C 32.855469 60.414062 33.234375 60.546875 33.582031 60.8125 C 34.425781 61.476562 35.488281 61.808594 36.765625 61.808594 C 37.269531 61.808594 37.753906 61.695312 38.222656 61.464844 C 38.679688 61.25 38.902344 60.914062 38.902344 60.457031 C 38.902344 60.203125 38.792969 59.980469 38.578125 59.792969 C 38.363281 59.609375 38.046875 59.429688 37.636719 59.261719 C 37.230469 59.089844 36.765625 58.914062 36.25 58.742188 C 35.6875 58.546875 35.105469 58.328125 34.515625 58.082031 C 33.925781 57.835938 33.371094 57.535156 32.855469 57.179688 C 32.335938 56.824219 31.917969 56.390625 31.601562 55.875 C 31.285156 55.359375 31.125 54.75 31.125 54.035156 C 31.125 52.546875 31.714844 51.375 32.894531 50.515625 C 33.910156 49.78125 35.191406 49.414062 36.753906 49.414062 C 37.5625 49.414062 38.398438 49.53125 39.253906 49.765625 C 40.109375 49.996094 40.855469 50.347656 41.492188 50.804688 C 41.996094 51.175781 42.246094 51.613281 42.246094 52.117188 C 42.246094 52.535156 42.082031 52.910156 41.746094 53.242188 C 41.414062 53.578125 40.992188 53.742188 40.472656 53.742188 C 40.074219 53.742188 39.710938 53.628906 39.382812 53.40625 C 39.023438 53.164062 38.605469 52.976562 38.121094 52.855469 C 37.632812 52.734375 37.179688 52.675781 36.753906 52.675781 C 36.230469 52.675781 35.769531 52.761719 35.371094 52.933594 C 34.992188 53.109375 34.804688 53.421875 34.804688 53.867188 C 34.804688 54.078125 34.902344 54.261719 35.09375 54.417969 C 35.285156 54.574219 35.570312 54.730469 35.953125 54.890625 C 36.332031 55.046875 36.765625 55.210938 37.257812 55.378906 C 37.835938 55.574219 38.433594 55.800781 39.042969 56.054688 C 39.652344 56.308594 40.226562 56.625 40.765625 56.996094 C 41.304688 57.367188 41.742188 57.828125 42.074219 58.363281 C 42.410156 58.902344 42.578125 59.546875 42.578125 60.300781 C 42.578125 61.066406 42.414062 61.742188 42.089844 62.335938 C 41.765625 62.929688 41.328125 63.433594 40.765625 63.839844 C 40.207031 64.25 39.582031 64.554688 38.886719 64.761719 C 38.191406 64.964844 37.484375 65.070312 36.765625 65.070312 Z M 36.765625 65.070312 " fill-opacity="1" fill-rule="nonzero"/><path fill="#ffffff" d="M 47.980469 65.070312 C 47.46875 65.070312 47.027344 64.921875 46.644531 64.621094 C 46.261719 64.320312 46.074219 63.929688 46.074219 63.457031 L 46.074219 51.019531 C 46.074219 50.542969 46.261719 50.15625 46.644531 49.855469 C 47.027344 49.554688 47.46875 49.402344 47.980469 49.402344 C 48.484375 49.402344 48.925781 49.554688 49.3125 49.855469 C 49.699219 50.152344 49.886719 50.542969 49.886719 51.019531 L 49.886719 63.457031 C 49.886719 63.933594 49.695312 64.320312 49.3125 64.621094 C 48.929688 64.917969 48.484375 65.070312 47.980469 65.070312 Z M 47.980469 65.070312 " fill-opacity="1" fill-rule="nonzero"/><path fill="#ffffff" d="M 60.859375 65.058594 C 59.695312 65.058594 58.65625 64.847656 57.742188 64.421875 C 56.832031 63.992188 56.070312 63.417969 55.460938 62.6875 C 54.851562 61.957031 54.386719 61.125 54.082031 60.191406 C 53.773438 59.261719 53.621094 58.273438 53.621094 57.234375 C 53.621094 56.183594 53.773438 55.195312 54.082031 54.261719 C 54.390625 53.328125 54.847656 52.5 55.460938 51.773438 C 56.070312 51.046875 56.832031 50.46875 57.742188 50.046875 C 58.65625 49.617188 59.695312 49.40625 60.859375 49.40625 C 62.453125 49.40625 63.929688 49.855469 65.28125 50.746094 C 65.820312 51.109375 66.089844 51.554688 66.089844 52.078125 C 66.089844 52.507812 65.925781 52.886719 65.59375 53.214844 C 65.261719 53.546875 64.835938 53.714844 64.316406 53.714844 C 63.945312 53.714844 63.605469 53.617188 63.289062 53.414062 C 62.535156 52.914062 61.722656 52.667969 60.859375 52.667969 C 59.773438 52.667969 58.917969 53.136719 58.28125 54.074219 C 57.707031 54.921875 57.421875 55.976562 57.421875 57.238281 C 57.421875 58.511719 57.707031 59.566406 58.28125 60.40625 C 58.914062 61.332031 59.773438 61.796875 60.859375 61.796875 C 61.464844 61.796875 61.984375 61.703125 62.410156 61.515625 L 62.410156 58.871094 L 61.195312 58.871094 C 60.671875 58.871094 60.238281 58.710938 59.894531 58.390625 C 59.550781 58.070312 59.378906 57.683594 59.378906 57.238281 C 59.378906 56.78125 59.550781 56.398438 59.894531 56.078125 C 60.238281 55.761719 60.671875 55.601562 61.195312 55.601562 L 64.316406 55.601562 C 64.835938 55.601562 65.257812 55.769531 65.59375 56.105469 C 65.925781 56.441406 66.089844 56.816406 66.089844 57.234375 L 66.089844 62.382812 C 66.089844 62.902344 65.820312 63.347656 65.28125 63.710938 C 63.925781 64.609375 62.453125 65.058594 60.859375 65.058594 Z M 60.859375 65.058594 " fill-opacity="1" fill-rule="nonzero"/><path fill="#ffffff" d="M 80.207031 65.070312 C 79.570312 65.070312 79.085938 64.820312 78.75 64.328125 L 73.980469 57.222656 L 73.980469 63.445312 C 73.980469 63.867188 73.816406 64.242188 73.480469 64.574219 C 73.152344 64.90625 72.726562 65.074219 72.207031 65.074219 C 71.6875 65.074219 71.265625 64.90625 70.929688 64.574219 C 70.59375 64.242188 70.425781 63.867188 70.425781 63.445312 L 70.425781 51.046875 C 70.425781 50.617188 70.59375 50.238281 70.929688 49.910156 C 71.265625 49.578125 71.691406 49.410156 72.207031 49.410156 C 72.839844 49.410156 73.324219 49.65625 73.652344 50.152344 L 78.421875 57.269531 L 78.421875 51.046875 C 78.421875 50.628906 78.589844 50.25 78.921875 49.914062 C 79.253906 49.578125 79.683594 49.410156 80.207031 49.410156 C 80.722656 49.410156 81.148438 49.578125 81.480469 49.914062 C 81.8125 50.25 81.980469 50.628906 81.980469 51.046875 L 81.980469 63.445312 C 81.980469 63.863281 81.8125 64.238281 81.480469 64.570312 C 81.148438 64.902344 80.722656 65.070312 80.207031 65.070312 Z M 80.207031 65.070312 " fill-opacity="1" fill-rule="nonzero"/><path fill="#ffffff" d="M 97.832031 65.070312 C 96.644531 65.070312 95.605469 64.828125 94.710938 64.335938 C 93.8125 63.847656 93.128906 63.175781 92.644531 62.316406 C 92.164062 61.464844 91.925781 60.472656 91.925781 59.347656 L 91.925781 51.019531 C 91.925781 50.542969 92.113281 50.15625 92.496094 49.859375 C 92.875 49.558594 93.320312 49.414062 93.820312 49.414062 C 94.332031 49.414062 94.773438 49.5625 95.15625 49.859375 C 95.539062 50.15625 95.726562 50.539062 95.726562 51.019531 L 95.726562 59.347656 C 95.726562 60.125 95.90625 60.726562 96.269531 61.15625 C 96.628906 61.589844 97.152344 61.800781 97.835938 61.800781 C 99.324219 61.800781 100.066406 60.984375 100.066406 59.347656 L 100.066406 51.039062 C 100.066406 50.597656 100.246094 50.214844 100.601562 49.894531 C 100.957031 49.574219 101.390625 49.414062 101.898438 49.414062 C 102.417969 49.414062 102.855469 49.574219 103.210938 49.894531 C 103.566406 50.21875 103.742188 50.597656 103.742188 51.039062 L 103.742188 59.347656 C 103.742188 60.472656 103.503906 61.464844 103.023438 62.316406 C 102.539062 63.171875 101.851562 63.847656 100.957031 64.335938 C 100.0625 64.828125 99.019531 65.070312 97.832031 65.070312 Z M 97.832031 65.070312 " fill-opacity="1" fill-rule="nonzero"/><path fill="#ffffff" d="M 110.230469 65.058594 C 109.726562 65.058594 109.289062 64.910156 108.90625 64.613281 C 108.523438 64.316406 108.335938 63.933594 108.335938 63.457031 L 108.335938 51.183594 C 108.335938 50.765625 108.5 50.390625 108.835938 50.054688 C 109.164062 49.726562 109.589844 49.558594 110.109375 49.558594 L 113.484375 49.558594 C 115.15625 49.558594 116.511719 49.949219 117.550781 50.730469 C 118.753906 51.632812 119.355469 52.882812 119.355469 54.484375 C 119.355469 56.324219 118.558594 57.691406 116.964844 58.59375 C 115.730469 59.300781 114.144531 59.648438 112.21875 59.648438 L 112.144531 59.648438 L 112.144531 63.453125 C 112.144531 63.929688 111.957031 64.3125 111.574219 64.613281 C 111.1875 64.910156 110.742188 65.058594 110.230469 65.058594 Z M 112.136719 56.390625 C 113.054688 56.390625 113.789062 56.308594 114.347656 56.140625 C 115.136719 55.894531 115.535156 55.34375 115.535156 54.484375 C 115.535156 54.011719 115.433594 53.660156 115.222656 53.433594 C 115.015625 53.207031 114.75 53.042969 114.421875 52.949219 C 114.09375 52.855469 113.734375 52.808594 113.34375 52.808594 L 112.136719 52.808594 Z M 112.136719 56.390625 " fill-opacity="1" fill-rule="nonzero"/></svg>