<svg xmlns="http://www.w3.org/2000/svg" xmlns:xlink="http://www.w3.org/1999/xlink" width="500" zoomAndPan="magnify" viewBox="0 0 375 374.999991" height="500" preserveAspectRatio="xMidYMid meet" version="1.0"><defs><clipPath id="69287d2431"><path d="M 23 10.292969 L 365 10.292969 L 365 352 L 23 352 Z M 23 10.292969 " clip-rule="nonzero"/></clipPath></defs><g clip-path="url(#69287d2431)"><path fill="#f85606" d="M 364.46875 180.78125 C 364.46875 183.570312 364.402344 186.355469 364.265625 189.140625 C 364.128906 191.929688 363.921875 194.707031 363.648438 197.484375 C 363.378906 200.257812 363.035156 203.027344 362.628906 205.785156 C 362.21875 208.542969 361.742188 211.289062 361.199219 214.027344 C 360.65625 216.761719 360.042969 219.480469 359.367188 222.1875 C 358.691406 224.890625 357.945312 227.578125 357.136719 230.246094 C 356.328125 232.917969 355.453125 235.5625 354.515625 238.191406 C 353.574219 240.816406 352.570312 243.417969 351.503906 245.992188 C 350.4375 248.570312 349.308594 251.117188 348.117188 253.640625 C 346.925781 256.160156 345.671875 258.652344 344.355469 261.113281 C 343.042969 263.570312 341.667969 265.996094 340.234375 268.390625 C 338.800781 270.78125 337.3125 273.136719 335.761719 275.457031 C 334.210938 277.773438 332.605469 280.054688 330.945312 282.292969 C 329.285156 284.535156 327.570312 286.734375 325.800781 288.886719 C 324.03125 291.042969 322.210938 293.15625 320.339844 295.222656 C 318.464844 297.289062 316.542969 299.308594 314.570312 301.28125 C 312.601562 303.253906 310.582031 305.175781 308.515625 307.046875 C 306.449219 308.921875 304.339844 310.742188 302.183594 312.511719 C 300.027344 314.28125 297.828125 315.996094 295.589844 317.65625 C 293.347656 319.320312 291.070312 320.925781 288.75 322.472656 C 286.433594 324.023438 284.078125 325.515625 281.683594 326.949219 C 279.292969 328.382812 276.867188 329.757812 274.410156 331.074219 C 271.949219 332.386719 269.457031 333.640625 266.9375 334.832031 C 264.417969 336.027344 261.867188 337.15625 259.292969 338.222656 C 256.714844 339.292969 254.113281 340.292969 251.488281 341.234375 C 248.863281 342.175781 246.214844 343.046875 243.546875 343.859375 C 240.878906 344.667969 238.191406 345.410156 235.484375 346.089844 C 232.78125 346.765625 230.0625 347.378906 227.324219 347.921875 C 224.589844 348.46875 221.84375 348.945312 219.085938 349.351562 C 216.328125 349.761719 213.558594 350.105469 210.785156 350.378906 C 208.007812 350.652344 205.226562 350.855469 202.441406 350.992188 C 199.65625 351.128906 196.871094 351.199219 194.082031 351.199219 C 191.292969 351.199219 188.503906 351.128906 185.71875 350.992188 C 182.933594 350.855469 180.15625 350.652344 177.378906 350.378906 C 174.605469 350.105469 171.835938 349.765625 169.078125 349.355469 C 166.320312 348.945312 163.574219 348.46875 160.835938 347.925781 C 158.101562 347.382812 155.382812 346.769531 152.675781 346.09375 C 149.972656 345.414062 147.285156 344.671875 144.617188 343.863281 C 141.945312 343.054688 139.300781 342.179688 136.675781 341.238281 C 134.046875 340.300781 131.445312 339.296875 128.871094 338.230469 C 126.292969 337.160156 123.746094 336.03125 121.222656 334.839844 C 118.703125 333.648438 116.210938 332.394531 113.753906 331.078125 C 111.292969 329.765625 108.867188 328.390625 106.476562 326.957031 C 104.082031 325.523438 101.726562 324.03125 99.410156 322.484375 C 97.089844 320.933594 94.8125 319.328125 92.570312 317.667969 C 90.332031 316.003906 88.132812 314.289062 85.976562 312.519531 C 83.820312 310.75 81.710938 308.929688 79.644531 307.058594 C 77.578125 305.183594 75.558594 303.261719 73.585938 301.289062 C 71.613281 299.320312 69.691406 297.300781 67.820312 295.234375 C 65.945312 293.167969 64.125 291.054688 62.355469 288.898438 C 60.585938 286.746094 58.871094 284.546875 57.210938 282.304688 C 55.550781 280.066406 53.945312 277.785156 52.394531 275.46875 C 50.847656 273.148438 49.355469 270.792969 47.921875 268.402344 C 46.488281 266.007812 45.113281 263.582031 43.796875 261.125 C 42.484375 258.664062 41.230469 256.175781 40.039062 253.652344 C 38.847656 251.132812 37.714844 248.582031 36.648438 246.007812 C 35.582031 243.429688 34.578125 240.828125 33.640625 238.203125 C 32.699219 235.578125 31.824219 232.929688 31.015625 230.261719 C 30.207031 227.59375 29.460938 224.90625 28.785156 222.199219 C 28.109375 219.496094 27.496094 216.777344 26.953125 214.039062 C 26.410156 211.304688 25.933594 208.558594 25.523438 205.800781 C 25.113281 203.039062 24.773438 200.273438 24.5 197.5 C 24.226562 194.722656 24.023438 191.941406 23.886719 189.15625 C 23.75 186.371094 23.679688 183.585938 23.679688 180.796875 C 23.679688 178.007812 23.75 175.21875 23.886719 172.433594 C 24.023438 169.648438 24.226562 166.867188 24.5 164.09375 C 24.773438 161.316406 25.117188 158.550781 25.527344 155.792969 C 25.933594 153.035156 26.414062 150.285156 26.957031 147.550781 C 27.5 144.816406 28.113281 142.097656 28.789062 139.390625 C 29.46875 136.6875 30.210938 134 31.019531 131.332031 C 31.832031 128.660156 32.707031 126.015625 33.644531 123.390625 C 34.585938 120.761719 35.589844 118.164062 36.65625 115.585938 C 37.722656 113.007812 38.851562 110.460938 40.046875 107.941406 C 41.238281 105.417969 42.492188 102.929688 43.804688 100.46875 C 45.121094 98.011719 46.496094 95.585938 47.929688 93.191406 C 49.363281 90.800781 50.855469 88.445312 52.40625 86.125 C 53.953125 83.808594 55.558594 81.527344 57.222656 79.289062 C 58.882812 77.050781 60.597656 74.851562 62.367188 72.695312 C 64.136719 70.539062 65.957031 68.429688 67.832031 66.363281 C 69.703125 64.296875 71.628906 62.277344 73.597656 60.304688 C 75.570312 58.335938 77.589844 56.410156 79.65625 54.539062 C 81.722656 52.667969 83.835938 50.847656 85.992188 49.078125 C 88.148438 47.308594 90.34375 45.59375 92.585938 43.933594 C 94.824219 42.269531 97.105469 40.664062 99.425781 39.117188 C 101.742188 37.566406 104.097656 36.078125 106.492188 34.644531 C 108.882812 33.210938 111.308594 31.835938 113.769531 30.519531 C 116.226562 29.207031 118.71875 27.953125 121.238281 26.761719 C 123.761719 25.570312 126.308594 24.441406 128.886719 23.371094 C 131.464844 22.304688 134.0625 21.304688 136.691406 20.363281 C 139.316406 19.425781 141.964844 18.550781 144.632812 17.742188 C 147.300781 16.933594 149.988281 16.1875 152.695312 15.511719 C 155.398438 14.835938 158.117188 14.222656 160.855469 13.679688 C 163.589844 13.136719 166.335938 12.660156 169.09375 12.25 C 171.855469 11.84375 174.621094 11.5 177.394531 11.230469 C 180.171875 10.957031 182.953125 10.75 185.738281 10.613281 C 188.523438 10.476562 191.308594 10.410156 194.097656 10.410156 C 196.890625 10.398438 199.679688 10.460938 202.46875 10.585938 C 205.253906 10.714844 208.039062 10.910156 210.816406 11.175781 C 213.597656 11.441406 216.367188 11.773438 219.128906 12.175781 C 221.890625 12.574219 224.640625 13.042969 227.378906 13.582031 C 230.117188 14.117188 232.84375 14.722656 235.550781 15.394531 C 238.261719 16.066406 240.949219 16.804688 243.625 17.609375 C 246.296875 18.410156 248.949219 19.28125 251.578125 20.214844 C 254.207031 21.152344 256.8125 22.152344 259.394531 23.214844 C 261.972656 24.277344 264.527344 25.402344 267.050781 26.59375 C 269.574219 27.78125 272.070312 29.03125 274.53125 30.34375 C 276.996094 31.65625 279.425781 33.03125 281.820312 34.460938 C 284.214844 35.894531 286.574219 37.382812 288.898438 38.933594 C 291.21875 40.480469 293.503906 42.085938 295.746094 43.746094 C 297.988281 45.410156 300.1875 47.125 302.347656 48.894531 C 304.503906 50.664062 306.617188 52.484375 308.6875 54.359375 C 310.753906 56.234375 312.777344 58.15625 314.75 60.128906 C 316.722656 62.101562 318.648438 64.125 320.519531 66.191406 C 322.394531 68.261719 324.214844 70.375 325.984375 72.53125 C 327.753906 74.691406 329.472656 76.890625 331.132812 79.132812 C 332.792969 81.378906 334.398438 83.660156 335.945312 85.980469 C 337.496094 88.304688 338.984375 90.664062 340.417969 93.058594 C 341.847656 95.453125 343.222656 97.882812 344.535156 100.347656 C 345.847656 102.808594 347.097656 105.304688 348.285156 107.828125 C 349.476562 110.355469 350.601562 112.90625 351.664062 115.488281 C 352.730469 118.066406 353.726562 120.671875 354.664062 123.300781 C 355.597656 125.933594 356.46875 128.582031 357.269531 131.257812 C 358.074219 133.929688 358.8125 136.621094 359.484375 139.328125 C 360.15625 142.039062 360.761719 144.761719 361.296875 147.5 C 361.835938 150.238281 362.304688 152.988281 362.703125 155.75 C 363.105469 158.515625 363.4375 161.285156 363.703125 164.0625 C 363.96875 166.839844 364.164062 169.625 364.292969 172.414062 C 364.417969 175.199219 364.476562 177.988281 364.46875 180.78125 Z M 364.46875 180.78125 " fill-opacity="1" fill-rule="nonzero"/></g><path fill="#ffffff" d="M 325.527344 289.257812 C 323.515625 291.695312 321.4375 294.074219 319.292969 296.394531 C 317.148438 298.71875 314.941406 300.976562 312.671875 303.175781 C 310.402344 305.375 308.074219 307.511719 305.683594 309.578125 C 303.296875 311.648438 300.851562 313.648438 298.351562 315.582031 C 295.851562 317.515625 293.300781 319.378906 290.699219 321.171875 C 288.09375 322.960938 285.445312 324.679688 282.746094 326.324219 C 280.046875 327.96875 277.304688 329.535156 274.515625 331.027344 C 271.730469 332.519531 268.90625 333.933594 266.039062 335.265625 C 263.175781 336.601562 260.277344 337.855469 257.339844 339.027344 C 254.40625 340.199219 251.441406 341.289062 248.445312 342.300781 C 245.449219 343.308594 242.429688 344.230469 239.382812 345.070312 C 236.335938 345.910156 233.269531 346.664062 230.179688 347.335938 C 227.09375 348.003906 223.988281 348.585938 220.867188 349.082031 C 217.746094 349.582031 214.613281 349.988281 211.46875 350.3125 C 208.324219 350.632812 205.175781 350.867188 202.019531 351.015625 C 198.859375 351.164062 195.703125 351.222656 192.542969 351.195312 C 189.382812 351.164062 186.226562 351.046875 183.070312 350.84375 C 179.917969 350.640625 176.773438 350.347656 173.636719 349.96875 C 170.496094 349.589844 167.371094 349.125 164.261719 348.570312 C 161.148438 348.015625 158.054688 347.378906 154.980469 346.652344 C 151.902344 345.925781 148.851562 345.117188 145.820312 344.222656 C 142.789062 343.328125 139.785156 342.347656 136.808594 341.285156 C 133.832031 340.222656 130.886719 339.082031 127.976562 337.855469 C 125.0625 336.628906 122.1875 335.320312 119.34375 333.9375 C 116.503906 332.550781 113.707031 331.085938 110.949219 329.542969 C 108.1875 328.003906 105.476562 326.386719 102.804688 324.691406 C 100.136719 323 97.519531 321.234375 94.949219 319.394531 C 92.375 317.558594 89.859375 315.648438 87.394531 313.671875 C 84.929688 311.691406 82.523438 309.648438 80.171875 307.535156 C 77.820312 305.421875 75.53125 303.246094 73.300781 301.007812 C 71.074219 298.765625 68.90625 296.464844 66.804688 294.105469 C 64.703125 291.746094 62.671875 289.328125 60.703125 286.855469 C 78.851562 260.972656 106.992188 243.015625 166.15625 242.339844 C 234.4375 241.519531 284.667969 239.027344 305.410156 261.980469 C 312.964844 270.449219 319.667969 279.539062 325.527344 289.257812 Z M 325.527344 289.257812 " fill-opacity="1" fill-rule="nonzero"/><path fill="#a020f0" d="M 137.644531 137.816406 C 104.882812 125.964844 110.226562 82.75 114.875 81.820312 C 119.523438 80.890625 129.507812 88.558594 129.976562 88.789062 C 130.445312 89.023438 127.65625 69.503906 133.929688 60.445312 C 140.203125 51.382812 164.132812 69.738281 182.488281 69.96875 C 200.84375 70.203125 245.222656 71.363281 258.234375 82.980469 C 271.242188 94.597656 264.488281 119.460938 264.488281 119.460938 C 264.488281 119.460938 279.378906 123.410156 276.351562 144.320312 C 273.324219 165.234375 249.863281 183.191406 241.5 198.257812 C 233.132812 213.328125 183.449219 216.117188 175.742188 194.277344 " fill-opacity="1" fill-rule="nonzero"/><path fill="#ffb5a6" d="M 191.609375 267.523438 C 167.789062 267.523438 164.285156 247.644531 164.191406 244.285156 C 164.191406 243.898438 164.140625 243.226562 164.191406 242.3125 C 164.140625 240.441406 164.140625 237.5625 164.140625 234.199219 C 164.238281 225.125 164.332031 212.59375 164.191406 207.210938 L 209.664062 190.933594 L 217.921875 187.957031 L 227.09375 184.691406 C 227.09375 184.691406 227.046875 186.46875 226.949219 189.398438 C 226.902344 191.078125 226.855469 193.144531 226.804688 195.496094 C 226.8125 195.773438 226.796875 196.046875 226.757812 196.320312 C 226.710938 199.722656 226.664062 203.617188 226.566406 207.699219 C 226.421875 220.519531 226.375 234.925781 227.046875 240.109375 C 228.289062 250.191406 215.421875 267.523438 191.609375 267.523438 Z M 191.609375 267.523438 " fill-opacity="1" fill-rule="nonzero"/><path fill="#e86b70" d="M 227.136719 195.59375 C 227.027344 195.84375 226.902344 196.082031 226.753906 196.3125 C 210.621094 229.496094 186.371094 242.652344 164.183594 242.3125 C 164.136719 240.441406 164.136719 237.5625 164.136719 234.199219 C 164.234375 225.125 164.328125 212.59375 164.183594 207.210938 L 209.660156 190.933594 L 226.804688 195.496094 Z M 227.136719 195.59375 " fill-opacity="1" fill-rule="nonzero"/><path fill="#ffb5a6" d="M 136.742188 108.304688 C 163.230469 140.0625 228.648438 134.332031 228.648438 134.332031 C 228.648438 134.332031 229.890625 171.507812 236.394531 171.195312 C 242.898438 170.886719 243.984375 150.285156 259.941406 153.699219 C 275.894531 157.113281 265.980469 187.929688 253.589844 189.632812 C 241.199219 191.335938 238.097656 180.804688 238.097656 180.804688 C 238.097656 180.804688 215.25 226.113281 179.003906 226.113281 C 142.757812 226.113281 133.480469 191.363281 133.695312 172.433594 C 133.914062 153.507812 136.742188 108.304688 136.742188 108.304688 Z M 136.742188 108.304688 " fill-opacity="1" fill-rule="nonzero"/></svg>