<svg xmlns="http://www.w3.org/2000/svg" xmlns:xlink="http://www.w3.org/1999/xlink" width="230" zoomAndPan="magnify" viewBox="0 0 172.5 44.999999" height="60" preserveAspectRatio="xMidYMid meet" version="1.0"><defs><g/><clipPath id="e14aadc1d4"><path d="M 2 0.0664062 L 19 0.0664062 L 19 26 L 2 26 Z M 2 0.0664062 " clip-rule="nonzero"/></clipPath></defs><g clip-path="url(#e14aadc1d4)"><g fill="#f85606" fill-opacity="1"><g transform="translate(2.243497, 25.378099)"><g><path d="M 13.953125 -20.722656 C 11.5 -24.589844 4.902344 -24.074219 4.628906 -24.074219 C 4.25 -24.039062 3.902344 -23.726562 3.867188 -23.347656 L 0.3125 -0.792969 C 0.242188 -0.550781 0.3125 -0.3125 0.484375 -0.136719 C 0.621094 0.0351562 0.828125 0.171875 1.070312 0.171875 C 1.3125 0.207031 1.554688 0.207031 1.796875 0.207031 C 5.628906 0.207031 10.152344 -2.246094 12.984375 -5.941406 C 15.300781 -8.910156 16.714844 -16.441406 13.953125 -20.722656 Z M 11.640625 -6.976562 C 9.1875 -3.765625 5.386719 -1.625 2.140625 -1.484375 L 5.421875 -22.378906 C 7.011719 -22.414062 11.015625 -22.207031 12.535156 -19.824219 C 14.78125 -16.300781 13.609375 -9.53125 11.640625 -6.976562 Z M 11.640625 -6.976562 "/></g></g></g></g><g fill="#f85606" fill-opacity="1"><g transform="translate(18.614231, 25.378099)"><g><path d="M 10.84375 -10.949219 C 10.742188 -11.015625 8.359375 -12.710938 5.144531 -10.464844 C 4.695312 -10.152344 4.25 -9.671875 3.867188 -9.082031 L 4.179688 -11.085938 C 4.25 -11.570312 3.9375 -11.984375 3.488281 -12.054688 C 3.003906 -12.121094 2.554688 -11.8125 2.488281 -11.363281 L 0.933594 -1.3125 C 0.863281 -0.863281 1.175781 -0.449219 1.625 -0.34375 C 1.65625 -0.34375 1.726562 -0.34375 1.761719 -0.34375 C 2.175781 -0.34375 2.519531 -0.585938 2.625 -1 C 3.175781 -3.59375 4.664062 -8.046875 6.113281 -9.082031 C 8.289062 -10.601562 9.773438 -9.601562 9.808594 -9.566406 C 10.1875 -9.289062 10.742188 -9.394531 11.015625 -9.773438 C 11.292969 -10.152344 11.222656 -10.671875 10.84375 -10.949219 Z M 10.84375 -10.949219 "/></g></g></g><g fill="#f85606" fill-opacity="1"><g transform="translate(29.562616, 25.378099)"><g><path d="M 10.328125 -8.945312 C 10.222656 -10.085938 9.636719 -11.085938 8.667969 -11.605469 C 7.667969 -12.226562 6.390625 -12.191406 5.144531 -11.605469 C 3.417969 -10.777344 1.347656 -8.601562 1.105469 -5.285156 C 1 -3.59375 1.3125 -2.3125 2.105469 -1.484375 C 2.726562 -0.792969 3.625 -0.449219 4.730469 -0.449219 C 5.800781 -0.449219 7.046875 -1.140625 8.117188 -2.28125 C 9.046875 -3.28125 10.570312 -5.492188 10.328125 -8.945312 Z M 6.839844 -3.417969 C 6.042969 -2.554688 5.179688 -2.175781 4.730469 -2.175781 C 4.109375 -2.175781 3.660156 -2.3125 3.351562 -2.660156 C 2.9375 -3.109375 2.726562 -3.972656 2.832031 -5.144531 C 2.96875 -7.597656 4.488281 -9.394531 5.871094 -10.050781 C 6.285156 -10.257812 6.664062 -10.359375 7.011719 -10.359375 C 7.320312 -10.359375 7.597656 -10.292969 7.839844 -10.152344 C 8.289062 -9.878906 8.566406 -9.394531 8.632812 -8.839844 C 8.839844 -6.007812 7.597656 -4.25 6.839844 -3.417969 Z M 6.839844 -3.417969 "/></g></g></g><g fill="#f85606" fill-opacity="1"><g transform="translate(40.787279, 25.378099)"><g><path d="M 11.398438 -9.496094 C 11.085938 -10.257812 10.535156 -10.777344 9.738281 -10.984375 C 8.324219 -11.398438 6.664062 -10.671875 5.664062 -9.914062 C 4.9375 -9.394531 4.316406 -8.773438 3.800781 -8.117188 L 4.214844 -10.601562 C 4.28125 -11.050781 3.972656 -11.5 3.523438 -11.570312 C 3.039062 -11.671875 2.625 -11.328125 2.519531 -10.878906 L -1.105469 11.050781 C -1.207031 11.535156 -0.898438 11.949219 -0.414062 12.054688 C -0.378906 12.054688 -0.3125 12.054688 -0.277344 12.054688 C 0.136719 12.054688 0.484375 11.742188 0.550781 11.328125 L 2.417969 0.242188 C 2.761719 0.378906 3.144531 0.484375 3.59375 0.519531 C 3.695312 0.519531 3.800781 0.519531 3.9375 0.519531 C 5.800781 0.519531 7.976562 -0.519531 9.359375 -2.070312 C 11.398438 -4.421875 12.226562 -7.425781 11.398438 -9.496094 Z M 8.046875 -3.175781 C 6.839844 -1.796875 4.902344 -1.105469 3.695312 -1.175781 C 3.488281 -1.207031 3.109375 -1.242188 2.867188 -1.449219 C 3.039062 -2.589844 3.765625 -6.390625 6.699219 -8.566406 C 7.527344 -9.1875 8.667969 -9.53125 9.289062 -9.324219 C 9.53125 -9.257812 9.703125 -9.117188 9.808594 -8.839844 C 10.292969 -7.632812 9.945312 -5.351562 8.046875 -3.175781 Z M 8.046875 -3.175781 "/></g></g></g><g fill="#f85606" fill-opacity="1"><g transform="translate(53.358899, 25.378099)"><g><path d="M 4.007812 -9.773438 C 4.835938 -10.222656 6.355469 -10.121094 7.148438 -9.738281 C 8.046875 -9.359375 8.460938 -8.980469 8.632812 -8.703125 C 8.945312 -8.359375 9.464844 -8.289062 9.84375 -8.566406 C 10.222656 -8.875 10.257812 -9.394531 9.980469 -9.773438 C 9.53125 -10.328125 8.839844 -10.84375 7.910156 -11.292969 C 6.664062 -11.878906 4.59375 -12.019531 3.210938 -11.292969 C 2.417969 -10.878906 1.898438 -10.1875 1.761719 -9.359375 C 1.417969 -7.183594 3.660156 -6.183594 5.492188 -5.351562 C 6.734375 -4.800781 7.527344 -4.074219 7.5625 -3.417969 C 7.597656 -3.109375 7.460938 -2.867188 7.183594 -2.695312 C 6.457031 -2.210938 5.527344 -2.070312 4.695312 -2.3125 C 3.730469 -2.554688 2.9375 -3.246094 2.417969 -4.25 C 2.210938 -4.664062 1.691406 -4.800781 1.242188 -4.59375 C 0.828125 -4.386719 0.691406 -3.867188 0.898438 -3.453125 C 1.65625 -2.003906 2.832031 -1.035156 4.25 -0.65625 C 4.664062 -0.550781 5.078125 -0.484375 5.492188 -0.484375 C 6.425781 -0.484375 7.320312 -0.761719 8.117188 -1.242188 C 8.910156 -1.761719 9.324219 -2.625 9.257812 -3.558594 C 9.222656 -4.316406 8.738281 -5.800781 6.183594 -6.941406 C 4.214844 -7.804688 3.351562 -8.324219 3.453125 -9.082031 C 3.488281 -9.289062 3.59375 -9.566406 4.007812 -9.773438 Z M 4.007812 -9.773438 "/></g></g></g><g fill="#f85606" fill-opacity="1"><g transform="translate(64.203641, 25.378099)"><g><path d="M 10.328125 -11.222656 C 9.601562 -11.640625 8.773438 -11.707031 7.910156 -11.433594 C 6.285156 -10.84375 4.730469 -8.773438 3.523438 -6.664062 L 6.148438 -22.761719 C 6.214844 -23.242188 5.90625 -23.65625 5.421875 -23.761719 C 4.972656 -23.832031 4.523438 -23.519531 4.457031 -23.035156 L 0.828125 -0.863281 C 0.761719 -0.414062 1.035156 0 1.449219 0.105469 C 1.519531 0.105469 1.589844 0.136719 1.691406 0.136719 C 2.039062 0.136719 2.347656 -0.105469 2.488281 -0.414062 C 3.660156 -3.660156 6.355469 -9.046875 8.496094 -9.808594 C 8.875 -9.945312 9.152344 -9.914062 9.429688 -9.773438 C 9.945312 -9.152344 9.671875 -5.007812 8.839844 -0.898438 C 8.773438 -0.449219 9.046875 0.0351562 9.53125 0.105469 C 9.980469 0.207031 10.429688 -0.105469 10.535156 -0.550781 C 12.089844 -8.359375 11.292969 -10.636719 10.328125 -11.222656 Z M 10.328125 -11.222656 "/></g></g></g><g fill="#f85606" fill-opacity="1"><g transform="translate(77.017021, 25.378099)"><g><path d="M 3.558594 -11.742188 C 3.109375 -11.8125 2.660156 -11.5 2.589844 -11.050781 L 0.761719 -0.65625 C 0.691406 -0.171875 1 0.277344 1.449219 0.34375 C 1.484375 0.34375 1.554688 0.34375 1.589844 0.34375 C 2.003906 0.34375 2.347656 0.0703125 2.453125 -0.34375 L 4.25 -10.742188 C 4.351562 -11.222656 4.039062 -11.671875 3.558594 -11.742188 Z M 4.28125 -18.441406 C 3.660156 -18.441406 3.175781 -17.960938 3.175781 -17.335938 C 3.175781 -16.75 3.660156 -16.265625 4.28125 -16.265625 C 4.871094 -16.265625 5.351562 -16.75 5.351562 -17.335938 C 5.351562 -17.960938 4.871094 -18.441406 4.28125 -18.441406 Z M 4.28125 -18.441406 "/></g></g></g><g fill="#f85606" fill-opacity="1"><g transform="translate(82.059494, 25.378099)"><g><path d="M 11.398438 -9.496094 C 11.085938 -10.257812 10.535156 -10.777344 9.738281 -10.984375 C 8.324219 -11.398438 6.664062 -10.671875 5.664062 -9.914062 C 4.9375 -9.394531 4.316406 -8.773438 3.800781 -8.117188 L 4.214844 -10.601562 C 4.28125 -11.050781 3.972656 -11.5 3.523438 -11.570312 C 3.039062 -11.671875 2.625 -11.328125 2.519531 -10.878906 L -1.105469 11.050781 C -1.207031 11.535156 -0.898438 11.949219 -0.414062 12.054688 C -0.378906 12.054688 -0.3125 12.054688 -0.277344 12.054688 C 0.136719 12.054688 0.484375 11.742188 0.550781 11.328125 L 2.417969 0.242188 C 2.761719 0.378906 3.144531 0.484375 3.59375 0.519531 C 3.695312 0.519531 3.800781 0.519531 3.9375 0.519531 C 5.800781 0.519531 7.976562 -0.519531 9.359375 -2.070312 C 11.398438 -4.421875 12.226562 -7.425781 11.398438 -9.496094 Z M 8.046875 -3.175781 C 6.839844 -1.796875 4.902344 -1.105469 3.695312 -1.175781 C 3.488281 -1.207031 3.109375 -1.242188 2.867188 -1.449219 C 3.039062 -2.589844 3.765625 -6.390625 6.699219 -8.566406 C 7.527344 -9.1875 8.667969 -9.53125 9.289062 -9.324219 C 9.53125 -9.257812 9.703125 -9.117188 9.808594 -8.839844 C 10.292969 -7.632812 9.945312 -5.351562 8.046875 -3.175781 Z M 8.046875 -3.175781 "/></g></g></g><g fill="#f85606" fill-opacity="1"><g transform="translate(94.631114, 25.378099)"><g><path d="M 11.398438 -9.496094 C 11.085938 -10.257812 10.535156 -10.777344 9.738281 -10.984375 C 8.324219 -11.398438 6.664062 -10.671875 5.664062 -9.914062 C 4.9375 -9.394531 4.316406 -8.773438 3.800781 -8.117188 L 4.214844 -10.601562 C 4.28125 -11.050781 3.972656 -11.5 3.523438 -11.570312 C 3.039062 -11.671875 2.625 -11.328125 2.519531 -10.878906 L -1.105469 11.050781 C -1.207031 11.535156 -0.898438 11.949219 -0.414062 12.054688 C -0.378906 12.054688 -0.3125 12.054688 -0.277344 12.054688 C 0.136719 12.054688 0.484375 11.742188 0.550781 11.328125 L 2.417969 0.242188 C 2.761719 0.378906 3.144531 0.484375 3.59375 0.519531 C 3.695312 0.519531 3.800781 0.519531 3.9375 0.519531 C 5.800781 0.519531 7.976562 -0.519531 9.359375 -2.070312 C 11.398438 -4.421875 12.226562 -7.425781 11.398438 -9.496094 Z M 8.046875 -3.175781 C 6.839844 -1.796875 4.902344 -1.105469 3.695312 -1.175781 C 3.488281 -1.207031 3.109375 -1.242188 2.867188 -1.449219 C 3.039062 -2.589844 3.765625 -6.390625 6.699219 -8.566406 C 7.527344 -9.1875 8.667969 -9.53125 9.289062 -9.324219 C 9.53125 -9.257812 9.703125 -9.117188 9.808594 -8.839844 C 10.292969 -7.632812 9.945312 -5.351562 8.046875 -3.175781 Z M 8.046875 -3.175781 "/></g></g></g><g fill="#f85606" fill-opacity="1"><g transform="translate(107.202734, 25.378099)"><g><path d="M 8.875 -3.28125 C 7.976562 -2.519531 6.5625 -1.65625 4.902344 -1.898438 C 4.144531 -2.003906 3.558594 -2.382812 3.175781 -3.039062 C 3.039062 -3.246094 2.9375 -3.488281 2.867188 -3.765625 C 4.074219 -3.902344 6.214844 -4.386719 8.460938 -6.078125 C 9.914062 -7.183594 10.707031 -8.566406 10.601562 -9.738281 C 10.535156 -10.535156 10.085938 -11.191406 9.289062 -11.605469 C 8.460938 -12.019531 7.113281 -11.949219 5.734375 -11.398438 C 3.730469 -10.636719 2.175781 -9.082031 1.519531 -7.289062 C 1.207031 -6.390625 1.035156 -5.492188 1.035156 -4.695312 C 1.035156 -4.664062 1.035156 -4.664062 1.035156 -4.664062 C 1.035156 -4.558594 1.035156 -4.488281 1.035156 -4.421875 C 1.070312 -3.59375 1.3125 -2.796875 1.691406 -2.140625 C 2.347656 -1.070312 3.382812 -0.378906 4.628906 -0.207031 C 4.9375 -0.171875 5.214844 -0.136719 5.457031 -0.136719 C 7.390625 -0.136719 8.945312 -1.105469 9.980469 -1.96875 C 10.328125 -2.28125 10.359375 -2.832031 10.050781 -3.175781 C 9.773438 -3.558594 9.222656 -3.59375 8.875 -3.28125 Z M 3.109375 -6.699219 C 3.625 -8.046875 4.835938 -9.222656 6.355469 -9.84375 C 6.976562 -10.085938 7.527344 -10.1875 7.945312 -10.1875 C 8.21875 -10.1875 8.390625 -10.121094 8.53125 -10.085938 C 8.839844 -9.914062 8.910156 -9.738281 8.910156 -9.601562 C 8.945312 -9.152344 8.496094 -8.253906 7.425781 -7.425781 C 5.558594 -6.042969 3.800781 -5.59375 2.796875 -5.492188 C 2.867188 -5.871094 2.96875 -6.285156 3.109375 -6.699219 Z M 3.109375 -6.699219 "/></g></g></g><g fill="#f85606" fill-opacity="1"><g transform="translate(118.876397, 25.378099)"><g><path d="M 10.84375 -10.949219 C 10.742188 -11.015625 8.359375 -12.710938 5.144531 -10.464844 C 4.695312 -10.152344 4.25 -9.671875 3.867188 -9.082031 L 4.179688 -11.085938 C 4.25 -11.570312 3.9375 -11.984375 3.488281 -12.054688 C 3.003906 -12.121094 2.554688 -11.8125 2.488281 -11.363281 L 0.933594 -1.3125 C 0.863281 -0.863281 1.175781 -0.449219 1.625 -0.34375 C 1.65625 -0.34375 1.726562 -0.34375 1.761719 -0.34375 C 2.175781 -0.34375 2.519531 -0.585938 2.625 -1 C 3.175781 -3.59375 4.664062 -8.046875 6.113281 -9.082031 C 8.289062 -10.601562 9.773438 -9.601562 9.808594 -9.566406 C 10.1875 -9.289062 10.742188 -9.394531 11.015625 -9.773438 C 11.292969 -10.152344 11.222656 -10.671875 10.84375 -10.949219 Z M 10.84375 -10.949219 "/></g></g></g><g fill="#f85606" fill-opacity="1"><g transform="translate(129.824782, 25.378099)"><g><path d="M 4.007812 -9.773438 C 4.835938 -10.222656 6.355469 -10.121094 7.148438 -9.738281 C 8.046875 -9.359375 8.460938 -8.980469 8.632812 -8.703125 C 8.945312 -8.359375 9.464844 -8.289062 9.84375 -8.566406 C 10.222656 -8.875 10.257812 -9.394531 9.980469 -9.773438 C 9.53125 -10.328125 8.839844 -10.84375 7.910156 -11.292969 C 6.664062 -11.878906 4.59375 -12.019531 3.210938 -11.292969 C 2.417969 -10.878906 1.898438 -10.1875 1.761719 -9.359375 C 1.417969 -7.183594 3.660156 -6.183594 5.492188 -5.351562 C 6.734375 -4.800781 7.527344 -4.074219 7.5625 -3.417969 C 7.597656 -3.109375 7.460938 -2.867188 7.183594 -2.695312 C 6.457031 -2.210938 5.527344 -2.070312 4.695312 -2.3125 C 3.730469 -2.554688 2.9375 -3.246094 2.417969 -4.25 C 2.210938 -4.664062 1.691406 -4.800781 1.242188 -4.59375 C 0.828125 -4.386719 0.691406 -3.867188 0.898438 -3.453125 C 1.65625 -2.003906 2.832031 -1.035156 4.25 -0.65625 C 4.664062 -0.550781 5.078125 -0.484375 5.492188 -0.484375 C 6.425781 -0.484375 7.320312 -0.761719 8.117188 -1.242188 C 8.910156 -1.761719 9.324219 -2.625 9.257812 -3.558594 C 9.222656 -4.316406 8.738281 -5.800781 6.183594 -6.941406 C 4.214844 -7.804688 3.351562 -8.324219 3.453125 -9.082031 C 3.488281 -9.289062 3.59375 -9.566406 4.007812 -9.773438 Z M 4.007812 -9.773438 "/></g></g></g><g fill="#f85606" fill-opacity="1"><g transform="translate(140.669525, 25.378099)"><g><path d="M 1.207031 -1.761719 C 0.65625 -1.761719 0.171875 -1.277344 0.171875 -0.726562 C 0.171875 -0.136719 0.65625 0.3125 1.207031 0.3125 C 1.796875 0.3125 2.246094 -0.136719 2.246094 -0.726562 C 2.246094 -1.277344 1.796875 -1.761719 1.207031 -1.761719 Z M 1.207031 -1.761719 "/></g></g></g><g fill="#f85606" fill-opacity="1"><g transform="translate(145.332077, 25.378099)"><g><path d="M 11.398438 -9.496094 C 11.085938 -10.257812 10.535156 -10.777344 9.738281 -10.984375 C 8.324219 -11.398438 6.664062 -10.671875 5.664062 -9.914062 C 4.9375 -9.394531 4.316406 -8.773438 3.800781 -8.117188 L 4.214844 -10.601562 C 4.28125 -11.050781 3.972656 -11.5 3.523438 -11.570312 C 3.039062 -11.671875 2.625 -11.328125 2.519531 -10.878906 L -1.105469 11.050781 C -1.207031 11.535156 -0.898438 11.949219 -0.414062 12.054688 C -0.378906 12.054688 -0.3125 12.054688 -0.277344 12.054688 C 0.136719 12.054688 0.484375 11.742188 0.550781 11.328125 L 2.417969 0.242188 C 2.761719 0.378906 3.144531 0.484375 3.59375 0.519531 C 3.695312 0.519531 3.800781 0.519531 3.9375 0.519531 C 5.800781 0.519531 7.976562 -0.519531 9.359375 -2.070312 C 11.398438 -4.421875 12.226562 -7.425781 11.398438 -9.496094 Z M 8.046875 -3.175781 C 6.839844 -1.796875 4.902344 -1.105469 3.695312 -1.175781 C 3.488281 -1.207031 3.109375 -1.242188 2.867188 -1.449219 C 3.039062 -2.589844 3.765625 -6.390625 6.699219 -8.566406 C 7.527344 -9.1875 8.667969 -9.53125 9.289062 -9.324219 C 9.53125 -9.257812 9.703125 -9.117188 9.808594 -8.839844 C 10.292969 -7.632812 9.945312 -5.351562 8.046875 -3.175781 Z M 8.046875 -3.175781 "/></g></g></g><g fill="#f85606" fill-opacity="1"><g transform="translate(157.903698, 25.378099)"><g><path d="M 11.050781 -8.808594 C 11.257812 -9.738281 10.984375 -10.570312 10.222656 -11.191406 C 9.703125 -11.605469 9.082031 -11.777344 8.390625 -11.671875 C 6.734375 -11.464844 4.9375 -9.703125 3.800781 -8.359375 L 6.078125 -22.65625 C 6.148438 -23.105469 5.835938 -23.554688 5.351562 -23.625 C 4.902344 -23.691406 4.457031 -23.382812 4.386719 -22.898438 L 0.898438 -0.96875 C 0.828125 -0.519531 1.140625 -0.0703125 1.589844 0 C 1.65625 0 1.691406 0 1.726562 0 C 2.140625 0 2.519531 -0.277344 2.589844 -0.691406 L 3.28125 -5.179688 L 8.667969 -0.207031 C 8.839844 -0.0703125 9.046875 0 9.257812 0 C 9.464844 0 9.703125 -0.0703125 9.878906 -0.242188 C 10.1875 -0.585938 10.152344 -1.140625 9.808594 -1.449219 L 6.214844 -4.800781 C 6.285156 -4.835938 6.390625 -4.835938 6.457031 -4.871094 C 8.289062 -5.285156 10.636719 -7.011719 11.050781 -8.808594 Z M 6.078125 -6.527344 C 5.320312 -6.355469 4.835938 -6.425781 4.488281 -6.527344 C 5.664062 -7.976562 7.460938 -9.84375 8.601562 -9.980469 C 8.910156 -10.050781 9.046875 -9.945312 9.152344 -9.878906 C 9.394531 -9.671875 9.464844 -9.496094 9.394531 -9.222656 C 9.152344 -8.21875 7.460938 -6.839844 6.078125 -6.527344 Z M 6.078125 -6.527344 "/></g></g></g></svg>