<svg xmlns="http://www.w3.org/2000/svg" xmlns:xlink="http://www.w3.org/1999/xlink" width="500" zoomAndPan="magnify" viewBox="0 0 375 374.999991" height="500" preserveAspectRatio="xMidYMid meet" version="1.0"><defs><g/></defs><g fill="#55996f" fill-opacity="1"><g transform="translate(12.585559, 207.374986)"><g><path d="M 0 -43.585938 C 2.453125 -40.082031 3.753906 -35.777344 3.851562 -30.675781 C 3.851562 -28.273438 3.554688 -24.371094 2.851562 -19.015625 C 2.800781 -18.714844 2.652344 -17.914062 2.453125 -16.5625 C 2.25 -15.210938 2.101562 -14.3125 2.050781 -13.8125 C 2 -13.3125 1.953125 -12.460938 1.851562 -11.308594 C 1.75 -10.109375 1.703125 -9.207031 1.75 -8.558594 C 1.800781 -7.90625 1.902344 -7.15625 2.101562 -6.304688 C 2.25 -5.40625 2.503906 -4.652344 2.800781 -4.003906 C 4.203125 -0.902344 6.65625 0.652344 10.058594 0.652344 C 12.359375 0.652344 14.460938 0.0507812 16.363281 -1.199219 C 18.265625 -2.453125 19.816406 -4.054688 21.015625 -5.953125 C 22.21875 -7.855469 23.21875 -10.058594 24.121094 -12.558594 C 24.96875 -15.011719 25.621094 -17.363281 26.019531 -19.566406 C 26.421875 -21.765625 26.671875 -23.867188 26.820312 -25.972656 C 26.820312 -27.371094 26.871094 -28.875 26.972656 -30.574219 C 27.070312 -32.226562 26.972656 -33.925781 26.671875 -35.679688 C 26.371094 -37.378906 25.921875 -38.980469 25.421875 -40.382812 C 24.871094 -41.785156 23.96875 -42.984375 22.769531 -43.886719 C 21.566406 -44.785156 20.066406 -45.285156 18.363281 -45.285156 C 16.5625 -45.285156 14.863281 -44.734375 13.3125 -43.683594 C 11.757812 -42.585938 10.660156 -41.433594 10.007812 -40.183594 L 9.859375 -40.183594 C 9.90625 -41.785156 9.507812 -43.035156 8.65625 -43.933594 C 7.757812 -44.835938 6.503906 -45.285156 4.855469 -45.285156 C 2.753906 -45.285156 1.152344 -44.6875 0 -43.585938 Z M 10.859375 -28.523438 C 12.460938 -32.425781 14.511719 -34.425781 17.113281 -34.425781 C 18.464844 -34.425781 19.515625 -33.878906 20.214844 -32.777344 C 20.917969 -31.675781 21.316406 -30.375 21.46875 -28.875 C 21.667969 -26.472656 21.367188 -23.769531 20.667969 -20.867188 C 19.914062 -17.964844 18.816406 -15.460938 17.363281 -13.359375 C 15.914062 -11.257812 14.410156 -10.207031 12.808594 -10.207031 C 11.507812 -10.207031 10.507812 -10.859375 9.808594 -12.109375 C 9.105469 -13.3125 8.707031 -14.910156 8.65625 -16.914062 C 8.457031 -20.765625 9.207031 -24.621094 10.859375 -28.523438 Z M 10.859375 -28.523438 "/></g></g></g><g fill="#55996f" fill-opacity="1"><g transform="translate(40.75758, 207.374986)"><g><path d="M 13.460938 -11.058594 C 12.511719 -10.15625 11.609375 -9.757812 10.808594 -9.757812 C 10.257812 -9.757812 9.808594 -10.007812 9.40625 -10.507812 C 9.007812 -11.007812 8.757812 -11.710938 8.65625 -12.558594 C 8.304688 -14.261719 8.507812 -16.714844 9.257812 -19.964844 C 9.65625 -21.765625 10.207031 -23.167969 10.808594 -24.070312 C 11.410156 -24.96875 12.261719 -25.421875 13.3125 -25.421875 C 14.410156 -25.421875 15.164062 -24.820312 15.5625 -23.71875 C 15.960938 -22.566406 15.914062 -21.167969 15.511719 -19.515625 C 18.113281 -19.515625 20.265625 -20.515625 21.96875 -22.566406 C 23.320312 -24.269531 24.019531 -26.371094 24.019531 -28.773438 C 24.019531 -31.175781 23.21875 -33.078125 21.617188 -34.476562 C 20.515625 -35.378906 19.316406 -35.878906 18.0625 -35.878906 C 16.964844 -35.878906 16.011719 -35.628906 15.113281 -35.128906 C 14.210938 -34.628906 13.460938 -33.925781 12.808594 -33.027344 C 12.109375 -32.125 11.558594 -31.273438 11.160156 -30.472656 C 10.707031 -29.671875 10.257812 -28.722656 9.859375 -27.621094 L 9.609375 -27.621094 C 9.808594 -29.324219 9.859375 -30.675781 9.859375 -31.675781 C 9.808594 -33.078125 9.40625 -34.128906 8.605469 -34.828125 C 7.804688 -35.527344 6.855469 -35.929688 5.65625 -35.929688 C 4.101562 -35.929688 2.601562 -35.328125 1.152344 -34.175781 C 2.652344 -31.425781 3.554688 -28.824219 3.851562 -26.421875 C 4.152344 -24.019531 3.902344 -20.367188 3.203125 -15.5625 C 3.101562 -15.011719 3.003906 -14.261719 2.851562 -13.359375 C 2.703125 -12.410156 2.601562 -11.660156 2.503906 -11.109375 C 2.402344 -10.507812 2.351562 -9.859375 2.300781 -9.105469 C 2.203125 -8.304688 2.203125 -7.605469 2.203125 -6.90625 C 2.300781 -1.851562 4.402344 0.652344 8.40625 0.652344 C 9.808594 0.652344 11.007812 0.300781 11.960938 -0.5 C 12.859375 -1.25 13.511719 -2.203125 13.859375 -3.351562 C 14.210938 -4.503906 14.363281 -5.804688 14.3125 -7.253906 C 14.3125 -8.507812 14.011719 -9.757812 13.460938 -11.058594 Z M 13.460938 -11.058594 "/></g></g></g><g fill="#55996f" fill-opacity="1"><g transform="translate(65.076583, 207.374986)"><g><path d="M 10.359375 0.652344 C 13.160156 0.601562 15.414062 -1.199219 17.113281 -4.804688 C 18.816406 -8.40625 19.714844 -13.058594 19.714844 -18.816406 C 19.714844 -19.914062 19.664062 -20.964844 19.566406 -22.066406 C 19.464844 -23.167969 19.367188 -24.371094 19.164062 -25.769531 C 18.964844 -27.171875 18.613281 -28.421875 18.214844 -29.574219 C 17.765625 -30.675781 17.214844 -31.777344 16.613281 -32.777344 C 15.960938 -33.777344 15.113281 -34.527344 14.109375 -35.078125 C 13.109375 -35.628906 11.960938 -35.878906 10.660156 -35.878906 C 7.855469 -35.777344 5.554688 -33.976562 3.851562 -30.375 C 2.152344 -26.769531 1.300781 -22.117188 1.300781 -16.414062 C 1.300781 -15.3125 1.300781 -14.210938 1.402344 -13.109375 C 1.5 -12.007812 1.652344 -10.808594 1.851562 -9.40625 C 2.050781 -8.007812 2.351562 -6.753906 2.800781 -5.65625 C 3.203125 -4.503906 3.753906 -3.453125 4.402344 -2.453125 C 5.003906 -1.449219 5.855469 -0.652344 6.855469 -0.101562 C 7.855469 0.449219 9.058594 0.699219 10.359375 0.652344 Z M 13.210938 -25.421875 C 13.910156 -25.421875 14.460938 -25.121094 14.863281 -24.621094 C 15.261719 -24.070312 15.460938 -23.417969 15.511719 -22.667969 C 15.613281 -21.265625 15.210938 -19.714844 14.410156 -17.964844 C 13.5625 -16.214844 12.511719 -14.710938 11.257812 -13.511719 C 9.957031 -12.308594 8.808594 -11.710938 7.804688 -11.710938 C 6.40625 -11.710938 5.65625 -12.609375 5.554688 -14.410156 C 5.453125 -15.710938 5.753906 -17.214844 6.457031 -18.914062 C 7.15625 -20.617188 8.105469 -22.167969 9.359375 -23.46875 C 10.609375 -24.769531 11.910156 -25.421875 13.210938 -25.421875 Z M 13.210938 -25.421875 "/></g></g></g><g fill="#55996f" fill-opacity="1"><g transform="translate(85.642655, 207.374986)"><g><path d="M 9.859375 5.804688 C 8.855469 5.804688 8.105469 5.203125 7.554688 3.953125 C 7.003906 2.753906 6.753906 1.402344 6.804688 -0.0507812 C 6.804688 -1.449219 6.957031 -2.753906 7.15625 -3.851562 L 7.554688 -3.851562 C 7.90625 -2.453125 8.65625 -1.351562 9.859375 -0.550781 C 11.007812 0.25 12.359375 0.652344 13.859375 0.652344 C 15.261719 0.652344 16.5625 0.351562 17.664062 -0.351562 C 18.765625 -1.050781 19.714844 -1.953125 20.417969 -3.152344 C 21.117188 -4.351562 21.71875 -5.605469 22.21875 -6.957031 C 22.71875 -8.257812 23.070312 -9.757812 23.320312 -11.359375 C 23.519531 -12.960938 23.71875 -14.363281 23.820312 -15.5625 C 23.917969 -16.761719 23.96875 -17.964844 24.019531 -19.164062 C 24.21875 -30.222656 21.816406 -35.777344 16.8125 -35.878906 C 12.710938 -35.878906 10.207031 -33.125 9.40625 -27.621094 L 8.957031 -27.621094 C 9.007812 -28.824219 9.105469 -30.023438 9.207031 -31.226562 C 9.308594 -32.425781 9.058594 -33.527344 8.457031 -34.476562 C 7.855469 -35.378906 6.855469 -35.878906 5.503906 -35.929688 C 4.351562 -35.929688 3.453125 -35.777344 2.800781 -35.578125 C 2.152344 -35.328125 1.402344 -34.878906 0.5 -34.175781 C 2.402344 -31.074219 3.351562 -27.820312 3.402344 -24.371094 C 3.402344 -20.566406 3.050781 -15.914062 2.300781 -10.507812 C 2.152344 -9.457031 1.851562 -7.507812 1.402344 -4.605469 C 0.902344 -1.703125 0.550781 0.851562 0.300781 3.050781 C 0.0507812 5.253906 -0.0507812 7.15625 0 8.808594 C 0.0507812 10.910156 0.550781 12.660156 1.550781 14.0625 C 2.550781 15.460938 4.203125 16.214844 6.503906 16.214844 C 8.605469 16.214844 10.257812 15.511719 11.410156 14.011719 C 12.558594 12.511719 13.160156 10.707031 13.261719 8.507812 C 13.3125 7.105469 13.058594 5.804688 12.558594 4.503906 C 11.609375 5.355469 10.707031 5.804688 9.859375 5.804688 Z M 10.410156 -10.109375 C 8.757812 -10.109375 7.855469 -11.160156 7.757812 -13.210938 C 7.554688 -15.460938 8.457031 -18.0625 10.359375 -21.015625 C 12.261719 -23.96875 14.261719 -25.421875 16.464844 -25.421875 C 17.265625 -25.421875 17.914062 -25.121094 18.363281 -24.519531 C 18.765625 -23.917969 19.015625 -23.167969 19.117188 -22.316406 C 19.214844 -20.765625 18.765625 -19.015625 17.8125 -17.0625 C 16.863281 -15.113281 15.664062 -13.460938 14.261719 -12.109375 C 12.808594 -10.757812 11.507812 -10.109375 10.410156 -10.109375 Z M 10.410156 -10.109375 "/></g></g></g><g fill="#55996f" fill-opacity="1"><g transform="translate(110.91241, 207.374986)"><g><path d="M 12.859375 -24.320312 C 10.457031 -25.570312 9.15625 -27.320312 8.957031 -29.523438 C 8.855469 -30.824219 9.105469 -31.976562 9.707031 -32.976562 C 10.308594 -33.976562 11.359375 -34.476562 12.761719 -34.476562 C 12.761719 -34.476562 12.859375 -34.425781 13.011719 -34.425781 C 13.109375 -34.425781 13.210938 -34.425781 13.3125 -34.425781 C 14.511719 -34.277344 15.363281 -33.726562 15.960938 -32.726562 C 16.5625 -31.726562 16.8125 -30.625 16.714844 -29.421875 C 16.613281 -28.222656 16.464844 -27.070312 16.261719 -25.972656 C 18.265625 -26.019531 19.867188 -26.921875 21.015625 -28.722656 C 22.117188 -30.472656 22.667969 -32.425781 22.617188 -34.527344 C 22.617188 -37.730469 21.71875 -40.28125 19.914062 -42.285156 C 18.113281 -44.285156 15.613281 -45.285156 12.359375 -45.285156 C 8.855469 -45.285156 6.105469 -44.085938 4.054688 -41.785156 C 2 -39.429688 1 -36.480469 1.050781 -32.976562 C 1.050781 -30.023438 1.800781 -27.472656 3.300781 -25.269531 C 4.605469 -23.367188 6.855469 -21.71875 10.109375 -20.316406 C 11.609375 -19.617188 12.710938 -18.914062 13.410156 -18.214844 C 14.109375 -17.464844 14.511719 -16.363281 14.511719 -14.960938 C 14.511719 -13.460938 14.160156 -12.308594 13.511719 -11.507812 C 12.808594 -10.660156 11.960938 -10.257812 10.910156 -10.257812 C 9.15625 -10.257812 8.007812 -11.109375 7.40625 -12.910156 C 6.804688 -14.613281 6.753906 -16.511719 7.355469 -18.714844 C 5.253906 -18.613281 3.652344 -17.714844 2.503906 -15.914062 C 1.300781 -14.109375 0.75 -12.210938 0.851562 -10.109375 C 0.949219 -6.90625 1.902344 -4.304688 3.703125 -2.351562 C 5.503906 -0.351562 8.105469 0.652344 11.460938 0.652344 C 13.710938 0.652344 15.710938 0.0507812 17.414062 -1.199219 C 19.117188 -2.402344 20.417969 -4.003906 21.265625 -6.003906 C 22.066406 -7.957031 22.46875 -10.109375 22.46875 -12.460938 C 22.46875 -16.214844 21.167969 -19.066406 18.613281 -21.066406 C 18.214844 -21.367188 17.714844 -21.667969 17.214844 -21.96875 C 16.714844 -22.269531 16.261719 -22.566406 15.863281 -22.769531 C 15.460938 -22.96875 14.910156 -23.269531 14.261719 -23.570312 C 13.609375 -23.867188 13.160156 -24.121094 12.859375 -24.320312 Z M 12.859375 -24.320312 "/></g></g></g><g fill="#55996f" fill-opacity="1"><g transform="translate(134.430795, 207.374986)"><g><path d="M 18.015625 -16.414062 C 17.914062 -15.863281 17.714844 -14.910156 17.414062 -13.511719 C 17.113281 -12.109375 16.914062 -10.859375 16.714844 -9.707031 C 16.511719 -8.558594 16.363281 -7.605469 16.363281 -6.804688 C 16.261719 -5.605469 16.414062 -4.453125 16.714844 -3.402344 C 17.011719 -2.351562 17.613281 -1.402344 18.613281 -0.601562 C 19.566406 0.25 20.816406 0.652344 22.417969 0.652344 C 24.519531 0.699219 26.121094 0 27.171875 -1.5 C 28.222656 -3.003906 28.722656 -4.855469 28.671875 -7.054688 C 28.671875 -8.457031 28.371094 -9.757812 27.820312 -11.058594 C 26.820312 -10.15625 25.972656 -9.757812 25.171875 -9.757812 C 22.917969 -9.757812 22.167969 -11.558594 22.96875 -15.261719 C 23.117188 -15.960938 23.46875 -17.414062 24.070312 -19.664062 C 24.667969 -21.867188 25.070312 -23.71875 25.320312 -25.21875 C 25.921875 -28.621094 25.621094 -31.273438 24.46875 -33.125 C 23.269531 -34.929688 21.316406 -35.878906 18.613281 -35.878906 C 16.113281 -35.878906 14.011719 -34.878906 12.359375 -32.875 C 11.359375 -31.675781 10.257812 -29.671875 9.105469 -26.871094 C 9.257812 -28.921875 9.507812 -31.425781 9.90625 -34.378906 C 10.410156 -38.582031 10.609375 -41.082031 10.507812 -41.882812 C 10.007812 -44.484375 8.15625 -45.835938 4.855469 -45.835938 C 3.601562 -45.835938 2.601562 -45.6875 1.800781 -45.488281 C 1 -45.234375 0.0507812 -44.785156 -1.152344 -44.136719 C 1.25 -41.03125 2.703125 -37.578125 3.253906 -33.777344 C 3.902344 -29.375 3.804688 -23.96875 3.003906 -17.515625 C 2.203125 -11.910156 1.851562 -8.40625 1.902344 -7.003906 C 2 -1.902344 4.101562 0.652344 8.15625 0.652344 C 10.257812 0.699219 11.757812 -0.0507812 12.710938 -1.550781 C 13.660156 -3.050781 14.109375 -4.953125 14.0625 -7.253906 C 14.011719 -8.558594 13.710938 -9.808594 13.160156 -11.058594 C 12.210938 -10.15625 11.308594 -9.757812 10.507812 -9.757812 C 9.808594 -9.757812 9.257812 -10.007812 8.855469 -10.609375 C 8.457031 -11.160156 8.207031 -11.910156 8.207031 -12.808594 C 8.15625 -13.710938 8.15625 -14.511719 8.257812 -15.261719 C 8.304688 -16.011719 8.40625 -16.761719 8.558594 -17.5625 C 8.757812 -18.816406 9.058594 -19.964844 9.457031 -21.066406 C 9.859375 -22.117188 10.507812 -23.117188 11.410156 -24.019531 C 12.308594 -24.917969 13.359375 -25.421875 14.613281 -25.421875 C 15.511719 -25.421875 16.214844 -25.21875 16.8125 -24.871094 C 17.414062 -24.46875 17.8125 -24.019531 18.0625 -23.46875 C 18.316406 -22.917969 18.464844 -22.21875 18.515625 -21.367188 C 18.515625 -20.464844 18.515625 -19.664062 18.414062 -18.964844 C 18.316406 -18.265625 18.214844 -17.414062 18.015625 -16.414062 Z M 18.015625 -16.414062 "/></g></g></g><g fill="#55996f" fill-opacity="1"><g transform="translate(163.653636, 207.374986)"><g><path d="M 4.152344 -22.867188 C 4.253906 -20.265625 3.902344 -17.363281 3.152344 -14.0625 C 2.25 -10.308594 1.851562 -7.65625 1.902344 -6.15625 C 1.953125 -1.652344 4.003906 0.652344 8.105469 0.652344 C 10.207031 0.699219 11.859375 0 13.011719 -1.5 C 14.160156 -3.003906 14.761719 -4.855469 14.863281 -7.054688 C 14.910156 -8.457031 14.660156 -9.757812 14.160156 -11.058594 C 13.160156 -10.15625 12.261719 -9.757812 11.460938 -9.757812 C 9.757812 -9.757812 8.957031 -11.609375 8.957031 -15.3125 C 8.957031 -17.863281 9.609375 -21.917969 10.910156 -27.421875 C 10.957031 -27.820312 11.058594 -28.273438 11.207031 -28.875 C 11.359375 -29.421875 11.460938 -29.875 11.558594 -30.175781 C 11.609375 -30.472656 11.660156 -30.875 11.710938 -31.273438 C 11.757812 -31.675781 11.808594 -32.027344 11.808594 -32.324219 C 11.757812 -34.675781 10.109375 -35.878906 6.804688 -35.878906 C 4.402344 -35.878906 2.25 -35.277344 0.25 -34.175781 C 2.753906 -30.675781 4.054688 -26.921875 4.152344 -22.867188 Z M 0 -44.9375 C 0 -43.132812 0.601562 -41.683594 1.800781 -40.683594 C 3.003906 -39.632812 4.652344 -39.132812 6.753906 -39.132812 C 8.855469 -39.132812 10.507812 -39.632812 11.710938 -40.683594 C 12.859375 -41.683594 13.460938 -43.132812 13.460938 -44.9375 C 13.460938 -46.738281 12.859375 -48.1875 11.710938 -49.238281 C 10.507812 -50.238281 8.855469 -50.789062 6.753906 -50.789062 C 4.652344 -50.789062 3.003906 -50.238281 1.800781 -49.1875 C 0.601562 -48.136719 0 -46.738281 0 -44.9375 Z M 0 -44.9375 "/></g></g></g><g fill="#55996f" fill-opacity="1"><g transform="translate(179.716185, 207.374986)"><g><path d="M 9.859375 5.804688 C 8.855469 5.804688 8.105469 5.203125 7.554688 3.953125 C 7.003906 2.753906 6.753906 1.402344 6.804688 -0.0507812 C 6.804688 -1.449219 6.957031 -2.753906 7.15625 -3.851562 L 7.554688 -3.851562 C 7.90625 -2.453125 8.65625 -1.351562 9.859375 -0.550781 C 11.007812 0.25 12.359375 0.652344 13.859375 0.652344 C 15.261719 0.652344 16.5625 0.351562 17.664062 -0.351562 C 18.765625 -1.050781 19.714844 -1.953125 20.417969 -3.152344 C 21.117188 -4.351562 21.71875 -5.605469 22.21875 -6.957031 C 22.71875 -8.257812 23.070312 -9.757812 23.320312 -11.359375 C 23.519531 -12.960938 23.71875 -14.363281 23.820312 -15.5625 C 23.917969 -16.761719 23.96875 -17.964844 24.019531 -19.164062 C 24.21875 -30.222656 21.816406 -35.777344 16.8125 -35.878906 C 12.710938 -35.878906 10.207031 -33.125 9.40625 -27.621094 L 8.957031 -27.621094 C 9.007812 -28.824219 9.105469 -30.023438 9.207031 -31.226562 C 9.308594 -32.425781 9.058594 -33.527344 8.457031 -34.476562 C 7.855469 -35.378906 6.855469 -35.878906 5.503906 -35.929688 C 4.351562 -35.929688 3.453125 -35.777344 2.800781 -35.578125 C 2.152344 -35.328125 1.402344 -34.878906 0.5 -34.175781 C 2.402344 -31.074219 3.351562 -27.820312 3.402344 -24.371094 C 3.402344 -20.566406 3.050781 -15.914062 2.300781 -10.507812 C 2.152344 -9.457031 1.851562 -7.507812 1.402344 -4.605469 C 0.902344 -1.703125 0.550781 0.851562 0.300781 3.050781 C 0.0507812 5.253906 -0.0507812 7.15625 0 8.808594 C 0.0507812 10.910156 0.550781 12.660156 1.550781 14.0625 C 2.550781 15.460938 4.203125 16.214844 6.503906 16.214844 C 8.605469 16.214844 10.257812 15.511719 11.410156 14.011719 C 12.558594 12.511719 13.160156 10.707031 13.261719 8.507812 C 13.3125 7.105469 13.058594 5.804688 12.558594 4.503906 C 11.609375 5.355469 10.707031 5.804688 9.859375 5.804688 Z M 10.410156 -10.109375 C 8.757812 -10.109375 7.855469 -11.160156 7.757812 -13.210938 C 7.554688 -15.460938 8.457031 -18.0625 10.359375 -21.015625 C 12.261719 -23.96875 14.261719 -25.421875 16.464844 -25.421875 C 17.265625 -25.421875 17.914062 -25.121094 18.363281 -24.519531 C 18.765625 -23.917969 19.015625 -23.167969 19.117188 -22.316406 C 19.214844 -20.765625 18.765625 -19.015625 17.8125 -17.0625 C 16.863281 -15.113281 15.664062 -13.460938 14.261719 -12.109375 C 12.808594 -10.757812 11.507812 -10.109375 10.410156 -10.109375 Z M 10.410156 -10.109375 "/></g></g></g><g fill="#55996f" fill-opacity="1"><g transform="translate(204.985951, 207.374986)"><g><path d="M 9.859375 5.804688 C 8.855469 5.804688 8.105469 5.203125 7.554688 3.953125 C 7.003906 2.753906 6.753906 1.402344 6.804688 -0.0507812 C 6.804688 -1.449219 6.957031 -2.753906 7.15625 -3.851562 L 7.554688 -3.851562 C 7.90625 -2.453125 8.65625 -1.351562 9.859375 -0.550781 C 11.007812 0.25 12.359375 0.652344 13.859375 0.652344 C 15.261719 0.652344 16.5625 0.351562 17.664062 -0.351562 C 18.765625 -1.050781 19.714844 -1.953125 20.417969 -3.152344 C 21.117188 -4.351562 21.71875 -5.605469 22.21875 -6.957031 C 22.71875 -8.257812 23.070312 -9.757812 23.320312 -11.359375 C 23.519531 -12.960938 23.71875 -14.363281 23.820312 -15.5625 C 23.917969 -16.761719 23.96875 -17.964844 24.019531 -19.164062 C 24.21875 -30.222656 21.816406 -35.777344 16.8125 -35.878906 C 12.710938 -35.878906 10.207031 -33.125 9.40625 -27.621094 L 8.957031 -27.621094 C 9.007812 -28.824219 9.105469 -30.023438 9.207031 -31.226562 C 9.308594 -32.425781 9.058594 -33.527344 8.457031 -34.476562 C 7.855469 -35.378906 6.855469 -35.878906 5.503906 -35.929688 C 4.351562 -35.929688 3.453125 -35.777344 2.800781 -35.578125 C 2.152344 -35.328125 1.402344 -34.878906 0.5 -34.175781 C 2.402344 -31.074219 3.351562 -27.820312 3.402344 -24.371094 C 3.402344 -20.566406 3.050781 -15.914062 2.300781 -10.507812 C 2.152344 -9.457031 1.851562 -7.507812 1.402344 -4.605469 C 0.902344 -1.703125 0.550781 0.851562 0.300781 3.050781 C 0.0507812 5.253906 -0.0507812 7.15625 0 8.808594 C 0.0507812 10.910156 0.550781 12.660156 1.550781 14.0625 C 2.550781 15.460938 4.203125 16.214844 6.503906 16.214844 C 8.605469 16.214844 10.257812 15.511719 11.410156 14.011719 C 12.558594 12.511719 13.160156 10.707031 13.261719 8.507812 C 13.3125 7.105469 13.058594 5.804688 12.558594 4.503906 C 11.609375 5.355469 10.707031 5.804688 9.859375 5.804688 Z M 10.410156 -10.109375 C 8.757812 -10.109375 7.855469 -11.160156 7.757812 -13.210938 C 7.554688 -15.460938 8.457031 -18.0625 10.359375 -21.015625 C 12.261719 -23.96875 14.261719 -25.421875 16.464844 -25.421875 C 17.265625 -25.421875 17.914062 -25.121094 18.363281 -24.519531 C 18.765625 -23.917969 19.015625 -23.167969 19.117188 -22.316406 C 19.214844 -20.765625 18.765625 -19.015625 17.8125 -17.0625 C 16.863281 -15.113281 15.664062 -13.460938 14.261719 -12.109375 C 12.808594 -10.757812 11.507812 -10.109375 10.410156 -10.109375 Z M 10.410156 -10.109375 "/></g></g></g><g fill="#55996f" fill-opacity="1"><g transform="translate(230.255694, 207.374986)"><g><path d="M 10.308594 0.652344 C 12.710938 0.652344 14.660156 -0.449219 16.214844 -2.652344 C 17.664062 -4.753906 18.363281 -7.105469 18.265625 -9.707031 C 18.164062 -11.359375 17.714844 -12.710938 16.914062 -13.761719 C 16.0625 -14.761719 14.910156 -15.3125 13.511719 -15.3125 C 12.960938 -15.3125 12.558594 -15.261719 12.308594 -15.210938 C 12.261719 -13.8125 11.910156 -12.511719 11.207031 -11.410156 C 10.507812 -10.308594 9.507812 -9.757812 8.207031 -9.757812 C 7.804688 -9.757812 7.507812 -9.859375 7.253906 -10.007812 C 6.957031 -10.15625 6.753906 -10.410156 6.605469 -10.707031 C 6.457031 -11.007812 6.355469 -11.308594 6.253906 -11.609375 C 6.15625 -11.910156 6.054688 -12.261719 6.054688 -12.761719 C 6.054688 -13.210938 6.003906 -13.5625 6.003906 -13.859375 C 6.003906 -14.109375 6.003906 -14.460938 6.003906 -14.910156 C 6.003906 -15.363281 6.054688 -15.664062 6.054688 -15.8125 C 10.058594 -16.011719 13.261719 -17.164062 15.664062 -19.214844 C 18.0625 -21.265625 19.265625 -24.167969 19.265625 -27.921875 C 19.164062 -30.175781 18.515625 -32.074219 17.3125 -33.578125 C 16.113281 -35.078125 14.410156 -35.878906 12.261719 -35.878906 C 10.109375 -35.878906 8.257812 -35.179688 6.707031 -33.878906 C 5.152344 -32.527344 4.003906 -30.773438 3.253906 -28.671875 C 2.503906 -26.519531 1.953125 -24.417969 1.652344 -22.417969 C 1.300781 -20.417969 1.152344 -18.414062 1.152344 -16.414062 C 1.152344 -14.960938 1.199219 -13.609375 1.300781 -12.308594 C 1.402344 -11.007812 1.601562 -9.507812 2 -7.855469 C 2.402344 -6.15625 2.902344 -4.753906 3.503906 -3.554688 C 4.101562 -2.351562 5.003906 -1.351562 6.203125 -0.550781 C 7.355469 0.25 8.707031 0.652344 10.308594 0.652344 Z M 12.308594 -25.421875 C 13.011719 -25.421875 13.511719 -25.21875 13.910156 -24.871094 C 14.261719 -24.519531 14.410156 -24.121094 14.410156 -23.617188 C 14.363281 -22.566406 13.8125 -21.71875 12.761719 -21.015625 C 11.710938 -20.316406 10.609375 -19.867188 9.457031 -19.664062 C 8.304688 -19.414062 7.207031 -19.316406 6.203125 -19.316406 C 6.40625 -20.917969 7.105469 -22.316406 8.257812 -23.570312 C 9.359375 -24.769531 10.707031 -25.421875 12.308594 -25.421875 Z M 12.308594 -25.421875 "/></g></g></g><g fill="#55996f" fill-opacity="1"><g transform="translate(250.521532, 207.374986)"><g><path d="M 13.460938 -11.058594 C 12.511719 -10.15625 11.609375 -9.757812 10.808594 -9.757812 C 10.257812 -9.757812 9.808594 -10.007812 9.40625 -10.507812 C 9.007812 -11.007812 8.757812 -11.710938 8.65625 -12.558594 C 8.304688 -14.261719 8.507812 -16.714844 9.257812 -19.964844 C 9.65625 -21.765625 10.207031 -23.167969 10.808594 -24.070312 C 11.410156 -24.96875 12.261719 -25.421875 13.3125 -25.421875 C 14.410156 -25.421875 15.164062 -24.820312 15.5625 -23.71875 C 15.960938 -22.566406 15.914062 -21.167969 15.511719 -19.515625 C 18.113281 -19.515625 20.265625 -20.515625 21.96875 -22.566406 C 23.320312 -24.269531 24.019531 -26.371094 24.019531 -28.773438 C 24.019531 -31.175781 23.21875 -33.078125 21.617188 -34.476562 C 20.515625 -35.378906 19.316406 -35.878906 18.0625 -35.878906 C 16.964844 -35.878906 16.011719 -35.628906 15.113281 -35.128906 C 14.210938 -34.628906 13.460938 -33.925781 12.808594 -33.027344 C 12.109375 -32.125 11.558594 -31.273438 11.160156 -30.472656 C 10.707031 -29.671875 10.257812 -28.722656 9.859375 -27.621094 L 9.609375 -27.621094 C 9.808594 -29.324219 9.859375 -30.675781 9.859375 -31.675781 C 9.808594 -33.078125 9.40625 -34.128906 8.605469 -34.828125 C 7.804688 -35.527344 6.855469 -35.929688 5.65625 -35.929688 C 4.101562 -35.929688 2.601562 -35.328125 1.152344 -34.175781 C 2.652344 -31.425781 3.554688 -28.824219 3.851562 -26.421875 C 4.152344 -24.019531 3.902344 -20.367188 3.203125 -15.5625 C 3.101562 -15.011719 3.003906 -14.261719 2.851562 -13.359375 C 2.703125 -12.410156 2.601562 -11.660156 2.503906 -11.109375 C 2.402344 -10.507812 2.351562 -9.859375 2.300781 -9.105469 C 2.203125 -8.304688 2.203125 -7.605469 2.203125 -6.90625 C 2.300781 -1.851562 4.402344 0.652344 8.40625 0.652344 C 9.808594 0.652344 11.007812 0.300781 11.960938 -0.5 C 12.859375 -1.25 13.511719 -2.203125 13.859375 -3.351562 C 14.210938 -4.503906 14.363281 -5.804688 14.3125 -7.253906 C 14.3125 -8.507812 14.011719 -9.757812 13.460938 -11.058594 Z M 13.460938 -11.058594 "/></g></g></g><g fill="#55996f" fill-opacity="1"><g transform="translate(274.840546, 207.374986)"><g><path d="M 11.859375 -25.421875 C 12.910156 -25.320312 13.609375 -24.820312 14.011719 -23.820312 C 14.363281 -22.816406 14.363281 -21.71875 13.960938 -20.515625 C 15.5625 -20.515625 16.8125 -21.21875 17.714844 -22.617188 C 18.613281 -24.019531 19.066406 -25.570312 19.066406 -27.320312 C 19.015625 -29.824219 18.265625 -31.925781 16.8125 -33.527344 C 15.363281 -35.128906 13.3125 -35.878906 10.707031 -35.878906 C 8.007812 -35.828125 5.855469 -34.828125 4.253906 -32.875 C 2.652344 -30.925781 1.851562 -28.574219 1.902344 -25.769531 C 1.902344 -22.167969 3.003906 -19.515625 5.253906 -17.914062 C 5.554688 -17.664062 5.953125 -17.414062 6.355469 -17.214844 C 6.753906 -16.964844 7.15625 -16.761719 7.457031 -16.664062 C 7.757812 -16.511719 8.207031 -16.3125 8.808594 -16.113281 C 9.40625 -15.863281 9.859375 -15.664062 10.257812 -15.511719 C 11.609375 -14.863281 12.359375 -14.109375 12.511719 -13.3125 C 12.609375 -12.210938 12.410156 -11.359375 11.808594 -10.757812 C 11.207031 -10.109375 10.410156 -9.808594 9.308594 -9.808594 L 8.957031 -9.808594 C 7.90625 -9.859375 7.207031 -10.410156 6.855469 -11.410156 C 6.503906 -12.410156 6.503906 -13.511719 6.90625 -14.710938 C 5.253906 -14.660156 3.953125 -13.910156 3.003906 -12.511719 C 2.050781 -11.109375 1.601562 -9.558594 1.703125 -7.90625 C 1.800781 -5.304688 2.550781 -3.253906 4.003906 -1.703125 C 5.453125 -0.101562 7.507812 0.652344 10.15625 0.652344 C 12.808594 0.699219 14.960938 -0.300781 16.5625 -2.402344 C 18.164062 -4.503906 18.914062 -7.003906 18.914062 -9.90625 C 18.914062 -12.960938 17.914062 -15.261719 15.960938 -16.863281 C 15.261719 -17.363281 14.160156 -17.914062 12.609375 -18.566406 C 11.007812 -19.214844 10.207031 -19.566406 10.109375 -19.617188 C 9.007812 -20.117188 8.40625 -20.964844 8.304688 -22.066406 C 8.207031 -23.070312 8.457031 -23.917969 9.058594 -24.519531 C 9.65625 -25.121094 10.457031 -25.421875 11.507812 -25.421875 Z M 11.859375 -25.421875 "/></g></g></g><g fill="#55996f" fill-opacity="1"><g transform="translate(295.006315, 207.374986)"><g><path d="M 1.351562 -4.953125 C 1.351562 -3.152344 1.800781 -1.800781 2.800781 -0.800781 C 3.804688 0.199219 5.203125 0.699219 7.003906 0.699219 C 8.808594 0.699219 10.207031 0.199219 11.207031 -0.800781 C 12.210938 -1.800781 12.761719 -3.152344 12.761719 -4.953125 C 12.761719 -6.707031 12.210938 -8.054688 11.207031 -9.058594 C 10.207031 -10.058594 8.808594 -10.558594 7.003906 -10.558594 C 5.203125 -10.558594 3.804688 -10.058594 2.800781 -9.058594 C 1.800781 -8.054688 1.351562 -6.707031 1.351562 -4.953125 Z M 1.351562 -4.953125 "/></g></g></g><g fill="#55996f" fill-opacity="1"><g transform="translate(309.117337, 207.374986)"><g><path d="M 9.859375 5.804688 C 8.855469 5.804688 8.105469 5.203125 7.554688 3.953125 C 7.003906 2.753906 6.753906 1.402344 6.804688 -0.0507812 C 6.804688 -1.449219 6.957031 -2.753906 7.15625 -3.851562 L 7.554688 -3.851562 C 7.90625 -2.453125 8.65625 -1.351562 9.859375 -0.550781 C 11.007812 0.25 12.359375 0.652344 13.859375 0.652344 C 15.261719 0.652344 16.5625 0.351562 17.664062 -0.351562 C 18.765625 -1.050781 19.714844 -1.953125 20.417969 -3.152344 C 21.117188 -4.351562 21.71875 -5.605469 22.21875 -6.957031 C 22.71875 -8.257812 23.070312 -9.757812 23.320312 -11.359375 C 23.519531 -12.960938 23.71875 -14.363281 23.820312 -15.5625 C 23.917969 -16.761719 23.96875 -17.964844 24.019531 -19.164062 C 24.21875 -30.222656 21.816406 -35.777344 16.8125 -35.878906 C 12.710938 -35.878906 10.207031 -33.125 9.40625 -27.621094 L 8.957031 -27.621094 C 9.007812 -28.824219 9.105469 -30.023438 9.207031 -31.226562 C 9.308594 -32.425781 9.058594 -33.527344 8.457031 -34.476562 C 7.855469 -35.378906 6.855469 -35.878906 5.503906 -35.929688 C 4.351562 -35.929688 3.453125 -35.777344 2.800781 -35.578125 C 2.152344 -35.328125 1.402344 -34.878906 0.5 -34.175781 C 2.402344 -31.074219 3.351562 -27.820312 3.402344 -24.371094 C 3.402344 -20.566406 3.050781 -15.914062 2.300781 -10.507812 C 2.152344 -9.457031 1.851562 -7.507812 1.402344 -4.605469 C 0.902344 -1.703125 0.550781 0.851562 0.300781 3.050781 C 0.0507812 5.253906 -0.0507812 7.15625 0 8.808594 C 0.0507812 10.910156 0.550781 12.660156 1.550781 14.0625 C 2.550781 15.460938 4.203125 16.214844 6.503906 16.214844 C 8.605469 16.214844 10.257812 15.511719 11.410156 14.011719 C 12.558594 12.511719 13.160156 10.707031 13.261719 8.507812 C 13.3125 7.105469 13.058594 5.804688 12.558594 4.503906 C 11.609375 5.355469 10.707031 5.804688 9.859375 5.804688 Z M 10.410156 -10.109375 C 8.757812 -10.109375 7.855469 -11.160156 7.757812 -13.210938 C 7.554688 -15.460938 8.457031 -18.0625 10.359375 -21.015625 C 12.261719 -23.96875 14.261719 -25.421875 16.464844 -25.421875 C 17.265625 -25.421875 17.914062 -25.121094 18.363281 -24.519531 C 18.765625 -23.917969 19.015625 -23.167969 19.117188 -22.316406 C 19.214844 -20.765625 18.765625 -19.015625 17.8125 -17.0625 C 16.863281 -15.113281 15.664062 -13.460938 14.261719 -12.109375 C 12.808594 -10.757812 11.507812 -10.109375 10.410156 -10.109375 Z M 10.410156 -10.109375 "/></g></g></g><g fill="#55996f" fill-opacity="1"><g transform="translate(334.38708, 207.374986)"><g><path d="M 15.664062 -5.503906 C 15.960938 -1.402344 18.015625 0.652344 21.765625 0.652344 C 23.917969 0.601562 25.519531 -0.148438 26.570312 -1.601562 C 27.570312 -3.003906 28.074219 -4.855469 28.023438 -7.054688 C 28.023438 -8.457031 27.722656 -9.757812 27.171875 -11.058594 C 26.171875 -10.15625 25.320312 -9.757812 24.519531 -9.757812 C 23.570312 -9.757812 22.917969 -10.058594 22.566406 -10.707031 C 22.167969 -11.308594 21.816406 -12.210938 21.515625 -13.359375 C 21.167969 -14.511719 20.667969 -15.460938 20.066406 -16.164062 C 19.265625 -16.964844 18.265625 -17.414062 17.164062 -17.613281 C 19.464844 -18.613281 21.316406 -19.816406 22.667969 -21.316406 C 24.570312 -23.417969 25.519531 -25.820312 25.46875 -28.523438 C 25.46875 -30.722656 24.820312 -32.476562 23.570312 -33.828125 C 22.269531 -35.179688 20.566406 -35.878906 18.414062 -35.878906 C 15.8125 -35.878906 13.761719 -35.078125 12.261719 -33.476562 C 10.757812 -31.875 9.457031 -29.671875 8.457031 -26.871094 C 8.605469 -28.773438 8.855469 -31.273438 9.257812 -34.378906 C 9.757812 -38.582031 9.957031 -41.082031 9.859375 -41.882812 C 9.359375 -44.484375 7.507812 -45.835938 4.203125 -45.835938 C 2.953125 -45.835938 1.953125 -45.6875 1.152344 -45.488281 C 0.351562 -45.234375 -0.601562 -44.785156 -1.800781 -44.136719 C 0.601562 -41.03125 2.050781 -37.578125 2.601562 -33.777344 C 3.253906 -29.375 3.152344 -23.96875 2.351562 -17.515625 C 1.550781 -11.910156 1.199219 -8.40625 1.25 -7.003906 C 1.351562 -1.902344 3.453125 0.652344 7.507812 0.652344 C 9.609375 0.652344 11.109375 -0.101562 12.058594 -1.601562 C 13.011719 -3.101562 13.460938 -4.953125 13.410156 -7.253906 C 13.359375 -8.558594 13.058594 -9.808594 12.511719 -11.058594 C 11.558594 -10.15625 10.660156 -9.757812 9.859375 -9.757812 C 9.007812 -9.757812 8.40625 -10.109375 8.007812 -10.808594 C 7.605469 -11.507812 7.40625 -12.460938 7.507812 -13.660156 C 9.105469 -14.710938 10.660156 -15.261719 12.160156 -15.261719 C 12.960938 -15.261719 13.5625 -15.011719 14.0625 -14.613281 C 14.5625 -14.210938 14.910156 -13.5625 15.113281 -12.761719 C 15.3125 -11.960938 15.414062 -11.160156 15.460938 -10.457031 C 15.511719 -9.757812 15.5625 -8.855469 15.5625 -7.804688 C 15.5625 -6.707031 15.613281 -5.953125 15.664062 -5.503906 Z M 17.164062 -22.96875 C 17.0625 -21.917969 16.414062 -20.964844 15.210938 -20.117188 C 13.960938 -19.214844 12.710938 -18.566406 11.460938 -18.164062 C 10.207031 -17.765625 8.957031 -17.414062 7.757812 -17.214844 C 8.054688 -19.414062 8.808594 -21.367188 9.957031 -22.96875 C 11.058594 -24.570312 12.660156 -25.421875 14.710938 -25.421875 C 15.511719 -25.421875 16.113281 -25.171875 16.5625 -24.667969 C 16.964844 -24.167969 17.164062 -23.617188 17.164062 -22.96875 Z M 17.164062 -22.96875 "/></g></g></g><g fill="#f85606" fill-opacity="1"><g transform="translate(12.585559, 207.374986)"><g><path d="M 0 -43.585938 C 2.453125 -40.082031 3.753906 -35.777344 3.851562 -30.675781 C 3.851562 -28.273438 3.554688 -24.371094 2.851562 -19.015625 C 2.800781 -18.714844 2.652344 -17.914062 2.453125 -16.5625 C 2.25 -15.210938 2.101562 -14.3125 2.050781 -13.8125 C 2 -13.3125 1.953125 -12.460938 1.851562 -11.308594 C 1.75 -10.109375 1.703125 -9.207031 1.75 -8.558594 C 1.800781 -7.90625 1.902344 -7.15625 2.101562 -6.304688 C 2.25 -5.40625 2.503906 -4.652344 2.800781 -4.003906 C 4.203125 -0.902344 6.65625 0.652344 10.058594 0.652344 C 12.359375 0.652344 14.460938 0.0507812 16.363281 -1.199219 C 18.265625 -2.453125 19.816406 -4.054688 21.015625 -5.953125 C 22.21875 -7.855469 23.21875 -10.058594 24.121094 -12.558594 C 24.96875 -15.011719 25.621094 -17.363281 26.019531 -19.566406 C 26.421875 -21.765625 26.671875 -23.867188 26.820312 -25.972656 C 26.820312 -27.371094 26.871094 -28.875 26.972656 -30.574219 C 27.070312 -32.226562 26.972656 -33.925781 26.671875 -35.679688 C 26.371094 -37.378906 25.921875 -38.980469 25.421875 -40.382812 C 24.871094 -41.785156 23.96875 -42.984375 22.769531 -43.886719 C 21.566406 -44.785156 20.066406 -45.285156 18.363281 -45.285156 C 16.5625 -45.285156 14.863281 -44.734375 13.3125 -43.683594 C 11.757812 -42.585938 10.660156 -41.433594 10.007812 -40.183594 L 9.859375 -40.183594 C 9.90625 -41.785156 9.507812 -43.035156 8.65625 -43.933594 C 7.757812 -44.835938 6.503906 -45.285156 4.855469 -45.285156 C 2.753906 -45.285156 1.152344 -44.6875 0 -43.585938 Z M 10.859375 -28.523438 C 12.460938 -32.425781 14.511719 -34.425781 17.113281 -34.425781 C 18.464844 -34.425781 19.515625 -33.878906 20.214844 -32.777344 C 20.917969 -31.675781 21.316406 -30.375 21.46875 -28.875 C 21.667969 -26.472656 21.367188 -23.769531 20.667969 -20.867188 C 19.914062 -17.964844 18.816406 -15.460938 17.363281 -13.359375 C 15.914062 -11.257812 14.410156 -10.207031 12.808594 -10.207031 C 11.507812 -10.207031 10.507812 -10.859375 9.808594 -12.109375 C 9.105469 -13.3125 8.707031 -14.910156 8.65625 -16.914062 C 8.457031 -20.765625 9.207031 -24.621094 10.859375 -28.523438 Z M 10.859375 -28.523438 "/></g></g></g><g fill="#f85606" fill-opacity="1"><g transform="translate(40.75758, 207.374986)"><g><path d="M 13.460938 -11.058594 C 12.511719 -10.15625 11.609375 -9.757812 10.808594 -9.757812 C 10.257812 -9.757812 9.808594 -10.007812 9.40625 -10.507812 C 9.007812 -11.007812 8.757812 -11.710938 8.65625 -12.558594 C 8.304688 -14.261719 8.507812 -16.714844 9.257812 -19.964844 C 9.65625 -21.765625 10.207031 -23.167969 10.808594 -24.070312 C 11.410156 -24.96875 12.261719 -25.421875 13.3125 -25.421875 C 14.410156 -25.421875 15.164062 -24.820312 15.5625 -23.71875 C 15.960938 -22.566406 15.914062 -21.167969 15.511719 -19.515625 C 18.113281 -19.515625 20.265625 -20.515625 21.96875 -22.566406 C 23.320312 -24.269531 24.019531 -26.371094 24.019531 -28.773438 C 24.019531 -31.175781 23.21875 -33.078125 21.617188 -34.476562 C 20.515625 -35.378906 19.316406 -35.878906 18.0625 -35.878906 C 16.964844 -35.878906 16.011719 -35.628906 15.113281 -35.128906 C 14.210938 -34.628906 13.460938 -33.925781 12.808594 -33.027344 C 12.109375 -32.125 11.558594 -31.273438 11.160156 -30.472656 C 10.707031 -29.671875 10.257812 -28.722656 9.859375 -27.621094 L 9.609375 -27.621094 C 9.808594 -29.324219 9.859375 -30.675781 9.859375 -31.675781 C 9.808594 -33.078125 9.40625 -34.128906 8.605469 -34.828125 C 7.804688 -35.527344 6.855469 -35.929688 5.65625 -35.929688 C 4.101562 -35.929688 2.601562 -35.328125 1.152344 -34.175781 C 2.652344 -31.425781 3.554688 -28.824219 3.851562 -26.421875 C 4.152344 -24.019531 3.902344 -20.367188 3.203125 -15.5625 C 3.101562 -15.011719 3.003906 -14.261719 2.851562 -13.359375 C 2.703125 -12.410156 2.601562 -11.660156 2.503906 -11.109375 C 2.402344 -10.507812 2.351562 -9.859375 2.300781 -9.105469 C 2.203125 -8.304688 2.203125 -7.605469 2.203125 -6.90625 C 2.300781 -1.851562 4.402344 0.652344 8.40625 0.652344 C 9.808594 0.652344 11.007812 0.300781 11.960938 -0.5 C 12.859375 -1.25 13.511719 -2.203125 13.859375 -3.351562 C 14.210938 -4.503906 14.363281 -5.804688 14.3125 -7.253906 C 14.3125 -8.507812 14.011719 -9.757812 13.460938 -11.058594 Z M 13.460938 -11.058594 "/></g></g></g><g fill="#f85606" fill-opacity="1"><g transform="translate(65.076583, 207.374986)"><g><path d="M 10.359375 0.652344 C 13.160156 0.601562 15.414062 -1.199219 17.113281 -4.804688 C 18.816406 -8.40625 19.714844 -13.058594 19.714844 -18.816406 C 19.714844 -19.914062 19.664062 -20.964844 19.566406 -22.066406 C 19.464844 -23.167969 19.367188 -24.371094 19.164062 -25.769531 C 18.964844 -27.171875 18.613281 -28.421875 18.214844 -29.574219 C 17.765625 -30.675781 17.214844 -31.777344 16.613281 -32.777344 C 15.960938 -33.777344 15.113281 -34.527344 14.109375 -35.078125 C 13.109375 -35.628906 11.960938 -35.878906 10.660156 -35.878906 C 7.855469 -35.777344 5.554688 -33.976562 3.851562 -30.375 C 2.152344 -26.769531 1.300781 -22.117188 1.300781 -16.414062 C 1.300781 -15.3125 1.300781 -14.210938 1.402344 -13.109375 C 1.5 -12.007812 1.652344 -10.808594 1.851562 -9.40625 C 2.050781 -8.007812 2.351562 -6.753906 2.800781 -5.65625 C 3.203125 -4.503906 3.753906 -3.453125 4.402344 -2.453125 C 5.003906 -1.449219 5.855469 -0.652344 6.855469 -0.101562 C 7.855469 0.449219 9.058594 0.699219 10.359375 0.652344 Z M 13.210938 -25.421875 C 13.910156 -25.421875 14.460938 -25.121094 14.863281 -24.621094 C 15.261719 -24.070312 15.460938 -23.417969 15.511719 -22.667969 C 15.613281 -21.265625 15.210938 -19.714844 14.410156 -17.964844 C 13.5625 -16.214844 12.511719 -14.710938 11.257812 -13.511719 C 9.957031 -12.308594 8.808594 -11.710938 7.804688 -11.710938 C 6.40625 -11.710938 5.65625 -12.609375 5.554688 -14.410156 C 5.453125 -15.710938 5.753906 -17.214844 6.457031 -18.914062 C 7.15625 -20.617188 8.105469 -22.167969 9.359375 -23.46875 C 10.609375 -24.769531 11.910156 -25.421875 13.210938 -25.421875 Z M 13.210938 -25.421875 "/></g></g></g><g fill="#f85606" fill-opacity="1"><g transform="translate(85.642655, 207.374986)"><g><path d="M 9.859375 5.804688 C 8.855469 5.804688 8.105469 5.203125 7.554688 3.953125 C 7.003906 2.753906 6.753906 1.402344 6.804688 -0.0507812 C 6.804688 -1.449219 6.957031 -2.753906 7.15625 -3.851562 L 7.554688 -3.851562 C 7.90625 -2.453125 8.65625 -1.351562 9.859375 -0.550781 C 11.007812 0.25 12.359375 0.652344 13.859375 0.652344 C 15.261719 0.652344 16.5625 0.351562 17.664062 -0.351562 C 18.765625 -1.050781 19.714844 -1.953125 20.417969 -3.152344 C 21.117188 -4.351562 21.71875 -5.605469 22.21875 -6.957031 C 22.71875 -8.257812 23.070312 -9.757812 23.320312 -11.359375 C 23.519531 -12.960938 23.71875 -14.363281 23.820312 -15.5625 C 23.917969 -16.761719 23.96875 -17.964844 24.019531 -19.164062 C 24.21875 -30.222656 21.816406 -35.777344 16.8125 -35.878906 C 12.710938 -35.878906 10.207031 -33.125 9.40625 -27.621094 L 8.957031 -27.621094 C 9.007812 -28.824219 9.105469 -30.023438 9.207031 -31.226562 C 9.308594 -32.425781 9.058594 -33.527344 8.457031 -34.476562 C 7.855469 -35.378906 6.855469 -35.878906 5.503906 -35.929688 C 4.351562 -35.929688 3.453125 -35.777344 2.800781 -35.578125 C 2.152344 -35.328125 1.402344 -34.878906 0.5 -34.175781 C 2.402344 -31.074219 3.351562 -27.820312 3.402344 -24.371094 C 3.402344 -20.566406 3.050781 -15.914062 2.300781 -10.507812 C 2.152344 -9.457031 1.851562 -7.507812 1.402344 -4.605469 C 0.902344 -1.703125 0.550781 0.851562 0.300781 3.050781 C 0.0507812 5.253906 -0.0507812 7.15625 0 8.808594 C 0.0507812 10.910156 0.550781 12.660156 1.550781 14.0625 C 2.550781 15.460938 4.203125 16.214844 6.503906 16.214844 C 8.605469 16.214844 10.257812 15.511719 11.410156 14.011719 C 12.558594 12.511719 13.160156 10.707031 13.261719 8.507812 C 13.3125 7.105469 13.058594 5.804688 12.558594 4.503906 C 11.609375 5.355469 10.707031 5.804688 9.859375 5.804688 Z M 10.410156 -10.109375 C 8.757812 -10.109375 7.855469 -11.160156 7.757812 -13.210938 C 7.554688 -15.460938 8.457031 -18.0625 10.359375 -21.015625 C 12.261719 -23.96875 14.261719 -25.421875 16.464844 -25.421875 C 17.265625 -25.421875 17.914062 -25.121094 18.363281 -24.519531 C 18.765625 -23.917969 19.015625 -23.167969 19.117188 -22.316406 C 19.214844 -20.765625 18.765625 -19.015625 17.8125 -17.0625 C 16.863281 -15.113281 15.664062 -13.460938 14.261719 -12.109375 C 12.808594 -10.757812 11.507812 -10.109375 10.410156 -10.109375 Z M 10.410156 -10.109375 "/></g></g></g><g fill="#f85606" fill-opacity="1"><g transform="translate(110.91241, 207.374986)"><g><path d="M 12.859375 -24.320312 C 10.457031 -25.570312 9.15625 -27.320312 8.957031 -29.523438 C 8.855469 -30.824219 9.105469 -31.976562 9.707031 -32.976562 C 10.308594 -33.976562 11.359375 -34.476562 12.761719 -34.476562 C 12.761719 -34.476562 12.859375 -34.425781 13.011719 -34.425781 C 13.109375 -34.425781 13.210938 -34.425781 13.3125 -34.425781 C 14.511719 -34.277344 15.363281 -33.726562 15.960938 -32.726562 C 16.5625 -31.726562 16.8125 -30.625 16.714844 -29.421875 C 16.613281 -28.222656 16.464844 -27.070312 16.261719 -25.972656 C 18.265625 -26.019531 19.867188 -26.921875 21.015625 -28.722656 C 22.117188 -30.472656 22.667969 -32.425781 22.617188 -34.527344 C 22.617188 -37.730469 21.71875 -40.28125 19.914062 -42.285156 C 18.113281 -44.285156 15.613281 -45.285156 12.359375 -45.285156 C 8.855469 -45.285156 6.105469 -44.085938 4.054688 -41.785156 C 2 -39.429688 1 -36.480469 1.050781 -32.976562 C 1.050781 -30.023438 1.800781 -27.472656 3.300781 -25.269531 C 4.605469 -23.367188 6.855469 -21.71875 10.109375 -20.316406 C 11.609375 -19.617188 12.710938 -18.914062 13.410156 -18.214844 C 14.109375 -17.464844 14.511719 -16.363281 14.511719 -14.960938 C 14.511719 -13.460938 14.160156 -12.308594 13.511719 -11.507812 C 12.808594 -10.660156 11.960938 -10.257812 10.910156 -10.257812 C 9.15625 -10.257812 8.007812 -11.109375 7.40625 -12.910156 C 6.804688 -14.613281 6.753906 -16.511719 7.355469 -18.714844 C 5.253906 -18.613281 3.652344 -17.714844 2.503906 -15.914062 C 1.300781 -14.109375 0.75 -12.210938 0.851562 -10.109375 C 0.949219 -6.90625 1.902344 -4.304688 3.703125 -2.351562 C 5.503906 -0.351562 8.105469 0.652344 11.460938 0.652344 C 13.710938 0.652344 15.710938 0.0507812 17.414062 -1.199219 C 19.117188 -2.402344 20.417969 -4.003906 21.265625 -6.003906 C 22.066406 -7.957031 22.46875 -10.109375 22.46875 -12.460938 C 22.46875 -16.214844 21.167969 -19.066406 18.613281 -21.066406 C 18.214844 -21.367188 17.714844 -21.667969 17.214844 -21.96875 C 16.714844 -22.269531 16.261719 -22.566406 15.863281 -22.769531 C 15.460938 -22.96875 14.910156 -23.269531 14.261719 -23.570312 C 13.609375 -23.867188 13.160156 -24.121094 12.859375 -24.320312 Z M 12.859375 -24.320312 "/></g></g></g><g fill="#f85606" fill-opacity="1"><g transform="translate(134.430795, 207.374986)"><g><path d="M 18.015625 -16.414062 C 17.914062 -15.863281 17.714844 -14.910156 17.414062 -13.511719 C 17.113281 -12.109375 16.914062 -10.859375 16.714844 -9.707031 C 16.511719 -8.558594 16.363281 -7.605469 16.363281 -6.804688 C 16.261719 -5.605469 16.414062 -4.453125 16.714844 -3.402344 C 17.011719 -2.351562 17.613281 -1.402344 18.613281 -0.601562 C 19.566406 0.25 20.816406 0.652344 22.417969 0.652344 C 24.519531 0.699219 26.121094 0 27.171875 -1.5 C 28.222656 -3.003906 28.722656 -4.855469 28.671875 -7.054688 C 28.671875 -8.457031 28.371094 -9.757812 27.820312 -11.058594 C 26.820312 -10.15625 25.972656 -9.757812 25.171875 -9.757812 C 22.917969 -9.757812 22.167969 -11.558594 22.96875 -15.261719 C 23.117188 -15.960938 23.46875 -17.414062 24.070312 -19.664062 C 24.667969 -21.867188 25.070312 -23.71875 25.320312 -25.21875 C 25.921875 -28.621094 25.621094 -31.273438 24.46875 -33.125 C 23.269531 -34.929688 21.316406 -35.878906 18.613281 -35.878906 C 16.113281 -35.878906 14.011719 -34.878906 12.359375 -32.875 C 11.359375 -31.675781 10.257812 -29.671875 9.105469 -26.871094 C 9.257812 -28.921875 9.507812 -31.425781 9.90625 -34.378906 C 10.410156 -38.582031 10.609375 -41.082031 10.507812 -41.882812 C 10.007812 -44.484375 8.15625 -45.835938 4.855469 -45.835938 C 3.601562 -45.835938 2.601562 -45.6875 1.800781 -45.488281 C 1 -45.234375 0.0507812 -44.785156 -1.152344 -44.136719 C 1.25 -41.03125 2.703125 -37.578125 3.253906 -33.777344 C 3.902344 -29.375 3.804688 -23.96875 3.003906 -17.515625 C 2.203125 -11.910156 1.851562 -8.40625 1.902344 -7.003906 C 2 -1.902344 4.101562 0.652344 8.15625 0.652344 C 10.257812 0.699219 11.757812 -0.0507812 12.710938 -1.550781 C 13.660156 -3.050781 14.109375 -4.953125 14.0625 -7.253906 C 14.011719 -8.558594 13.710938 -9.808594 13.160156 -11.058594 C 12.210938 -10.15625 11.308594 -9.757812 10.507812 -9.757812 C 9.808594 -9.757812 9.257812 -10.007812 8.855469 -10.609375 C 8.457031 -11.160156 8.207031 -11.910156 8.207031 -12.808594 C 8.15625 -13.710938 8.15625 -14.511719 8.257812 -15.261719 C 8.304688 -16.011719 8.40625 -16.761719 8.558594 -17.5625 C 8.757812 -18.816406 9.058594 -19.964844 9.457031 -21.066406 C 9.859375 -22.117188 10.507812 -23.117188 11.410156 -24.019531 C 12.308594 -24.917969 13.359375 -25.421875 14.613281 -25.421875 C 15.511719 -25.421875 16.214844 -25.21875 16.8125 -24.871094 C 17.414062 -24.46875 17.8125 -24.019531 18.0625 -23.46875 C 18.316406 -22.917969 18.464844 -22.21875 18.515625 -21.367188 C 18.515625 -20.464844 18.515625 -19.664062 18.414062 -18.964844 C 18.316406 -18.265625 18.214844 -17.414062 18.015625 -16.414062 Z M 18.015625 -16.414062 "/></g></g></g><g fill="#f85606" fill-opacity="1"><g transform="translate(163.653636, 207.374986)"><g><path d="M 4.152344 -22.867188 C 4.253906 -20.265625 3.902344 -17.363281 3.152344 -14.0625 C 2.25 -10.308594 1.851562 -7.65625 1.902344 -6.15625 C 1.953125 -1.652344 4.003906 0.652344 8.105469 0.652344 C 10.207031 0.699219 11.859375 0 13.011719 -1.5 C 14.160156 -3.003906 14.761719 -4.855469 14.863281 -7.054688 C 14.910156 -8.457031 14.660156 -9.757812 14.160156 -11.058594 C 13.160156 -10.15625 12.261719 -9.757812 11.460938 -9.757812 C 9.757812 -9.757812 8.957031 -11.609375 8.957031 -15.3125 C 8.957031 -17.863281 9.609375 -21.917969 10.910156 -27.421875 C 10.957031 -27.820312 11.058594 -28.273438 11.207031 -28.875 C 11.359375 -29.421875 11.460938 -29.875 11.558594 -30.175781 C 11.609375 -30.472656 11.660156 -30.875 11.710938 -31.273438 C 11.757812 -31.675781 11.808594 -32.027344 11.808594 -32.324219 C 11.757812 -34.675781 10.109375 -35.878906 6.804688 -35.878906 C 4.402344 -35.878906 2.25 -35.277344 0.25 -34.175781 C 2.753906 -30.675781 4.054688 -26.921875 4.152344 -22.867188 Z M 0 -44.9375 C 0 -43.132812 0.601562 -41.683594 1.800781 -40.683594 C 3.003906 -39.632812 4.652344 -39.132812 6.753906 -39.132812 C 8.855469 -39.132812 10.507812 -39.632812 11.710938 -40.683594 C 12.859375 -41.683594 13.460938 -43.132812 13.460938 -44.9375 C 13.460938 -46.738281 12.859375 -48.1875 11.710938 -49.238281 C 10.507812 -50.238281 8.855469 -50.789062 6.753906 -50.789062 C 4.652344 -50.789062 3.003906 -50.238281 1.800781 -49.1875 C 0.601562 -48.136719 0 -46.738281 0 -44.9375 Z M 0 -44.9375 "/></g></g></g><g fill="#f85606" fill-opacity="1"><g transform="translate(179.716185, 207.374986)"><g><path d="M 9.859375 5.804688 C 8.855469 5.804688 8.105469 5.203125 7.554688 3.953125 C 7.003906 2.753906 6.753906 1.402344 6.804688 -0.0507812 C 6.804688 -1.449219 6.957031 -2.753906 7.15625 -3.851562 L 7.554688 -3.851562 C 7.90625 -2.453125 8.65625 -1.351562 9.859375 -0.550781 C 11.007812 0.25 12.359375 0.652344 13.859375 0.652344 C 15.261719 0.652344 16.5625 0.351562 17.664062 -0.351562 C 18.765625 -1.050781 19.714844 -1.953125 20.417969 -3.152344 C 21.117188 -4.351562 21.71875 -5.605469 22.21875 -6.957031 C 22.71875 -8.257812 23.070312 -9.757812 23.320312 -11.359375 C 23.519531 -12.960938 23.71875 -14.363281 23.820312 -15.5625 C 23.917969 -16.761719 23.96875 -17.964844 24.019531 -19.164062 C 24.21875 -30.222656 21.816406 -35.777344 16.8125 -35.878906 C 12.710938 -35.878906 10.207031 -33.125 9.40625 -27.621094 L 8.957031 -27.621094 C 9.007812 -28.824219 9.105469 -30.023438 9.207031 -31.226562 C 9.308594 -32.425781 9.058594 -33.527344 8.457031 -34.476562 C 7.855469 -35.378906 6.855469 -35.878906 5.503906 -35.929688 C 4.351562 -35.929688 3.453125 -35.777344 2.800781 -35.578125 C 2.152344 -35.328125 1.402344 -34.878906 0.5 -34.175781 C 2.402344 -31.074219 3.351562 -27.820312 3.402344 -24.371094 C 3.402344 -20.566406 3.050781 -15.914062 2.300781 -10.507812 C 2.152344 -9.457031 1.851562 -7.507812 1.402344 -4.605469 C 0.902344 -1.703125 0.550781 0.851562 0.300781 3.050781 C 0.0507812 5.253906 -0.0507812 7.15625 0 8.808594 C 0.0507812 10.910156 0.550781 12.660156 1.550781 14.0625 C 2.550781 15.460938 4.203125 16.214844 6.503906 16.214844 C 8.605469 16.214844 10.257812 15.511719 11.410156 14.011719 C 12.558594 12.511719 13.160156 10.707031 13.261719 8.507812 C 13.3125 7.105469 13.058594 5.804688 12.558594 4.503906 C 11.609375 5.355469 10.707031 5.804688 9.859375 5.804688 Z M 10.410156 -10.109375 C 8.757812 -10.109375 7.855469 -11.160156 7.757812 -13.210938 C 7.554688 -15.460938 8.457031 -18.0625 10.359375 -21.015625 C 12.261719 -23.96875 14.261719 -25.421875 16.464844 -25.421875 C 17.265625 -25.421875 17.914062 -25.121094 18.363281 -24.519531 C 18.765625 -23.917969 19.015625 -23.167969 19.117188 -22.316406 C 19.214844 -20.765625 18.765625 -19.015625 17.8125 -17.0625 C 16.863281 -15.113281 15.664062 -13.460938 14.261719 -12.109375 C 12.808594 -10.757812 11.507812 -10.109375 10.410156 -10.109375 Z M 10.410156 -10.109375 "/></g></g></g><g fill="#f85606" fill-opacity="1"><g transform="translate(204.985951, 207.374986)"><g><path d="M 9.859375 5.804688 C 8.855469 5.804688 8.105469 5.203125 7.554688 3.953125 C 7.003906 2.753906 6.753906 1.402344 6.804688 -0.0507812 C 6.804688 -1.449219 6.957031 -2.753906 7.15625 -3.851562 L 7.554688 -3.851562 C 7.90625 -2.453125 8.65625 -1.351562 9.859375 -0.550781 C 11.007812 0.25 12.359375 0.652344 13.859375 0.652344 C 15.261719 0.652344 16.5625 0.351562 17.664062 -0.351562 C 18.765625 -1.050781 19.714844 -1.953125 20.417969 -3.152344 C 21.117188 -4.351562 21.71875 -5.605469 22.21875 -6.957031 C 22.71875 -8.257812 23.070312 -9.757812 23.320312 -11.359375 C 23.519531 -12.960938 23.71875 -14.363281 23.820312 -15.5625 C 23.917969 -16.761719 23.96875 -17.964844 24.019531 -19.164062 C 24.21875 -30.222656 21.816406 -35.777344 16.8125 -35.878906 C 12.710938 -35.878906 10.207031 -33.125 9.40625 -27.621094 L 8.957031 -27.621094 C 9.007812 -28.824219 9.105469 -30.023438 9.207031 -31.226562 C 9.308594 -32.425781 9.058594 -33.527344 8.457031 -34.476562 C 7.855469 -35.378906 6.855469 -35.878906 5.503906 -35.929688 C 4.351562 -35.929688 3.453125 -35.777344 2.800781 -35.578125 C 2.152344 -35.328125 1.402344 -34.878906 0.5 -34.175781 C 2.402344 -31.074219 3.351562 -27.820312 3.402344 -24.371094 C 3.402344 -20.566406 3.050781 -15.914062 2.300781 -10.507812 C 2.152344 -9.457031 1.851562 -7.507812 1.402344 -4.605469 C 0.902344 -1.703125 0.550781 0.851562 0.300781 3.050781 C 0.0507812 5.253906 -0.0507812 7.15625 0 8.808594 C 0.0507812 10.910156 0.550781 12.660156 1.550781 14.0625 C 2.550781 15.460938 4.203125 16.214844 6.503906 16.214844 C 8.605469 16.214844 10.257812 15.511719 11.410156 14.011719 C 12.558594 12.511719 13.160156 10.707031 13.261719 8.507812 C 13.3125 7.105469 13.058594 5.804688 12.558594 4.503906 C 11.609375 5.355469 10.707031 5.804688 9.859375 5.804688 Z M 10.410156 -10.109375 C 8.757812 -10.109375 7.855469 -11.160156 7.757812 -13.210938 C 7.554688 -15.460938 8.457031 -18.0625 10.359375 -21.015625 C 12.261719 -23.96875 14.261719 -25.421875 16.464844 -25.421875 C 17.265625 -25.421875 17.914062 -25.121094 18.363281 -24.519531 C 18.765625 -23.917969 19.015625 -23.167969 19.117188 -22.316406 C 19.214844 -20.765625 18.765625 -19.015625 17.8125 -17.0625 C 16.863281 -15.113281 15.664062 -13.460938 14.261719 -12.109375 C 12.808594 -10.757812 11.507812 -10.109375 10.410156 -10.109375 Z M 10.410156 -10.109375 "/></g></g></g><g fill="#f85606" fill-opacity="1"><g transform="translate(230.255694, 207.374986)"><g><path d="M 10.308594 0.652344 C 12.710938 0.652344 14.660156 -0.449219 16.214844 -2.652344 C 17.664062 -4.753906 18.363281 -7.105469 18.265625 -9.707031 C 18.164062 -11.359375 17.714844 -12.710938 16.914062 -13.761719 C 16.0625 -14.761719 14.910156 -15.3125 13.511719 -15.3125 C 12.960938 -15.3125 12.558594 -15.261719 12.308594 -15.210938 C 12.261719 -13.8125 11.910156 -12.511719 11.207031 -11.410156 C 10.507812 -10.308594 9.507812 -9.757812 8.207031 -9.757812 C 7.804688 -9.757812 7.507812 -9.859375 7.253906 -10.007812 C 6.957031 -10.15625 6.753906 -10.410156 6.605469 -10.707031 C 6.457031 -11.007812 6.355469 -11.308594 6.253906 -11.609375 C 6.15625 -11.910156 6.054688 -12.261719 6.054688 -12.761719 C 6.054688 -13.210938 6.003906 -13.5625 6.003906 -13.859375 C 6.003906 -14.109375 6.003906 -14.460938 6.003906 -14.910156 C 6.003906 -15.363281 6.054688 -15.664062 6.054688 -15.8125 C 10.058594 -16.011719 13.261719 -17.164062 15.664062 -19.214844 C 18.0625 -21.265625 19.265625 -24.167969 19.265625 -27.921875 C 19.164062 -30.175781 18.515625 -32.074219 17.3125 -33.578125 C 16.113281 -35.078125 14.410156 -35.878906 12.261719 -35.878906 C 10.109375 -35.878906 8.257812 -35.179688 6.707031 -33.878906 C 5.152344 -32.527344 4.003906 -30.773438 3.253906 -28.671875 C 2.503906 -26.519531 1.953125 -24.417969 1.652344 -22.417969 C 1.300781 -20.417969 1.152344 -18.414062 1.152344 -16.414062 C 1.152344 -14.960938 1.199219 -13.609375 1.300781 -12.308594 C 1.402344 -11.007812 1.601562 -9.507812 2 -7.855469 C 2.402344 -6.15625 2.902344 -4.753906 3.503906 -3.554688 C 4.101562 -2.351562 5.003906 -1.351562 6.203125 -0.550781 C 7.355469 0.25 8.707031 0.652344 10.308594 0.652344 Z M 12.308594 -25.421875 C 13.011719 -25.421875 13.511719 -25.21875 13.910156 -24.871094 C 14.261719 -24.519531 14.410156 -24.121094 14.410156 -23.617188 C 14.363281 -22.566406 13.8125 -21.71875 12.761719 -21.015625 C 11.710938 -20.316406 10.609375 -19.867188 9.457031 -19.664062 C 8.304688 -19.414062 7.207031 -19.316406 6.203125 -19.316406 C 6.40625 -20.917969 7.105469 -22.316406 8.257812 -23.570312 C 9.359375 -24.769531 10.707031 -25.421875 12.308594 -25.421875 Z M 12.308594 -25.421875 "/></g></g></g><g fill="#f85606" fill-opacity="1"><g transform="translate(250.521532, 207.374986)"><g><path d="M 13.460938 -11.058594 C 12.511719 -10.15625 11.609375 -9.757812 10.808594 -9.757812 C 10.257812 -9.757812 9.808594 -10.007812 9.40625 -10.507812 C 9.007812 -11.007812 8.757812 -11.710938 8.65625 -12.558594 C 8.304688 -14.261719 8.507812 -16.714844 9.257812 -19.964844 C 9.65625 -21.765625 10.207031 -23.167969 10.808594 -24.070312 C 11.410156 -24.96875 12.261719 -25.421875 13.3125 -25.421875 C 14.410156 -25.421875 15.164062 -24.820312 15.5625 -23.71875 C 15.960938 -22.566406 15.914062 -21.167969 15.511719 -19.515625 C 18.113281 -19.515625 20.265625 -20.515625 21.96875 -22.566406 C 23.320312 -24.269531 24.019531 -26.371094 24.019531 -28.773438 C 24.019531 -31.175781 23.21875 -33.078125 21.617188 -34.476562 C 20.515625 -35.378906 19.316406 -35.878906 18.0625 -35.878906 C 16.964844 -35.878906 16.011719 -35.628906 15.113281 -35.128906 C 14.210938 -34.628906 13.460938 -33.925781 12.808594 -33.027344 C 12.109375 -32.125 11.558594 -31.273438 11.160156 -30.472656 C 10.707031 -29.671875 10.257812 -28.722656 9.859375 -27.621094 L 9.609375 -27.621094 C 9.808594 -29.324219 9.859375 -30.675781 9.859375 -31.675781 C 9.808594 -33.078125 9.40625 -34.128906 8.605469 -34.828125 C 7.804688 -35.527344 6.855469 -35.929688 5.65625 -35.929688 C 4.101562 -35.929688 2.601562 -35.328125 1.152344 -34.175781 C 2.652344 -31.425781 3.554688 -28.824219 3.851562 -26.421875 C 4.152344 -24.019531 3.902344 -20.367188 3.203125 -15.5625 C 3.101562 -15.011719 3.003906 -14.261719 2.851562 -13.359375 C 2.703125 -12.410156 2.601562 -11.660156 2.503906 -11.109375 C 2.402344 -10.507812 2.351562 -9.859375 2.300781 -9.105469 C 2.203125 -8.304688 2.203125 -7.605469 2.203125 -6.90625 C 2.300781 -1.851562 4.402344 0.652344 8.40625 0.652344 C 9.808594 0.652344 11.007812 0.300781 11.960938 -0.5 C 12.859375 -1.25 13.511719 -2.203125 13.859375 -3.351562 C 14.210938 -4.503906 14.363281 -5.804688 14.3125 -7.253906 C 14.3125 -8.507812 14.011719 -9.757812 13.460938 -11.058594 Z M 13.460938 -11.058594 "/></g></g></g><g fill="#f85606" fill-opacity="1"><g transform="translate(274.840546, 207.374986)"><g><path d="M 11.859375 -25.421875 C 12.910156 -25.320312 13.609375 -24.820312 14.011719 -23.820312 C 14.363281 -22.816406 14.363281 -21.71875 13.960938 -20.515625 C 15.5625 -20.515625 16.8125 -21.21875 17.714844 -22.617188 C 18.613281 -24.019531 19.066406 -25.570312 19.066406 -27.320312 C 19.015625 -29.824219 18.265625 -31.925781 16.8125 -33.527344 C 15.363281 -35.128906 13.3125 -35.878906 10.707031 -35.878906 C 8.007812 -35.828125 5.855469 -34.828125 4.253906 -32.875 C 2.652344 -30.925781 1.851562 -28.574219 1.902344 -25.769531 C 1.902344 -22.167969 3.003906 -19.515625 5.253906 -17.914062 C 5.554688 -17.664062 5.953125 -17.414062 6.355469 -17.214844 C 6.753906 -16.964844 7.15625 -16.761719 7.457031 -16.664062 C 7.757812 -16.511719 8.207031 -16.3125 8.808594 -16.113281 C 9.40625 -15.863281 9.859375 -15.664062 10.257812 -15.511719 C 11.609375 -14.863281 12.359375 -14.109375 12.511719 -13.3125 C 12.609375 -12.210938 12.410156 -11.359375 11.808594 -10.757812 C 11.207031 -10.109375 10.410156 -9.808594 9.308594 -9.808594 L 8.957031 -9.808594 C 7.90625 -9.859375 7.207031 -10.410156 6.855469 -11.410156 C 6.503906 -12.410156 6.503906 -13.511719 6.90625 -14.710938 C 5.253906 -14.660156 3.953125 -13.910156 3.003906 -12.511719 C 2.050781 -11.109375 1.601562 -9.558594 1.703125 -7.90625 C 1.800781 -5.304688 2.550781 -3.253906 4.003906 -1.703125 C 5.453125 -0.101562 7.507812 0.652344 10.15625 0.652344 C 12.808594 0.699219 14.960938 -0.300781 16.5625 -2.402344 C 18.164062 -4.503906 18.914062 -7.003906 18.914062 -9.90625 C 18.914062 -12.960938 17.914062 -15.261719 15.960938 -16.863281 C 15.261719 -17.363281 14.160156 -17.914062 12.609375 -18.566406 C 11.007812 -19.214844 10.207031 -19.566406 10.109375 -19.617188 C 9.007812 -20.117188 8.40625 -20.964844 8.304688 -22.066406 C 8.207031 -23.070312 8.457031 -23.917969 9.058594 -24.519531 C 9.65625 -25.121094 10.457031 -25.421875 11.507812 -25.421875 Z M 11.859375 -25.421875 "/></g></g></g><g fill="#f85606" fill-opacity="1"><g transform="translate(295.006315, 207.374986)"><g><path d="M 1.351562 -4.953125 C 1.351562 -3.152344 1.800781 -1.800781 2.800781 -0.800781 C 3.804688 0.199219 5.203125 0.699219 7.003906 0.699219 C 8.808594 0.699219 10.207031 0.199219 11.207031 -0.800781 C 12.210938 -1.800781 12.761719 -3.152344 12.761719 -4.953125 C 12.761719 -6.707031 12.210938 -8.054688 11.207031 -9.058594 C 10.207031 -10.058594 8.808594 -10.558594 7.003906 -10.558594 C 5.203125 -10.558594 3.804688 -10.058594 2.800781 -9.058594 C 1.800781 -8.054688 1.351562 -6.707031 1.351562 -4.953125 Z M 1.351562 -4.953125 "/></g></g></g><g fill="#f85606" fill-opacity="1"><g transform="translate(309.117337, 207.374986)"><g><path d="M 9.859375 5.804688 C 8.855469 5.804688 8.105469 5.203125 7.554688 3.953125 C 7.003906 2.753906 6.753906 1.402344 6.804688 -0.0507812 C 6.804688 -1.449219 6.957031 -2.753906 7.15625 -3.851562 L 7.554688 -3.851562 C 7.90625 -2.453125 8.65625 -1.351562 9.859375 -0.550781 C 11.007812 0.25 12.359375 0.652344 13.859375 0.652344 C 15.261719 0.652344 16.5625 0.351562 17.664062 -0.351562 C 18.765625 -1.050781 19.714844 -1.953125 20.417969 -3.152344 C 21.117188 -4.351562 21.71875 -5.605469 22.21875 -6.957031 C 22.71875 -8.257812 23.070312 -9.757812 23.320312 -11.359375 C 23.519531 -12.960938 23.71875 -14.363281 23.820312 -15.5625 C 23.917969 -16.761719 23.96875 -17.964844 24.019531 -19.164062 C 24.21875 -30.222656 21.816406 -35.777344 16.8125 -35.878906 C 12.710938 -35.878906 10.207031 -33.125 9.40625 -27.621094 L 8.957031 -27.621094 C 9.007812 -28.824219 9.105469 -30.023438 9.207031 -31.226562 C 9.308594 -32.425781 9.058594 -33.527344 8.457031 -34.476562 C 7.855469 -35.378906 6.855469 -35.878906 5.503906 -35.929688 C 4.351562 -35.929688 3.453125 -35.777344 2.800781 -35.578125 C 2.152344 -35.328125 1.402344 -34.878906 0.5 -34.175781 C 2.402344 -31.074219 3.351562 -27.820312 3.402344 -24.371094 C 3.402344 -20.566406 3.050781 -15.914062 2.300781 -10.507812 C 2.152344 -9.457031 1.851562 -7.507812 1.402344 -4.605469 C 0.902344 -1.703125 0.550781 0.851562 0.300781 3.050781 C 0.0507812 5.253906 -0.0507812 7.15625 0 8.808594 C 0.0507812 10.910156 0.550781 12.660156 1.550781 14.0625 C 2.550781 15.460938 4.203125 16.214844 6.503906 16.214844 C 8.605469 16.214844 10.257812 15.511719 11.410156 14.011719 C 12.558594 12.511719 13.160156 10.707031 13.261719 8.507812 C 13.3125 7.105469 13.058594 5.804688 12.558594 4.503906 C 11.609375 5.355469 10.707031 5.804688 9.859375 5.804688 Z M 10.410156 -10.109375 C 8.757812 -10.109375 7.855469 -11.160156 7.757812 -13.210938 C 7.554688 -15.460938 8.457031 -18.0625 10.359375 -21.015625 C 12.261719 -23.96875 14.261719 -25.421875 16.464844 -25.421875 C 17.265625 -25.421875 17.914062 -25.121094 18.363281 -24.519531 C 18.765625 -23.917969 19.015625 -23.167969 19.117188 -22.316406 C 19.214844 -20.765625 18.765625 -19.015625 17.8125 -17.0625 C 16.863281 -15.113281 15.664062 -13.460938 14.261719 -12.109375 C 12.808594 -10.757812 11.507812 -10.109375 10.410156 -10.109375 Z M 10.410156 -10.109375 "/></g></g></g><g fill="#f85606" fill-opacity="1"><g transform="translate(334.38708, 207.374986)"><g><path d="M 15.664062 -5.503906 C 15.960938 -1.402344 18.015625 0.652344 21.765625 0.652344 C 23.917969 0.601562 25.519531 -0.148438 26.570312 -1.601562 C 27.570312 -3.003906 28.074219 -4.855469 28.023438 -7.054688 C 28.023438 -8.457031 27.722656 -9.757812 27.171875 -11.058594 C 26.171875 -10.15625 25.320312 -9.757812 24.519531 -9.757812 C 23.570312 -9.757812 22.917969 -10.058594 22.566406 -10.707031 C 22.167969 -11.308594 21.816406 -12.210938 21.515625 -13.359375 C 21.167969 -14.511719 20.667969 -15.460938 20.066406 -16.164062 C 19.265625 -16.964844 18.265625 -17.414062 17.164062 -17.613281 C 19.464844 -18.613281 21.316406 -19.816406 22.667969 -21.316406 C 24.570312 -23.417969 25.519531 -25.820312 25.46875 -28.523438 C 25.46875 -30.722656 24.820312 -32.476562 23.570312 -33.828125 C 22.269531 -35.179688 20.566406 -35.878906 18.414062 -35.878906 C 15.8125 -35.878906 13.761719 -35.078125 12.261719 -33.476562 C 10.757812 -31.875 9.457031 -29.671875 8.457031 -26.871094 C 8.605469 -28.773438 8.855469 -31.273438 9.257812 -34.378906 C 9.757812 -38.582031 9.957031 -41.082031 9.859375 -41.882812 C 9.359375 -44.484375 7.507812 -45.835938 4.203125 -45.835938 C 2.953125 -45.835938 1.953125 -45.6875 1.152344 -45.488281 C 0.351562 -45.234375 -0.601562 -44.785156 -1.800781 -44.136719 C 0.601562 -41.03125 2.050781 -37.578125 2.601562 -33.777344 C 3.253906 -29.375 3.152344 -23.96875 2.351562 -17.515625 C 1.550781 -11.910156 1.199219 -8.40625 1.25 -7.003906 C 1.351562 -1.902344 3.453125 0.652344 7.507812 0.652344 C 9.609375 0.652344 11.109375 -0.101562 12.058594 -1.601562 C 13.011719 -3.101562 13.460938 -4.953125 13.410156 -7.253906 C 13.359375 -8.558594 13.058594 -9.808594 12.511719 -11.058594 C 11.558594 -10.15625 10.660156 -9.757812 9.859375 -9.757812 C 9.007812 -9.757812 8.40625 -10.109375 8.007812 -10.808594 C 7.605469 -11.507812 7.40625 -12.460938 7.507812 -13.660156 C 9.105469 -14.710938 10.660156 -15.261719 12.160156 -15.261719 C 12.960938 -15.261719 13.5625 -15.011719 14.0625 -14.613281 C 14.5625 -14.210938 14.910156 -13.5625 15.113281 -12.761719 C 15.3125 -11.960938 15.414062 -11.160156 15.460938 -10.457031 C 15.511719 -9.757812 15.5625 -8.855469 15.5625 -7.804688 C 15.5625 -6.707031 15.613281 -5.953125 15.664062 -5.503906 Z M 17.164062 -22.96875 C 17.0625 -21.917969 16.414062 -20.964844 15.210938 -20.117188 C 13.960938 -19.214844 12.710938 -18.566406 11.460938 -18.164062 C 10.207031 -17.765625 8.957031 -17.414062 7.757812 -17.214844 C 8.054688 -19.414062 8.808594 -21.367188 9.957031 -22.96875 C 11.058594 -24.570312 12.660156 -25.421875 14.710938 -25.421875 C 15.511719 -25.421875 16.113281 -25.171875 16.5625 -24.667969 C 16.964844 -24.167969 17.164062 -23.617188 17.164062 -22.96875 Z M 17.164062 -22.96875 "/></g></g></g></svg>