<svg xmlns="http://www.w3.org/2000/svg" xmlns:xlink="http://www.w3.org/1999/xlink" width="230" zoomAndPan="magnify" viewBox="0 0 172.5 44.999999" height="60" preserveAspectRatio="xMidYMid meet" version="1.0"><defs><g/></defs><g fill="#f85606" fill-opacity="1"><g transform="translate(8.541647, 29.23049)"><g><path d="M 26.621094 -24.816406 C 26.199219 -24.992188 25.703125 -24.78125 25.523438 -24.355469 L 17.738281 -4.636719 L 15.328125 -24.25 C 15.292969 -24.640625 14.976562 -24.921875 14.621094 -24.992188 C 14.230469 -25.066406 13.84375 -24.851562 13.699219 -24.5 L 4.921875 -4.921875 L 4.355469 -24.039062 C 4.320312 -24.535156 3.929688 -24.921875 3.46875 -24.886719 C 2.972656 -24.886719 2.621094 -24.464844 2.621094 -24.003906 L 3.328125 -1.132812 C 3.328125 -0.707031 3.609375 -0.390625 4 -0.320312 C 4.070312 -0.285156 4.105469 -0.285156 4.175781 -0.285156 C 4.496094 -0.285156 4.816406 -0.496094 4.957031 -0.8125 L 13.984375 -20.957031 L 16.425781 -1.0625 C 16.496094 -0.671875 16.78125 -0.355469 17.171875 -0.285156 C 17.558594 -0.246094 17.949219 -0.460938 18.089844 -0.851562 L 27.117188 -23.683594 C 27.296875 -24.144531 27.082031 -24.640625 26.621094 -24.816406 Z M 26.621094 -24.816406 "/></g></g></g><g fill="#f85606" fill-opacity="1"><g transform="translate(35.794702, 29.23049)"><g><path d="M 9.097656 -3.363281 C 8.179688 -2.585938 6.726562 -1.699219 5.027344 -1.945312 C 4.25 -2.054688 3.644531 -2.441406 3.257812 -3.117188 C 3.117188 -3.328125 3.007812 -3.574219 2.9375 -3.859375 C 4.175781 -4 6.371094 -4.496094 8.671875 -6.230469 C 10.160156 -7.363281 10.976562 -8.78125 10.867188 -9.984375 C 10.796875 -10.796875 10.335938 -11.46875 9.523438 -11.894531 C 8.671875 -12.320312 7.292969 -12.25 5.875 -11.683594 C 3.824219 -10.902344 2.230469 -9.3125 1.558594 -7.46875 C 1.238281 -6.550781 1.0625 -5.628906 1.0625 -4.816406 C 1.0625 -4.78125 1.0625 -4.78125 1.0625 -4.78125 C 1.0625 -4.671875 1.0625 -4.601562 1.0625 -4.53125 C 1.097656 -3.683594 1.34375 -2.867188 1.734375 -2.195312 C 2.40625 -1.097656 3.46875 -0.390625 4.742188 -0.210938 C 5.0625 -0.175781 5.347656 -0.140625 5.59375 -0.140625 C 7.574219 -0.140625 9.167969 -1.132812 10.230469 -2.019531 C 10.585938 -2.335938 10.621094 -2.902344 10.300781 -3.257812 C 10.019531 -3.644531 9.453125 -3.683594 9.097656 -3.363281 Z M 3.1875 -6.867188 C 3.71875 -8.25 4.957031 -9.453125 6.515625 -10.089844 C 7.152344 -10.335938 7.71875 -10.445312 8.140625 -10.445312 C 8.425781 -10.445312 8.601562 -10.371094 8.746094 -10.335938 C 9.0625 -10.160156 9.132812 -9.984375 9.132812 -9.84375 C 9.167969 -9.382812 8.710938 -8.460938 7.613281 -7.613281 C 5.699219 -6.195312 3.894531 -5.734375 2.867188 -5.628906 C 2.9375 -6.019531 3.042969 -6.441406 3.1875 -6.867188 Z M 3.1875 -6.867188 "/></g></g></g><g fill="#f85606" fill-opacity="1"><g transform="translate(47.757738, 29.23049)"><g><path d="M 11.46875 -8.671875 C 11.328125 -9.84375 10.761719 -10.726562 9.84375 -11.1875 C 8.851562 -11.683594 7.824219 -11.71875 6.832031 -11.292969 C 5.699219 -10.761719 4.707031 -9.628906 3.894531 -8.320312 L 6.40625 -23.257812 C 6.480469 -23.753906 6.160156 -24.214844 5.664062 -24.285156 C 5.203125 -24.355469 4.742188 -24.039062 4.671875 -23.578125 L 0.851562 -0.851562 C 0.777344 -0.390625 1.0625 0.0351562 1.523438 0.140625 C 1.59375 0.140625 1.664062 0.175781 1.734375 0.175781 C 2.125 0.175781 2.476562 -0.105469 2.550781 -0.496094 C 2.585938 -0.636719 2.621094 -0.777344 2.691406 -0.921875 C 3.042969 -0.53125 3.46875 -0.246094 3.964844 -0.105469 C 5.914062 0.460938 8 -1.132812 8.816406 -1.875 C 10.550781 -3.433594 11.753906 -6.480469 11.46875 -8.671875 Z M 7.648438 -3.152344 C 6.65625 -2.300781 5.308594 -1.523438 4.460938 -1.769531 C 4.035156 -1.910156 3.683594 -2.40625 3.433594 -3.222656 C 4.355469 -5.769531 5.839844 -8.921875 7.539062 -9.699219 C 8.070312 -9.914062 8.53125 -9.878906 9.027344 -9.628906 C 9.167969 -9.558594 9.628906 -9.347656 9.734375 -8.460938 C 9.949219 -6.867188 8.921875 -4.355469 7.648438 -3.152344 Z M 7.648438 -3.152344 "/></g></g></g><g fill="#f85606" fill-opacity="1"><g transform="translate(60.145491, 29.23049)"><g><path d="M 5.132812 -23.71875 C 3.683594 -22.765625 2.867188 -21.453125 2.726562 -19.859375 C 2.511719 -17.59375 3.71875 -15.046875 6.160156 -12.675781 C 9.878906 -9.027344 11.929688 -6.371094 10.726562 -4.355469 C 9.949219 -3.078125 8.671875 -2.265625 7.222656 -2.125 C 5.203125 -1.945312 3.042969 -2.972656 1.132812 -5.0625 C 0.8125 -5.453125 0.246094 -5.453125 -0.105469 -5.132812 C -0.496094 -4.816406 -0.496094 -4.25 -0.175781 -3.859375 C 1.910156 -1.558594 4.355469 -0.320312 6.726562 -0.320312 C 6.9375 -0.320312 7.152344 -0.320312 7.398438 -0.355469 C 9.417969 -0.566406 11.1875 -1.664062 12.25 -3.433594 C 14.265625 -6.796875 10.976562 -10.480469 7.398438 -13.949219 C 5.382812 -15.894531 4.320312 -18.019531 4.496094 -19.683594 C 4.601562 -20.746094 5.132812 -21.558594 6.089844 -22.234375 C 9.488281 -24.464844 13.167969 -21.0625 13.3125 -20.921875 C 13.664062 -20.570312 14.230469 -20.605469 14.585938 -20.957031 C 14.90625 -21.3125 14.90625 -21.878906 14.550781 -22.199219 C 12.886719 -23.789062 8.78125 -26.128906 5.132812 -23.71875 Z M 5.132812 -23.71875 "/></g></g></g><g fill="#f85606" fill-opacity="1"><g transform="translate(75.046189, 29.23049)"><g><path d="M 3.644531 -12.035156 C 3.1875 -12.109375 2.726562 -11.789062 2.65625 -11.328125 L 0.777344 -0.671875 C 0.707031 -0.175781 1.027344 0.285156 1.488281 0.355469 C 1.523438 0.355469 1.59375 0.355469 1.628906 0.355469 C 2.054688 0.355469 2.40625 0.0703125 2.511719 -0.355469 L 4.355469 -11.011719 C 4.460938 -11.503906 4.140625 -11.964844 3.644531 -12.035156 Z M 4.390625 -18.90625 C 3.753906 -18.90625 3.257812 -18.410156 3.257812 -17.773438 C 3.257812 -17.171875 3.753906 -16.675781 4.390625 -16.675781 C 4.992188 -16.675781 5.488281 -17.171875 5.488281 -17.773438 C 5.488281 -18.410156 4.992188 -18.90625 4.390625 -18.90625 Z M 4.390625 -18.90625 "/></g></g></g><g fill="#f85606" fill-opacity="1"><g transform="translate(80.213657, 29.23049)"><g><path d="M 10.160156 -12.285156 L 7.292969 -12.285156 L 9.3125 -23.683594 C 9.382812 -24.144531 9.0625 -24.605469 8.601562 -24.710938 C 8.105469 -24.78125 7.648438 -24.464844 7.574219 -24.003906 L 5.488281 -12.285156 L 2.195312 -12.285156 C 1.699219 -12.285156 1.308594 -11.894531 1.308594 -11.398438 C 1.308594 -10.902344 1.699219 -10.515625 2.195312 -10.515625 L 5.203125 -10.515625 L 3.574219 -1.308594 C 3.46875 -0.8125 3.789062 -0.390625 4.285156 -0.285156 C 4.320312 -0.285156 4.355469 -0.285156 4.425781 -0.285156 C 4.851562 -0.285156 5.203125 -0.566406 5.273438 -0.992188 L 6.972656 -10.515625 L 10.160156 -10.515625 C 10.65625 -10.515625 11.046875 -10.902344 11.046875 -11.398438 C 11.046875 -11.894531 10.65625 -12.285156 10.160156 -12.285156 Z M 10.160156 -12.285156 "/></g></g></g><g fill="#f85606" fill-opacity="1"><g transform="translate(90.831732, 29.23049)"><g><path d="M 9.097656 -3.363281 C 8.179688 -2.585938 6.726562 -1.699219 5.027344 -1.945312 C 4.25 -2.054688 3.644531 -2.441406 3.257812 -3.117188 C 3.117188 -3.328125 3.007812 -3.574219 2.9375 -3.859375 C 4.175781 -4 6.371094 -4.496094 8.671875 -6.230469 C 10.160156 -7.363281 10.976562 -8.78125 10.867188 -9.984375 C 10.796875 -10.796875 10.335938 -11.46875 9.523438 -11.894531 C 8.671875 -12.320312 7.292969 -12.25 5.875 -11.683594 C 3.824219 -10.902344 2.230469 -9.3125 1.558594 -7.46875 C 1.238281 -6.550781 1.0625 -5.628906 1.0625 -4.816406 C 1.0625 -4.78125 1.0625 -4.78125 1.0625 -4.78125 C 1.0625 -4.671875 1.0625 -4.601562 1.0625 -4.53125 C 1.097656 -3.683594 1.34375 -2.867188 1.734375 -2.195312 C 2.40625 -1.097656 3.46875 -0.390625 4.742188 -0.210938 C 5.0625 -0.175781 5.347656 -0.140625 5.59375 -0.140625 C 7.574219 -0.140625 9.167969 -1.132812 10.230469 -2.019531 C 10.585938 -2.335938 10.621094 -2.902344 10.300781 -3.257812 C 10.019531 -3.644531 9.453125 -3.683594 9.097656 -3.363281 Z M 3.1875 -6.867188 C 3.71875 -8.25 4.957031 -9.453125 6.515625 -10.089844 C 7.152344 -10.335938 7.71875 -10.445312 8.140625 -10.445312 C 8.425781 -10.445312 8.601562 -10.371094 8.746094 -10.335938 C 9.0625 -10.160156 9.132812 -9.984375 9.132812 -9.84375 C 9.167969 -9.382812 8.710938 -8.460938 7.613281 -7.613281 C 5.699219 -6.195312 3.894531 -5.734375 2.867188 -5.628906 C 2.9375 -6.019531 3.042969 -6.441406 3.1875 -6.867188 Z M 3.1875 -6.867188 "/></g></g></g><g fill="#f85606" fill-opacity="1"><g transform="translate(102.794768, 29.23049)"><g/></g></g><g fill="#f85606" fill-opacity="1"><g transform="translate(112.386434, 29.23049)"><g><path d="M 12.601562 -1.699219 L 2.265625 -1.699219 L 5.769531 -23.71875 C 5.839844 -24.214844 5.488281 -24.675781 5.027344 -24.746094 C 4.53125 -24.816406 4.070312 -24.5 4 -24.003906 L 0.320312 -0.957031 C 0.285156 -0.707031 0.355469 -0.425781 0.53125 -0.246094 C 0.707031 -0.0351562 0.957031 0.0703125 1.203125 0.0703125 L 12.601562 0.0703125 C 13.097656 0.0703125 13.523438 -0.320312 13.523438 -0.8125 C 13.523438 -1.308594 13.097656 -1.699219 12.601562 -1.699219 Z M 12.601562 -1.699219 "/></g></g></g><g fill="#f85606" fill-opacity="1"><g transform="translate(127.71185, 29.23049)"><g><path d="M 10.585938 -9.167969 C 10.480469 -10.335938 9.878906 -11.363281 8.886719 -11.894531 C 7.859375 -12.53125 6.550781 -12.496094 5.273438 -11.894531 C 3.503906 -11.046875 1.378906 -8.816406 1.132812 -5.417969 C 1.027344 -3.683594 1.34375 -2.371094 2.160156 -1.523438 C 2.796875 -0.8125 3.71875 -0.460938 4.851562 -0.460938 C 5.949219 -0.460938 7.222656 -1.167969 8.320312 -2.335938 C 9.277344 -3.363281 10.832031 -5.628906 10.585938 -9.167969 Z M 7.007812 -3.503906 C 6.195312 -2.621094 5.308594 -2.230469 4.851562 -2.230469 C 4.210938 -2.230469 3.753906 -2.371094 3.433594 -2.726562 C 3.007812 -3.1875 2.796875 -4.070312 2.902344 -5.273438 C 3.042969 -7.789062 4.601562 -9.628906 6.019531 -10.300781 C 6.441406 -10.515625 6.832031 -10.621094 7.1875 -10.621094 C 7.503906 -10.621094 7.789062 -10.550781 8.035156 -10.410156 C 8.496094 -10.125 8.78125 -9.628906 8.851562 -9.0625 C 9.0625 -6.160156 7.789062 -4.355469 7.007812 -3.503906 Z M 7.007812 -3.503906 "/></g></g></g><g fill="#f85606" fill-opacity="1"><g transform="translate(139.214771, 29.23049)"><g><path d="M 11.1875 -11.824219 C 10.796875 -11.894531 10.410156 -11.683594 10.265625 -11.292969 C 9.734375 -11.789062 9.0625 -12.179688 8.25 -12.179688 C 6.40625 -12.179688 4.140625 -10.585938 2.476562 -8.105469 C 1.203125 -6.195312 0.496094 -3.363281 0.886719 -1.699219 C 1.097656 -0.851562 1.523438 -0.460938 1.875 -0.285156 C 2.335938 0 2.832031 0.140625 3.363281 0.140625 C 3.683594 0.140625 4 0.0703125 4.320312 0 C 5.804688 -0.460938 7.363281 -1.945312 9.0625 -4.496094 C 8.671875 -2.230469 8.285156 -0.0351562 8.070312 0.921875 C 6.796875 7.046875 4.671875 10.691406 2.371094 10.691406 C 2.335938 10.691406 2.335938 10.691406 2.300781 10.691406 C 0.601562 10.691406 0.175781 9.949219 0.175781 9.949219 C 0 9.523438 -0.496094 9.277344 -0.957031 9.453125 C -1.417969 9.628906 -1.628906 10.160156 -1.453125 10.585938 C -1.378906 10.796875 -0.636719 12.460938 2.300781 12.460938 C 2.335938 12.460938 2.335938 12.460938 2.371094 12.460938 C 6.796875 12.425781 8.921875 5.453125 9.804688 1.273438 C 10.300781 -1.0625 11.859375 -10.445312 11.929688 -10.832031 C 12 -11.292969 11.683594 -11.753906 11.1875 -11.824219 Z M 3.824219 -1.699219 C 3.398438 -1.558594 3.078125 -1.59375 2.726562 -1.804688 C 2.300781 -2.125 2.476562 -4.957031 3.929688 -7.117188 C 5.382812 -9.277344 7.222656 -10.445312 8.25 -10.445312 C 8.78125 -10.445312 9.417969 -9.769531 9.769531 -9.203125 C 6.726562 -3.328125 4.742188 -1.984375 3.824219 -1.699219 Z M 3.824219 -1.699219 "/></g></g></g><g fill="#f85606" fill-opacity="1"><g transform="translate(151.956459, 29.23049)"><g><path d="M 10.585938 -9.167969 C 10.480469 -10.335938 9.878906 -11.363281 8.886719 -11.894531 C 7.859375 -12.53125 6.550781 -12.496094 5.273438 -11.894531 C 3.503906 -11.046875 1.378906 -8.816406 1.132812 -5.417969 C 1.027344 -3.683594 1.34375 -2.371094 2.160156 -1.523438 C 2.796875 -0.8125 3.71875 -0.460938 4.851562 -0.460938 C 5.949219 -0.460938 7.222656 -1.167969 8.320312 -2.335938 C 9.277344 -3.363281 10.832031 -5.628906 10.585938 -9.167969 Z M 7.007812 -3.503906 C 6.195312 -2.621094 5.308594 -2.230469 4.851562 -2.230469 C 4.210938 -2.230469 3.753906 -2.371094 3.433594 -2.726562 C 3.007812 -3.1875 2.796875 -4.070312 2.902344 -5.273438 C 3.042969 -7.789062 4.601562 -9.628906 6.019531 -10.300781 C 6.441406 -10.515625 6.832031 -10.621094 7.1875 -10.621094 C 7.503906 -10.621094 7.789062 -10.550781 8.035156 -10.410156 C 8.496094 -10.125 8.78125 -9.628906 8.851562 -9.0625 C 9.0625 -6.160156 7.789062 -4.355469 7.007812 -3.503906 Z M 7.007812 -3.503906 "/></g></g></g></svg>